<svg xmlns="http://www.w3.org/2000/svg" width="17.263" height="17.263" viewBox="0 0 17.263 17.263">
  <path id="account" d="M14.2,12.98l-2.756-.689-.235-.938A4.959,4.959,0,0,0,12.6,8.591a1.081,1.081,0,0,0,.78-.9l.18-1.439a1.077,1.077,0,0,0-.688-1.141l.066-1.354.269-.27a1.66,1.66,0,0,0,.039-2.241A3.022,3.022,0,0,0,10.523,0,4.741,4.741,0,0,0,7.8.721C4.733.785,4.316,2.208,4.316,3.6c0,.323.078,1.05.13,1.489A1.08,1.08,0,0,0,3.7,6.249l.18,1.439a1.082,1.082,0,0,0,.865.926A4.991,4.991,0,0,0,6.069,11.29l-.25,1-2.756.689A4.034,4.034,0,0,0,0,16.9a.36.36,0,0,0,.36.36H16.9a.361.361,0,0,0,.36-.361A4.037,4.037,0,0,0,14.2,12.98Z" fill="#fff"/>
</svg>
