<svg xmlns="http://www.w3.org/2000/svg" width="67.136" height="66.595" viewBox="0 0 67.136 66.595">
  <g id="ad-campaign" transform="translate(-1.083 -1.323)">
    <path id="Path_328" data-name="Path 328" d="M82.474,181.77A4.331,4.331,0,0,1,86.8,186.1v36.817H24V186.1a4.331,4.331,0,0,1,4.331-4.331Zm0,0" transform="translate(-20.752 -157.166)" fill="#7a6d79"/>
    <path id="Path_329" data-name="Path 329" d="M64,229.77h51.976v25.988H64Zm0,0" transform="translate(-55.337 -198.669)" fill="#918291"/>
    <path id="Path_330" data-name="Path 330" d="M46.982,453.77a2.166,2.166,0,0,1-2.166,2.166h-6.5a2.166,2.166,0,0,1-2.166-2.166H8v2.166a4.332,4.332,0,0,0,4.331,4.331H70.8a4.332,4.332,0,0,0,4.331-4.331V453.77Zm0,0" transform="translate(-6.917 -392.349)" fill="#918291"/>
    <path id="Path_331" data-name="Path 331" d="M139.313,11.935,136.22,9.77l-3.094,2.166L130.033,9.77l-3.093,2.166L123.846,9.77l-3.094,2.166L117.659,9.77l-3.094,2.166L111.471,9.77l-3.095,2.166L105.283,9.77l-3.094,2.166L99.094,9.77,96,11.935v53.6h43.314Zm0,0" transform="translate(-83.006 -8.447)" fill="#95d6a4"/>
    <path id="Path_332" data-name="Path 332" d="M150.793,246.548l4.594-4.594,6.126,6.125-4.594,4.594Zm0,0" transform="translate(-130.383 -209.204)" fill="#edf4ff"/>
    <path id="Path_333" data-name="Path 333" d="M184.734,163.7l6.126,6.125,2.3-2.3,9.953-3.829-12.25-12.25-3.829,9.953Zm0,0" transform="translate(-159.729 -130.949)" fill="#edf4ff"/>
    <path id="Path_334" data-name="Path 334" d="M207.363,290.273l3.062-3.062,4.594,4.594a2.166,2.166,0,0,1-3.063,3.062Zm0,0" transform="translate(-179.296 -248.335)" fill="#dbeaff"/>
    <g id="Group_3310" data-name="Group 3310" transform="translate(17.325 8.361)">
      <path id="Path_335" data-name="Path 335" d="M297.879,133.417l4.594-4.593L304,130.356l-4.594,4.594Zm0,0" transform="translate(-274.885 -119.748)" fill="#fff"/>
      <path id="Path_336" data-name="Path 336" d="M329.742,189.549l6.277-1.682.56,2.092-6.277,1.681Zm0,0" transform="translate(-302.435 -170.799)" fill="#fff"/>
      <path id="Path_337" data-name="Path 337" d="M256.2,97.978l1.682-6.276,2.092.56L258.3,98.539Zm0,0" transform="translate(-238.85 -87.651)" fill="#fff"/>
      <path id="Path_338" data-name="Path 338" d="M128,61.77h2.166V74.764H128Zm0,0" transform="translate(-128 -61.77)" fill="#fff"/>
      <path id="Path_339" data-name="Path 339" d="M160,61.77h2.166v8.663H160Zm0,0" transform="translate(-155.669 -61.77)" fill="#fff"/>
      <path id="Path_340" data-name="Path 340" d="M192,61.77h2.166V66.1H192Zm0,0" transform="translate(-183.337 -61.77)" fill="#fff"/>
      <path id="Path_341" data-name="Path 341" d="M368,301.77h2.166v12.994H368Zm0,0" transform="translate(-335.515 -269.285)" fill="#fff"/>
      <path id="Path_342" data-name="Path 342" d="M336,333.77h2.166v8.663H336Zm0,0" transform="translate(-307.846 -296.953)" fill="#fff"/>
      <path id="Path_343" data-name="Path 343" d="M304,365.77h2.166V370.1H304Zm0,0" transform="translate(-280.177 -324.622)" fill="#fff"/>
    </g>
    <path id="Path_345" data-name="Path 345" d="M165.932,151.692l-14.606-14.6-4.346,11.295-2.133,2.133-5.359,5.361,7.656,7.656L148.675,162l3.829,3.828a3.249,3.249,0,0,0,4.6-4.594l-3.828-3.828,1.37-1.369Zm-18.789,8.781-4.593-4.594,3.062-3.063,4.595,4.594Zm8.423,2.3a1.083,1.083,0,1,1-1.531,1.531l-3.829-3.828,1.532-1.526Zm-3.828-6.891-4.595-4.594,1.694-1.694,3.314-8.613,9.9,9.895-8.615,3.31Zm0,0" transform="translate(-120.608 -118.534)"/>
    <path id="Path_346" data-name="Path 346" d="M128.168,300.059l1.531-1.531,4.595,4.594-1.531,1.531Zm0,0" transform="translate(-110.82 -258.12)"/>
  </g>
</svg>
