<svg xmlns="http://www.w3.org/2000/svg" width="2394" height="471" viewBox="0 0 2394 471" version="1.1"><path d="M 756.241 2.325 C 751.118 5.171, 750.525 7.361, 750.145 24.836 C 749.665 46.974, 750.304 51.504, 754.497 55.697 L 757.800 59 780.765 59 C 802.540 59, 803.868 58.892, 806.385 56.912 C 811.570 52.834, 812 50.732, 812 29.500 C 812 0.039, 813.036 0.984, 780.800 1.035 C 764.844 1.061, 757.857 1.428, 756.241 2.325 M 1175.020 16.284 C 1173.656 16.975, 1171.975 18.656, 1171.284 20.020 C 1170.293 21.979, 1170.026 57.417, 1170.015 188.800 C 1169.999 369.548, 1169.658 358.580, 1175.414 362.352 C 1179.071 364.748, 1222.380 364.823, 1225.783 362.439 C 1230.911 358.848, 1230.999 358.054, 1231.012 315.300 L 1231.024 275.500 1243.778 262.093 L 1256.533 248.686 1299.309 304.304 C 1322.836 334.894, 1343.252 360.839, 1344.677 361.961 C 1347.161 363.914, 1348.584 364, 1378.563 364 C 1405.679 364, 1410.067 363.790, 1411.429 362.429 C 1413.853 360.004, 1413.326 354.899, 1410.141 349.946 C 1408.569 347.501, 1382.465 314.911, 1352.133 277.525 C 1321.801 240.138, 1297.102 209.195, 1297.246 208.761 C 1297.391 208.328, 1318.651 185.877, 1344.492 158.870 C 1370.333 131.863, 1392.089 108.891, 1392.838 107.820 C 1395.120 104.563, 1394.741 99.018, 1392.091 96.873 C 1389.952 95.140, 1387.643 95, 1361.290 95 C 1337.317 95, 1332.271 95.252, 1329.450 96.591 C 1327.386 97.570, 1307.930 117.805, 1278.799 149.270 L 1231.500 200.359 1231 111.429 C 1230.613 42.580, 1230.216 22.004, 1229.242 20.301 C 1226.329 15.209, 1225.190 14.999, 1200.527 15.015 C 1184.067 15.025, 1176.793 15.387, 1175.020 16.284 M 1563.500 90.627 C 1530.624 95.564, 1504.205 108.626, 1481.969 130.934 C 1461.764 151.205, 1449.101 175.364, 1443.390 204.536 C 1440.794 217.796, 1441.019 242.229, 1443.861 255.688 C 1454.355 305.383, 1487.896 344.056, 1534.603 360.314 C 1551.748 366.281, 1559.287 367.477, 1579.500 367.431 C 1595.824 367.395, 1598.431 367.140, 1607.500 364.699 C 1624.591 360.099, 1642.828 350.212, 1655.633 338.604 L 1661.765 333.044 1662.493 342.772 C 1663.313 353.731, 1665.064 359.119, 1668.751 362.019 C 1671.070 363.843, 1672.827 363.998, 1690.885 363.978 C 1708.154 363.959, 1711.013 363.723, 1714.788 362.010 C 1722.518 358.501, 1722 368.065, 1722 228.933 C 1722 90.667, 1722.479 99.962, 1715.173 96.327 C 1712.120 94.808, 1708.503 94.447, 1693.736 94.187 L 1675.973 93.873 1673.067 96.779 C 1669.732 100.114, 1668.561 103.894, 1666.958 116.500 C 1666.328 121.450, 1665.624 126.114, 1665.394 126.865 C 1665.123 127.746, 1662.389 125.774, 1657.689 121.309 C 1643.086 107.438, 1626.699 98.162, 1608.277 93.339 C 1600.152 91.212, 1595.796 90.728, 1582.500 90.478 C 1573.700 90.312, 1565.150 90.379, 1563.500 90.627 M 1843.500 91.048 C 1835.493 92.283, 1821.674 96.285, 1814.566 99.429 C 1794.239 108.418, 1778.304 126.093, 1772.141 146.487 C 1768.991 156.911, 1768.656 176.602, 1771.444 187.500 C 1776.692 208.010, 1789.512 224.190, 1810.324 236.570 C 1821.506 243.222, 1834.540 248.282, 1856.964 254.677 C 1885.618 262.849, 1893.941 267.259, 1898.135 276.491 C 1900.535 281.774, 1900.535 291.226, 1898.135 296.509 C 1893.059 307.681, 1876.161 315.224, 1856 315.317 C 1848.186 315.352, 1845.080 314.874, 1838.500 312.622 C 1827.685 308.921, 1817.535 302.757, 1811.500 296.225 C 1798.015 281.630, 1798.451 282, 1794.736 282 C 1791.808 282, 1789.012 283.682, 1778.276 291.901 C 1758.885 306.747, 1757.620 308.883, 1762.491 318.554 C 1768.815 331.107, 1780.522 343.206, 1795.149 352.304 C 1834.513 376.787, 1897.495 374.144, 1932.791 346.527 C 1945.498 336.584, 1955.587 321.506, 1959.574 306.500 C 1962.030 297.255, 1962.548 279.151, 1960.645 269 C 1958.302 256.493, 1951.756 243.854, 1942.666 234.286 C 1927.193 217.996, 1910.305 209.381, 1870.580 197.511 C 1849.579 191.235, 1841.943 187.832, 1835.467 181.863 C 1822.844 170.227, 1829.639 153.087, 1849.787 145.739 C 1854.040 144.189, 1857.929 143.648, 1865 143.625 C 1881.075 143.572, 1889.448 147.386, 1903.627 161.221 C 1916.473 173.756, 1916.795 173.715, 1936.500 157.024 C 1950.539 145.131, 1951 144.605, 1951 140.459 C 1951 136.700, 1948.028 132.395, 1938.159 121.856 C 1924.455 107.222, 1908.753 97.477, 1891.500 92.897 C 1885.202 91.225, 1879.882 90.704, 1866.500 90.448 C 1857.150 90.269, 1846.800 90.540, 1843.500 91.048 M 2121.500 90.627 C 2088.624 95.564, 2062.205 108.626, 2039.969 130.934 C 2019.764 151.205, 2007.101 175.364, 2001.390 204.536 C 1998.794 217.796, 1999.019 242.229, 2001.861 255.688 C 2012.355 305.383, 2045.896 344.056, 2092.603 360.314 C 2109.748 366.281, 2117.287 367.477, 2137.500 367.431 C 2153.824 367.395, 2156.431 367.140, 2165.500 364.699 C 2182.591 360.099, 2200.828 350.212, 2213.633 338.604 L 2219.765 333.044 2220.493 342.772 C 2221.313 353.731, 2223.064 359.119, 2226.751 362.019 C 2229.070 363.843, 2230.827 363.998, 2248.885 363.978 C 2266.154 363.959, 2269.013 363.723, 2272.788 362.010 C 2280.518 358.501, 2280 368.065, 2280 228.933 C 2280 90.667, 2280.479 99.962, 2273.173 96.327 C 2270.120 94.808, 2266.503 94.447, 2251.736 94.187 L 2233.973 93.873 2231.067 96.779 C 2227.732 100.114, 2226.561 103.894, 2224.958 116.500 C 2224.328 121.450, 2223.624 126.114, 2223.394 126.865 C 2223.123 127.746, 2220.389 125.774, 2215.689 121.309 C 2201.086 107.438, 2184.699 98.162, 2166.277 93.339 C 2158.152 91.212, 2153.796 90.728, 2140.500 90.478 C 2131.700 90.312, 2123.150 90.379, 2121.500 90.627 M 218.521 92.049 C 179.963 98.085, 147.061 118.810, 125.841 150.429 C 115.555 165.754, 109.044 181.123, 104.839 200 C 102.846 208.947, 102.502 213.235, 102.512 229 C 102.530 255.231, 105.739 268.838, 117.150 291.057 C 136.794 329.308, 172.793 356.570, 215.500 365.537 C 226.434 367.832, 249.731 368.594, 261.176 367.030 C 285.191 363.748, 307.429 353.982, 328.689 337.381 C 341.049 327.730, 343.221 323.168, 338.867 316 C 336.077 311.408, 318.272 290.304, 315.620 288.446 C 311.171 285.331, 307.060 286.553, 298.500 293.535 C 288.550 301.651, 273.475 309.238, 261.500 312.157 C 248.950 315.216, 231.543 315.243, 220.843 312.220 C 200.434 306.454, 184.959 295.321, 174.022 278.533 C 170.029 272.405, 164.043 257.593, 164.013 253.769 C 164.001 252.140, 169.927 252.022, 263.750 251.769 C 360.459 251.508, 363.598 251.441, 366.708 249.559 C 371.787 246.486, 372.510 243.442, 372.419 225.500 C 372.227 187.714, 360.184 156.682, 336.232 132.251 C 317.527 113.171, 294.290 100.291, 267 93.876 C 257.193 91.570, 228.489 90.489, 218.521 92.049 M 997.028 92.141 C 983.943 94.309, 970.468 99.553, 959.834 106.615 C 953.563 110.779, 938 126.082, 938 128.083 C 938 128.587, 937.641 129, 937.202 129 C 936.762 129, 935.889 123.860, 935.262 117.578 C 934.493 109.892, 933.451 104.843, 932.073 102.144 C 928.554 95.245, 927.733 95, 908.146 95 C 888.088 95, 885.753 95.748, 882.071 103.353 C 880.011 107.609, 880 108.264, 880.024 229.066 C 880.037 298.020, 880.439 352.189, 880.954 354.407 C 881.453 356.557, 883.026 359.482, 884.451 360.907 L 887.042 363.500 910.546 363.802 L 934.051 364.103 936.931 361.223 C 938.515 359.639, 940.301 356.578, 940.900 354.421 C 941.639 351.759, 941.996 326.577, 942.012 276 C 942.037 193.910, 942.072 193.382, 948.159 181.730 C 952.329 173.748, 964.491 161.559, 972.500 157.335 C 983.633 151.464, 990.423 149.691, 1002 149.635 C 1013.199 149.581, 1020.406 151.144, 1028.957 155.480 C 1044.973 163.602, 1056.436 181.021, 1058.948 201.056 C 1059.598 206.242, 1060 237.414, 1060 282.659 C 1060 326.855, 1060.379 356.867, 1060.957 358.387 C 1062.861 363.395, 1065.944 364, 1089.546 364 C 1113.504 364, 1115.313 363.598, 1118.504 357.570 C 1119.976 354.789, 1120.094 346.455, 1119.754 269 C 1119.391 186.215, 1119.313 183.230, 1117.281 175 C 1109.329 142.776, 1094.584 120.593, 1071.470 106.081 C 1054.874 95.661, 1036.781 90.902, 1014.574 91.117 C 1007.933 91.181, 1000.038 91.642, 997.028 92.141 M 472.337 95.250 C 468.950 99.039, 459.874 114.987, 460.515 116.024 C 460.889 116.629, 474.619 117, 496.609 117 C 536.160 117, 536.896 117.112, 539.592 123.566 C 540.838 126.549, 540.838 127.451, 539.592 130.434 C 536.790 137.139, 538.092 137, 478.121 137 C 417.179 137, 423.309 136.119, 417.677 145.686 C 415.930 148.654, 413.495 152.752, 412.266 154.791 C 411.038 156.831, 410.025 159.063, 410.016 159.750 C 410.003 160.741, 428.645 161, 499.938 161 C 596.996 161, 594.736 160.889, 608.661 166.361 C 621.823 171.533, 634.486 183.304, 640.855 196.288 C 646.194 207.171, 648 214.761, 648 226.314 C 648 237.557, 646.167 245.654, 641.280 256 C 635.060 269.167, 618.228 283.914, 604.500 288.224 C 602.850 288.742, 599.925 289.650, 598 290.241 C 595.722 290.941, 569.353 291.524, 522.500 291.908 L 450.500 292.500 450.500 358.435 L 450.500 424.369 463.195 433.935 C 470.177 439.196, 480.752 447.087, 486.695 451.472 C 492.638 455.856, 501.001 462.044, 505.279 465.222 C 509.829 468.601, 514.085 471, 515.529 471 L 518 471 518 430.163 L 518 389.326 501 375.146 C 491.650 367.346, 484 360.523, 484 359.983 C 484 359.351, 503.921 358.993, 539.750 358.982 C 584.294 358.967, 597.170 358.668, 603.810 357.493 C 618.196 354.949, 625.339 352.803, 637.954 347.237 C 644.002 344.568, 658.206 336.082, 663.931 331.718 C 685.245 315.470, 703.400 288.889, 710.524 263.500 C 711.450 260.200, 712.599 256.230, 713.077 254.677 C 713.556 253.124, 714.495 246.003, 715.165 238.853 C 717.447 214.488, 713.604 192.098, 703.348 170 C 694.048 149.962, 677.010 129.859, 658.500 117.084 C 643.268 106.571, 624.129 98.497, 608.500 95.990 C 604.650 95.373, 599.062 94.448, 596.083 93.934 C 593.104 93.420, 564.495 93, 532.508 93 L 474.349 93 472.337 95.250 M 754.497 98.303 C 751.856 100.944, 751.063 102.701, 750.545 107.053 C 750.189 110.049, 750.033 167.400, 750.199 234.500 C 750.484 350.018, 750.596 356.641, 752.299 359.149 C 755.430 363.760, 757.862 364.131, 782.815 363.803 L 805.958 363.500 808.729 360.727 L 811.500 357.955 811.761 231.364 C 812.021 105.723, 812.008 104.748, 809.996 101.493 C 806.322 95.548, 803.747 95, 779.499 95 L 757.800 95 754.497 98.303 M 230.388 145.050 C 202.917 148.638, 177.087 168.933, 167.469 194.487 L 165.017 201 239.617 201 L 314.217 201 313.554 198.250 C 312.243 192.808, 304.027 177.388, 299.568 172 C 283.406 152.469, 255.832 141.727, 230.388 145.050 M 1570.679 147.055 C 1540.426 150.574, 1514.809 173.121, 1504.844 205 C 1502.765 211.652, 1502.503 214.423, 1502.526 229.500 C 1502.552 246.158, 1502.620 246.697, 1505.916 256.291 C 1515.124 283.094, 1535.155 302.400, 1560.713 309.106 C 1571.506 311.938, 1588.483 311.910, 1599.500 309.041 C 1620.699 303.521, 1639.640 288.838, 1650.509 269.500 C 1652.363 266.200, 1655.345 259.225, 1657.136 254 C 1660.206 245.039, 1660.393 243.677, 1660.445 230 C 1660.511 212.666, 1659.253 207.043, 1652.056 192.500 C 1643.347 174.902, 1632.394 163.880, 1614.832 155.040 C 1600.928 148.040, 1585.773 145.300, 1570.679 147.055 M 2128.679 147.055 C 2098.426 150.574, 2072.809 173.121, 2062.844 205 C 2060.765 211.652, 2060.503 214.423, 2060.526 229.500 C 2060.552 246.158, 2060.620 246.697, 2063.916 256.291 C 2073.124 283.094, 2093.155 302.400, 2118.713 309.106 C 2129.506 311.938, 2146.483 311.910, 2157.500 309.041 C 2178.699 303.521, 2197.640 288.838, 2208.509 269.500 C 2210.363 266.200, 2213.345 259.225, 2215.136 254 C 2218.206 245.039, 2218.393 243.677, 2218.445 230 C 2218.511 212.666, 2217.253 207.043, 2210.056 192.500 C 2201.347 174.902, 2190.394 163.880, 2172.832 155.040 C 2158.928 148.040, 2143.773 145.300, 2128.679 147.055 M 569.830 181.027 C 559.985 186.228, 558.033 198.750, 565.797 206.903 C 574.936 216.501, 589.842 213.098, 594.013 200.460 C 598.540 186.745, 582.860 174.144, 569.830 181.027 M 437.250 186.662 C 436.344 187.028, 436 190.586, 436 199.583 L 436 212 424.155 212 C 408.784 212, 409 211.790, 409 226.706 C 409 234.605, 409.374 238.066, 410.312 238.844 C 411.049 239.456, 416.860 240.058, 423.562 240.217 L 435.500 240.500 435.770 252.500 C 435.992 262.334, 436.342 264.726, 437.712 265.750 C 438.791 266.558, 442.964 267, 449.500 267 C 456.036 267, 460.209 266.558, 461.288 265.750 C 462.658 264.726, 463.008 262.334, 463.230 252.500 L 463.500 240.500 475.500 240.230 C 485.334 240.008, 487.726 239.658, 488.750 238.288 C 489.557 237.210, 490 233.043, 490 226.531 C 490 211.990, 490.011 212, 474.943 212 L 463 212 463 200.200 C 463 192.356, 462.598 187.998, 461.800 187.200 C 460.609 186.009, 439.988 185.557, 437.250 186.662 M 543.275 210.011 C 530.219 212.952, 525.783 229.535, 535.636 238.561 C 542.978 245.286, 551.988 245.012, 559.154 237.846 C 565.092 231.908, 565.588 223.106, 560.370 216.249 C 556.361 210.980, 549.723 208.558, 543.275 210.011 M 603.687 210.220 C 591.369 213.477, 587.827 230.173, 597.632 238.759 C 604.484 244.759, 611.414 244.972, 618.709 239.409 C 633.073 228.453, 621.294 205.565, 603.687 210.220 M 573.500 240.802 C 565.211 243.722, 560.375 250.761, 561.260 258.616 C 562.743 271.772, 577.336 278.320, 587.646 270.456 C 591.457 267.550, 594.956 261.108, 594.956 257 C 594.956 252.938, 591.473 246.462, 587.768 243.637 C 584.183 240.902, 577.171 239.509, 573.500 240.802" stroke="none" fill="#fffcfc" fill-rule="evenodd"/><path d="" stroke="none" fill="#fcfcfc" fill-rule="evenodd"/></svg>