<svg id="gamer" xmlns="http://www.w3.org/2000/svg" width="18.697" height="18.697" viewBox="0 0 18.697 18.697">
  <path id="Path_957" data-name="Path 957" d="M8.012,16.08l-5.646.513a1.159,1.159,0,0,1-1.2-.753,2.712,2.712,0,0,1,0-1.857,1.159,1.159,0,0,1,1.2-.753l5.646.513Z" transform="translate(-0.708 -9.362)" fill="#f96464"/>
  <path id="Path_958" data-name="Path 958" d="M5.328,14.164l-.2,1.213c-.073.022-.146.041-.218.065a.584.584,0,0,0-.4.556v.023a.579.579,0,0,0,.026.165l-2.167.2a1.159,1.159,0,0,1-1.2-.753,2.938,2.938,0,0,1-.127-.49,2.709,2.709,0,0,0,.127,1.367,1.159,1.159,0,0,0,1.2.753l5.646-.513V14.408Z" transform="translate(-0.711 -10.027)" fill="#db4040"/>
  <path id="Path_959" data-name="Path 959" d="M16.506,47H20.6A3.506,3.506,0,0,1,24.1,50.506v1.169H13V50.506A3.506,3.506,0,0,1,16.506,47Z" transform="translate(-9.202 -33.27)" fill="#f96464"/>
  <path id="Path_960" data-name="Path 960" d="M27.472,47H24.235c-.107,0-.212.007-.316.016a1.772,1.772,0,0,0,.079.539,10.117,10.117,0,0,0,1.7,2.951,10.117,10.117,0,0,0,1.7-2.951A1.77,1.77,0,0,0,27.472,47Z" transform="translate(-16.931 -33.27)" fill="#db4040"/>
  <path id="Path_961" data-name="Path 961" d="M15.045,52.322a1.169,1.169,0,0,1-1.169-1.169h0a3.485,3.485,0,0,1,.629-2A3.5,3.5,0,0,0,13,52.03V53.2H24.1v-.876Z" transform="translate(-9.202 -34.794)" fill="#db4040"/>
  <path id="Path_962" data-name="Path 962" d="M24.922,49.337c1.614,0,2.922-.85,2.922-1.9a1.27,1.27,0,0,0-.048-.336,3.506,3.506,0,0,0-.828-.1h-4.09a3.506,3.506,0,0,0-.828.1,1.27,1.27,0,0,0-.048.336C22,48.487,23.308,49.337,24.922,49.337Z" transform="translate(-15.573 -33.27)" fill="#f8c460"/>
  <rect id="Rectangle_189" data-name="Rectangle 189" width="1.753" height="3.506" transform="translate(8.472 14.899)" fill="#f8c460"/>
  <path id="Path_963" data-name="Path 963" d="M30.753,51H29v1.952c.1.135.2.266.292.386A11.56,11.56,0,0,0,30.753,51Z" transform="translate(-20.528 -36.101)" fill="#faaf42"/>
  <rect id="Rectangle_190" data-name="Rectangle 190" width="1.753" height="0.876" transform="translate(8.472 17.528)" fill="#faaf42"/>
  <path id="Path_964" data-name="Path 964" d="M39,16.08l5.646.513a1.159,1.159,0,0,0,1.2-.753,2.712,2.712,0,0,0,0-1.857,1.159,1.159,0,0,0-1.2-.753L39,13.743Z" transform="translate(-27.606 -9.362)" fill="#f96464"/>
  <path id="Path_965" data-name="Path 965" d="M45.974,15.141a2.938,2.938,0,0,1-.127.49,1.159,1.159,0,0,1-1.2.753l-2.167-.2a.579.579,0,0,0,.026-.165V16a.584.584,0,0,0-.4-.555c-.072-.024-.146-.042-.218-.065l-.2-1.213L39,14.411v2.337l5.646.513a1.159,1.159,0,0,0,1.2-.753A2.709,2.709,0,0,0,45.974,15.141Z" transform="translate(-27.606 -10.03)" fill="#db4040"/>
  <path id="Path_966" data-name="Path 966" d="M26.3,1.329a6.8,6.8,0,0,0-4.178,0,1.151,1.151,0,0,0-.783.964L21,5.09h6.427l-.342-2.8a1.151,1.151,0,0,0-.783-.964Z" transform="translate(-14.865 -0.709)" fill="#f96464"/>
  <path id="Path_967" data-name="Path 967" d="M14.169,23h.584v2.337h-.584A1.169,1.169,0,0,1,13,24.169h0A1.169,1.169,0,0,1,14.169,23Z" transform="translate(-9.202 -16.282)" fill="#f9b995"/>
  <path id="Path_968" data-name="Path 968" d="M1.169,0h.584V2.337H1.169A1.169,1.169,0,0,1,0,1.169H0A1.169,1.169,0,0,1,1.169,0Z" transform="translate(14.9 9.055) rotate(180)" fill="#ffd3b6"/>
  <path id="Path_969" data-name="Path 969" d="M17,21h8.765v2.045a4.382,4.382,0,0,1-4.382,4.382h0A4.382,4.382,0,0,1,17,23.045Z" transform="translate(-12.034 -14.866)" fill="#ffd3b6"/>
  <path id="Path_970" data-name="Path 970" d="M17.876,21H17v1.917a4.5,4.5,0,0,0,4.43,4.51,4.37,4.37,0,0,0,3.455-1.756c-1.586,1.191-3.99,1.35-6.245-.636a2.3,2.3,0,0,1-.764-1.73V22.9a1.17,1.17,0,0,1,1.03-1.163,21.277,21.277,0,0,1,6.846.3l.013-.012V21Z" transform="translate(-12.034 -14.866)" fill="#f9b995"/>
  <path id="Path_971" data-name="Path 971" d="M24.434,5.377a12.536,12.536,0,0,0-6.1,0,1.169,1.169,0,0,0-.869.944L17,9.09h8.765L25.3,6.321A1.169,1.169,0,0,0,24.434,5.377Z" transform="translate(-12.034 -3.541)" fill="#f96464"/>
  <path id="Path_972" data-name="Path 972" d="M25.629,8.288a15.034,15.034,0,0,0-2.741-.564.565.565,0,0,1-.455-.3,1.169,1.169,0,0,0-2.1,0,.566.566,0,0,1-.456.3c-.082.009-.164.018-.247.029a1.169,1.169,0,0,1-1.3-1.35l.012-.07a1.169,1.169,0,0,1,.869-.944,12.74,12.74,0,0,1,2.613-.364,12.607,12.607,0,0,0-3.49.364,1.169,1.169,0,0,0-.869.944l-.326,1.954h0L17,9.1h8.765Z" transform="translate(-12.034 -3.554)" fill="#db4040"/>
  <path id="Path_973" data-name="Path 973" d="M21.472,13.962a.566.566,0,0,1-.455-.3,1.169,1.169,0,0,0-2.1,0,.566.566,0,0,1-.455.3,15.081,15.081,0,0,0-3.062.659.584.584,0,0,0-.4.557V15.2a.582.582,0,0,0,.694.573,21.328,21.328,0,0,1,8.545,0,.582.582,0,0,0,.694-.573v-.022a.584.584,0,0,0-.4-.557,15.081,15.081,0,0,0-3.062-.659Z" transform="translate(-10.618 -9.206)" fill="#f8c460"/>
  <path id="Path_974" data-name="Path 974" d="M30.337,37.29a1.217,1.217,0,0,1-2.337,0c0-.321.523-.292,1.169-.292S30.337,36.969,30.337,37.29Z" transform="translate(-19.82 -26.19)" fill="#f96464"/>
  <path id="Path_975" data-name="Path 975" d="M27.472,47H24.235c-.107,0-.212.01-.316.02a1.763,1.763,0,0,0,.079.535,7.289,7.289,0,0,0,.679,1.47,4.1,4.1,0,0,0,1.6.312c.084,0,.167,0,.249-.008a7.83,7.83,0,0,0,.864-1.774A1.77,1.77,0,0,0,27.472,47Z" transform="translate(-16.931 -33.27)" fill="#faaf42"/>
  <path id="Path_976" data-name="Path 976" d="M27.692,46.259a10.11,10.11,0,0,1-1.7-2.951A1.777,1.777,0,0,1,27.692,41h0a1.777,1.777,0,0,1,1.7,2.308,10.11,10.11,0,0,1-1.7,2.951Z" transform="translate(-18.343 -29.023)" fill="#8e969b"/>
  <path id="Path_977" data-name="Path 977" d="M26.873,43.308a1.778,1.778,0,0,1,1.259-2.254A1.78,1.78,0,0,0,26,43.308a10.117,10.117,0,0,0,1.7,2.951c.14-.178.289-.376.438-.587A8.94,8.94,0,0,1,26.873,43.308Z" transform="translate(-18.345 -29.023)" fill="#778084"/>
  <path id="Path_978" data-name="Path 978" d="M24.239,18.761a21.283,21.283,0,0,0-7.676-.154.586.586,0,0,1-.684-.555c-.16.046-.319.091-.479.142a.584.584,0,0,0-.4.556v.023a.582.582,0,0,0,.694.573,21.327,21.327,0,0,1,8.545,0,.582.582,0,0,0,.694-.573V18.75a.586.586,0,0,0-.077-.277h0A.577.577,0,0,1,24.239,18.761Z" transform="translate(-10.618 -12.779)" fill="#faaf42"/>
  <path id="Path_979" data-name="Path 979" d="M18.519,4.529a1.45,1.45,0,0,0-1.5-.947l-3.266.3-.19-1.141a1.456,1.456,0,0,0-1.045-1.165l0-.018A1.442,1.442,0,0,0,11.527.346a7.123,7.123,0,0,0-4.353,0,1.443,1.443,0,0,0-.985,1.208l0,.018A1.457,1.457,0,0,0,5.142,2.737l-.19,1.141-3.266-.3a1.448,1.448,0,0,0-1.5.947,3.011,3.011,0,0,0,0,2.052,1.442,1.442,0,0,0,1.368.953c.045,0,.091,0,.136-.006l1.925-.175a1.473,1.473,0,0,0-.1.54A1.458,1.458,0,0,0,4.822,9.338,4.728,4.728,0,0,0,6.38,11.792a1.227,1.227,0,0,1-.5.692L4.8,13.2a.292.292,0,1,0,.324.486L6.2,12.971a1.811,1.811,0,0,0,.672-.824,4.608,4.608,0,0,0,.8.4,2.06,2.06,0,0,0-.368.893,3.8,3.8,0,0,0-3.8,3.8v1.169A.292.292,0,0,0,3.8,18.7H14.9a.292.292,0,0,0,.292-.292V17.241a3.8,3.8,0,0,0-3.8-3.8,2.063,2.063,0,0,0-.37-.895,4.616,4.616,0,0,0,.8-.4,1.811,1.811,0,0,0,.672.824l1.075.717a.292.292,0,1,0,.324-.486l-1.075-.717a1.227,1.227,0,0,1-.5-.692,4.729,4.729,0,0,0,1.559-2.454A1.452,1.452,0,0,0,15.089,7.35l1.926.175c.046,0,.091.006.136.006a1.442,1.442,0,0,0,1.367-.953,3.011,3.011,0,0,0,0-2.05Zm-4.6,1.7a.279.279,0,0,1-.236.058,21.713,21.713,0,0,0-8.661,0,.278.278,0,0,1-.236-.058.308.308,0,0,1-.108-.251.292.292,0,0,1,.2-.278,14.918,14.918,0,0,1,3-.647.852.852,0,0,0,.687-.464.876.876,0,0,1,1.575,0,.852.852,0,0,0,.687.464h0a14.916,14.916,0,0,1,3,.647.3.3,0,0,1,.2.3A.294.294,0,0,1,13.917,6.226ZM7.349.9a6.538,6.538,0,0,1,4,0,.842.842,0,0,1,.533.528,12.837,12.837,0,0,0-5.069,0A.841.841,0,0,1,7.349.9ZM5.717,2.833a.876.876,0,0,1,.653-.708,12.3,12.3,0,0,1,5.963,0,.876.876,0,0,1,.651.708l.351,2.108a15.269,15.269,0,0,0-2.448-.472h0a.277.277,0,0,1-.224-.139,1.461,1.461,0,0,0-2.625,0,.277.277,0,0,1-.224.139,15.28,15.28,0,0,0-2.449.471ZM1.632,6.945a.862.862,0,0,1-.9-.56,2.4,2.4,0,0,1,0-1.662.86.86,0,0,1,.9-.56l3.223.292-.112.67-.05.015a.88.88,0,0,0-.6.858.87.87,0,0,0,.23.584,1.448,1.448,0,0,0-.228.138Zm2.459.946a.869.869,0,0,1,.584-.823V8.184a4.624,4.624,0,0,0,.036.542.875.875,0,0,1-.62-.834Zm4.389,3.253a3.38,3.38,0,0,1,.714-.039h.311a3.4,3.4,0,0,1,.714.039.966.966,0,0,1-1.739,0Zm2.068,1.737a1.468,1.468,0,0,1,.219,1.321A9.235,9.235,0,0,1,9.35,16.76,9.235,9.235,0,0,1,7.932,14.2a1.486,1.486,0,0,1,2.616-1.321Zm.777,1.5a2.1,2.1,0,0,0,.075-.351,3.211,3.211,0,0,1,.567.054.9.9,0,0,1,.012.092,1.608,1.608,0,0,1-1.125,1.31,6.877,6.877,0,0,0,.472-1.1Zm-4.594-.3a3.217,3.217,0,0,1,.567-.054,2.1,2.1,0,0,0,.075.351,6.889,6.889,0,0,0,.472,1.106,1.609,1.609,0,0,1-1.125-1.311C6.721,14.144,6.729,14.111,6.732,14.081Zm-2.641,3.16a3.217,3.217,0,0,1,2.049-2.992c.044.883.845,1.653,2.041,1.967v1.9H4.091Zm4.675.876V16.949c.122.168.242.328.355.472a.292.292,0,0,0,.459,0c.113-.143.234-.3.355-.472v1.169Zm5.843-.876v.876h-4.09v-1.9c1.2-.314,2-1.084,2.041-1.967a3.217,3.217,0,0,1,2.049,2.992ZM12.231,11.08a1.817,1.817,0,0,0-1.774-1.435H9.934a.292.292,0,0,0,0,.584h.523a1.232,1.232,0,0,1,1.23,1.23c0,.026,0,.051,0,.076a4.033,4.033,0,0,1-1.124.552,2.023,2.023,0,0,0-.256-.162,1.148,1.148,0,0,0,.5-.82.5.5,0,0,0-.146-.363c-.226-.226-.62-.225-1.16-.222H9.2c-.541,0-.935,0-1.16.222a.5.5,0,0,0-.147.363,1.148,1.148,0,0,0,.5.82,2.023,2.023,0,0,0-.256.162,4.033,4.033,0,0,1-1.124-.552c0-.025,0-.05,0-.076a1.232,1.232,0,0,1,1.23-1.23h.523a.292.292,0,0,0,0-.584H8.243a1.818,1.818,0,0,0-1.774,1.435,4.1,4.1,0,0,1-1.209-2.9V6.836a21.094,21.094,0,0,1,8.18,0V8.184A4.1,4.1,0,0,1,12.231,11.08Zm1.758-2.354a4.625,4.625,0,0,0,.036-.542V7.069a.871.871,0,0,1-.036,1.656Zm3.98-2.34a.863.863,0,0,1-.9.56l-2.464-.224a1.461,1.461,0,0,0-.225-.138.894.894,0,0,0,.228-.608.872.872,0,0,0-.6-.834l-.05-.015-.112-.67,3.223-.292a.861.861,0,0,1,.9.559A2.4,2.4,0,0,1,17.969,6.386Z" transform="translate(-0.002 -0.005)"/>
  <path id="Path_980" data-name="Path 980" d="M24.292,26a.292.292,0,0,0-.292.292v.584a.292.292,0,0,0,.584,0v-.584A.292.292,0,0,0,24.292,26Z" transform="translate(-16.989 -18.405)"/>
  <path id="Path_981" data-name="Path 981" d="M38.292,26a.292.292,0,0,0-.292.292v.584a.292.292,0,0,0,.584,0v-.584A.292.292,0,0,0,38.292,26Z" transform="translate(-26.898 -18.405)"/>
</svg>
