<svg xmlns="http://www.w3.org/2000/svg" width="47.423" height="37.673" viewBox="0 0 47.423 37.673">
  <g id="good-review" transform="translate(0 -52.526)">
    <g id="Group_3885" data-name="Group 3885" transform="translate(0.696 53.222)">
      <g id="Group_3884" data-name="Group 3884" transform="translate(0 0)">
        <path id="Path_1041" data-name="Path 1041" d="M46.684,60.026H14.347A6.847,6.847,0,0,0,7.5,66.873V84.7a6.847,6.847,0,0,0,6.847,6.847H38.7l4.617,4.617a.481.481,0,0,0,.82-.34V91.549h2.548A6.847,6.847,0,0,0,53.53,84.7V66.873A6.847,6.847,0,0,0,46.684,60.026Z" transform="translate(-7.5 -60.026)" fill="#fcf0b6"/>
        <path id="Path_1042" data-name="Path 1042" d="M116.9,124.494H115l-1.988,1.608a1.874,1.874,0,0,1-1.178.417H101.36a3.86,3.86,0,0,1-3.778-3.071l-1.416-6.776a3.86,3.86,0,0,1,3.778-4.649h4.02a.742.742,0,0,0,.742-.742v-5.15a1.913,1.913,0,0,1,3.787-.382l1.04,5.108a.71.71,0,0,0,.251.412l3.579,2.874a.893.893,0,0,0,.559.2h7.359v10.211Z" transform="translate(-87.862 -100.116)" fill="#ffe6c6"/>
      </g>
      <path id="Path_1043" data-name="Path 1043" d="M121.284,191.3h-6.236v5.085a2.584,2.584,0,0,1-1.183,2.165,3.071,3.071,0,0,0-.258.187l-1.141.923a1.874,1.874,0,0,1-1.178.417H102.53a2.236,2.236,0,0,1-2.195-1.749l0-.02-1.416-6.776a3.83,3.83,0,0,1,.309-2.48,3.861,3.861,0,0,0-3.057,4.581l1.416,6.776a3.86,3.86,0,0,0,3.778,3.071h10.476a1.873,1.873,0,0,0,1.178-.417L115,201.451h1.9l2.029.026v-2.254h2.351V191.3Z" transform="translate(-87.864 -177.073)" fill="#f8d3aa"/>
      <path id="Path_1044" data-name="Path 1044" d="M328.1,197.755V209.77a.787.787,0,0,1-.787.787H321.27a.857.857,0,0,1-.857-.857V197.826a.858.858,0,0,1,.858-.858h6.043A.787.787,0,0,1,328.1,197.755Z" transform="translate(-291.372 -184.259)" fill="#ea9a98"/>
      <path id="Path_1045" data-name="Path 1045" d="M325.9,208.367a3.221,3.221,0,0,1-3.221-3.221v-8.178h-1.408a.858.858,0,0,0-.858.858V209.7a.857.857,0,0,0,.857.857h6.044a.787.787,0,0,0,.787-.787v-1.4Z" transform="translate(-291.372 -184.259)" fill="#e5827f"/>
      <path id="Path_1046" data-name="Path 1046" d="M21.554,88.118A7.458,7.458,0,0,1,14.1,80.66V60.08a6.848,6.848,0,0,0-6.6,6.842V84.751A6.847,6.847,0,0,0,14.347,91.6H38.7l4.617,4.617a.481.481,0,0,0,.82-.34V91.6h2.548a6.85,6.85,0,0,0,5.964-3.482Z" transform="translate(-7.5 -60.075)" fill="#fbe372"/>
    </g>
    <g id="Group_3886" data-name="Group 3886" transform="translate(0 52.526)">
      <path id="Path_1047" data-name="Path 1047" d="M117.79,121.137a.7.7,0,0,0,.7-.7v-15.1a.7.7,0,0,0-1.391-.014h-6.136a1.554,1.554,0,0,0-1.551,1.514h-2.285A.2.2,0,0,1,107,106.8l-3.579-2.875a.014.014,0,0,1,0-.008l-1.04-5.108a2.609,2.609,0,0,0-5.165.52v5.15a.046.046,0,0,1-.046.046h-4.02a4.556,4.556,0,0,0-4.46,5.488l1.416,6.777a4.575,4.575,0,0,0,4.46,3.624h2.166a.7.7,0,1,0,0-1.392H94.559a3.177,3.177,0,0,1-3.1-2.517l-1.416-6.777a3.164,3.164,0,0,1,3.1-3.811h4.02a1.44,1.44,0,0,0,1.438-1.438v-5.15a1.217,1.217,0,0,1,2.409-.243l1.04,5.107a1.409,1.409,0,0,0,.5.816l3.579,2.874a1.594,1.594,0,0,0,.995.35h2.283v4.315a.7.7,0,0,0,1.392,0v-5.667a.161.161,0,0,1,.161-.161h6.135v12.2h-6.135a.161.161,0,0,1-.161-.161v-3.242a.7.7,0,0,0-1.392,0v1.482h-1.2a.7.7,0,0,0-.438.155l-1.988,1.608a1.181,1.181,0,0,1-.74.262H99.692a.7.7,0,0,0,0,1.392h5.344a2.578,2.578,0,0,0,1.615-.571l1.8-1.453h.958v.368a1.555,1.555,0,0,0,1.553,1.553h6.135v.133a.7.7,0,0,0,.7.7Z" transform="translate(-80.365 -92.616)"/>
      <path id="Path_1048" data-name="Path 1048" d="M39.88,52.526H34.426a.7.7,0,0,0,0,1.392H39.88a6.158,6.158,0,0,1,6.151,6.151V77.9a6.158,6.158,0,0,1-6.151,6.151H37.332a.7.7,0,0,0-.7.7V88.5l-4.249-4.249a.7.7,0,0,0-.492-.2H7.543A6.157,6.157,0,0,1,1.392,77.9V60.069a6.158,6.158,0,0,1,6.151-6.151H31.46a.7.7,0,0,0,0-1.392H7.543A7.551,7.551,0,0,0,0,60.069V77.9a7.551,7.551,0,0,0,7.543,7.543H31.606l4.413,4.413a1.177,1.177,0,0,0,2.009-.832V85.441H39.88A7.551,7.551,0,0,0,47.423,77.9V60.069a7.551,7.551,0,0,0-7.543-7.543Z" transform="translate(0 -52.526)"/>
    </g>
  </g>
</svg>
