<svg xmlns="http://www.w3.org/2000/svg" xmlns:xlink="http://www.w3.org/1999/xlink" width="45.576" height="45.371" viewBox="0 0 45.576 45.371">
  <defs>
    <linearGradient id="linear-gradient" x1="-0.042" y1="-0.115" x2="1.053" y2="1.148" gradientUnits="objectBoundingBox">
      <stop offset="0" stop-color="#9237b3"/>
      <stop offset="1" stop-color="#2fa1cb"/>
    </linearGradient>
    <linearGradient id="linear-gradient-2" x1="-1.967" y1="-2.689" x2="1.129" y2="1.274" xlink:href="#linear-gradient"/>
    <linearGradient id="linear-gradient-3" x1="-9.74" y1="-9.741" x2="13.958" y2="13.957" xlink:href="#linear-gradient"/>
    <linearGradient id="linear-gradient-4" x1="-10.55" y1="-10.551" x2="20.292" y2="20.29" xlink:href="#linear-gradient"/>
    <linearGradient id="linear-gradient-5" x1="-26.107" y1="-26.107" x2="4.735" y2="4.735" xlink:href="#linear-gradient"/>
    <linearGradient id="linear-gradient-6" x1="-9.974" y1="-9.955" x2="4.595" y2="4.589" xlink:href="#linear-gradient"/>
    <linearGradient id="linear-gradient-7" x1="-3.84" y1="-3.84" x2="10.729" y2="10.729" xlink:href="#linear-gradient"/>
    <linearGradient id="linear-gradient-8" x1="-6.925" y1="-6.92" x2="5.849" y2="5.844" xlink:href="#linear-gradient"/>
    <linearGradient id="linear-gradient-9" x1="0.467" y1="0.466" x2="13.234" y2="13.224" xlink:href="#linear-gradient"/>
    <linearGradient id="linear-gradient-10" x1="-0.188" y1="-3.178" x2="1.101" y2="3.463" xlink:href="#linear-gradient"/>
    <linearGradient id="linear-gradient-11" x1="-0.044" y1="-0.185" x2="1.228" y2="1.417" xlink:href="#linear-gradient"/>
    <linearGradient id="linear-gradient-12" x1="0.095" y1="-32.046" x2="1.367" y2="70.257" xlink:href="#linear-gradient"/>
    <linearGradient id="linear-gradient-13" x1="-3.87" y1="-3.868" x2="27.987" y2="27.989" xlink:href="#linear-gradient"/>
    <linearGradient id="linear-gradient-14" x1="-3.514" y1="-3.512" x2="20.826" y2="20.828" xlink:href="#linear-gradient"/>
    <linearGradient id="linear-gradient-15" x1="-4.188" y1="-4.186" x2="20.152" y2="20.154" xlink:href="#linear-gradient"/>
    <linearGradient id="linear-gradient-16" x1="-0.56" y1="-2.014" x2="3.07" y2="6.59" xlink:href="#linear-gradient"/>
    <linearGradient id="linear-gradient-17" x1="-0.835" y1="-14.459" x2="2.217" y2="19.735" xlink:href="#linear-gradient"/>
    <linearGradient id="linear-gradient-18" x1="-3.204" y1="-13.425" x2="5.891" y2="20.769" xlink:href="#linear-gradient"/>
    <linearGradient id="linear-gradient-19" x1="-1.508" y1="-15.273" x2="2.844" y2="18.921" xlink:href="#linear-gradient"/>
    <linearGradient id="linear-gradient-20" x1="-1.28" y1="-10.925" x2="4.048" y2="23.269" xlink:href="#linear-gradient"/>
    <linearGradient id="linear-gradient-21" x1="-0.676" y1="-16.702" x2="1.662" y2="17.492" xlink:href="#linear-gradient"/>
    <linearGradient id="linear-gradient-22" x1="-0.377" y1="-16.374" x2="1.4" y2="17.821" xlink:href="#linear-gradient"/>
    <linearGradient id="linear-gradient-23" x1="-0.704" y1="-13.981" x2="2.138" y2="20.213" xlink:href="#linear-gradient"/>
    <linearGradient id="linear-gradient-24" x1="-16.21" y1="-15.86" x2="15.848" y2="15.599" xlink:href="#linear-gradient"/>
    <linearGradient id="linear-gradient-25" x1="-26.809" y1="-27.365" x2="4.65" y2="4.777" xlink:href="#linear-gradient"/>
    <linearGradient id="linear-gradient-26" x1="-1.145" y1="-1.352" x2="1.375" y2="1.168" xlink:href="#linear-gradient"/>
    <linearGradient id="linear-gradient-27" x1="-0.819" y1="-0.819" x2="1.081" y2="1.081" xlink:href="#linear-gradient"/>
    <linearGradient id="linear-gradient-28" x1="-1.42" y1="-1.42" x2="1.346" y2="1.346" xlink:href="#linear-gradient"/>
    <linearGradient id="linear-gradient-29" x1="-62.559" y1="-14.698" x2="40.163" y2="10.05" xlink:href="#linear-gradient"/>
    <linearGradient id="linear-gradient-30" x1="-22.813" y1="-15.593" x2="17.076" y2="11.929" xlink:href="#linear-gradient"/>
    <linearGradient id="linear-gradient-31" x1="-15.619" y1="-22.79" x2="11.945" y2="17.046" xlink:href="#linear-gradient"/>
    <linearGradient id="linear-gradient-32" x1="-14.863" y1="-62.559" x2="10.158" y2="40.163" xlink:href="#linear-gradient"/>
    <linearGradient id="linear-gradient-33" x1="-26.012" y1="-17.82" x2="13.877" y2="9.733" xlink:href="#linear-gradient"/>
    <linearGradient id="linear-gradient-34" x1="-19.437" y1="-28.322" x2="8.127" y2="11.515" xlink:href="#linear-gradient"/>
    <linearGradient id="linear-gradient-35" x1="-18.465" y1="-78.708" x2="6.016" y2="23.595" xlink:href="#linear-gradient"/>
    <linearGradient id="linear-gradient-36" x1="-4.367" y1="-35.469" x2="2.207" y2="13.116" xlink:href="#linear-gradient"/>
    <linearGradient id="linear-gradient-37" x1="-6.751" y1="-6.803" x2="3.728" y2="3.688" xlink:href="#linear-gradient"/>
    <linearGradient id="linear-gradient-38" x1="-11.597" y1="-11.597" x2="5.832" y2="5.832" xlink:href="#linear-gradient"/>
    <linearGradient id="linear-gradient-39" x1="-4.629" y1="-4.644" x2="3.419" y2="3.431" xlink:href="#linear-gradient"/>
  </defs>
  <g id="guvenilirlik" transform="translate(0 -0.004)">
    <g id="Group_4575" data-name="Group 4575" transform="translate(2.628 5.908)">
      <g id="Group_4573" data-name="Group 4573" opacity="0.2">
        <path id="Path_1825" data-name="Path 1825" d="M32.271,65.815c-8.044,6.994-16.561-.249-16.561-9.433,0-14.977,16.608-24.271,30.211-20.074,3.868,1.2,7.511,4.3,8.153,8.461.716,4.647-2.82,8.212-6.4,10.567C44.268,57.581,34.059,64.259,32.271,65.815Z" transform="translate(-15.71 -35.297)" fill="url(#linear-gradient)"/>
      </g>
      <g id="Group_4574" data-name="Group 4574" transform="translate(26.718 23.144)" opacity="0.2">
        <path id="Path_1826" data-name="Path 1826" d="M183.6,183.916c-2.355.657-5.8.557-7.528-1.465-2.007-2.355,1.191-4.565,3.22-6,2.436-1.721,7.792-4.8,9.43-.93,1.032,2.442-.7,5.552-2.551,7.1A6.928,6.928,0,0,1,183.6,183.916Z" transform="translate(-175.432 -173.654)" fill="url(#linear-gradient-2)"/>
      </g>
    </g>
    <g id="Group_4576" data-name="Group 4576" transform="translate(0 37.691)">
      <circle id="Ellipse_163" data-name="Ellipse 163" cx="0.683" cy="0.683" r="0.683" transform="translate(0.206 0.206)" fill="#fff"/>
      <path id="Path_1827" data-name="Path 1827" d="M.888,227.077a.888.888,0,1,1,.888-.888A.888.888,0,0,1,.888,227.077Zm0-1.367a.478.478,0,1,0,.477.478.478.478,0,0,0-.477-.478Z" transform="translate(0 -225.3)" fill="url(#linear-gradient-3)"/>
    </g>
    <circle id="Ellipse_164" data-name="Ellipse 164" cx="0.683" cy="0.683" r="0.683" transform="translate(31.678 0.209)" fill="url(#linear-gradient-4)"/>
    <circle id="Ellipse_165" data-name="Ellipse 165" cx="0.683" cy="0.683" r="0.683" transform="translate(30.442 44.01)" fill="url(#linear-gradient-5)"/>
    <path id="Path_1828" data-name="Path 1828" d="M139.231,226.747l.724.306a.2.2,0,0,1,0,.37l-.724.306a.2.2,0,0,0-.107.107l-.306.724a.2.2,0,0,1-.37,0l-.306-.729a.2.2,0,0,0-.107-.107l-.724-.306a.2.2,0,0,1,0-.37l.724-.306a.2.2,0,0,0,.107-.107l.306-.724a.2.2,0,0,1,.37,0l.306.724A.2.2,0,0,0,139.231,226.747Z" transform="translate(-114.239 -188.015)" fill="url(#linear-gradient-6)"/>
    <path id="Path_1829" data-name="Path 1829" d="M139.231,14.852l.724.306a.2.2,0,0,1,0,.37l-.724.306a.2.2,0,0,0-.107.107l-.306.724a.2.2,0,0,1-.37,0l-.306-.724a.2.2,0,0,0-.107-.107l-.724-.306a.2.2,0,0,1,0-.37l.724-.306a.2.2,0,0,0,.107-.107l.306-.724a.2.2,0,0,1,.37,0l.306.731a.2.2,0,0,0,.107.1Z" transform="translate(-114.239 -11.57)" fill="url(#linear-gradient-7)"/>
    <g id="Group_4577" data-name="Group 4577" transform="translate(38.676 10.054)">
      <path id="Path_1830" data-name="Path 1830" d="M234.471,62.227l.729.306a.2.2,0,0,1,0,.363l-.724.306a.2.2,0,0,0-.107.107l-.306.724a.2.2,0,0,1-.37,0l-.306-.724a.2.2,0,0,0-.107-.107l-.729-.306a.2.2,0,0,1,0-.37l.726-.3a.2.2,0,0,0,.107-.107l.311-.729a.2.2,0,0,1,.37,0l.3.729A.2.2,0,0,0,234.471,62.227Z" transform="translate(-232.223 -61.07)" fill="#fff"/>
      <path id="Path_1831" data-name="Path 1831" d="M232.854,63.382a.4.4,0,0,1-.373-.248l-.308-.723-.723-.3a.406.406,0,0,1,0-.748l.723-.309.3-.721a.406.406,0,0,1,.748,0l.306.723.723.306a.406.406,0,0,1,0,.748l-.721.3-.3.723a.4.4,0,0,1-.375.248Zm0-2.892-.3.724a.4.4,0,0,1-.217.216l-.729.313.729.291a.408.408,0,0,1,.211.211l.306.726.3-.726a.406.406,0,0,1,.216-.216l.726-.306-.724-.3a.4.4,0,0,1-.216-.216Z" transform="translate(-231.204 -60.084)" fill="url(#linear-gradient-8)"/>
    </g>
    <g id="Group_4578" data-name="Group 4578" transform="translate(0.001 0.004)">
      <path id="Path_1832" data-name="Path 1832" d="M3.273,2.184,4,2.49a.2.2,0,0,1,0,.37l-.724.306a.2.2,0,0,0-.107.107L2.865,4A.2.2,0,0,1,2.5,4l-.311-.724a.2.2,0,0,0-.107-.107l-.718-.3a.2.2,0,0,1,0-.375l.718-.306a.2.2,0,0,0,.107-.107l.306-.718a.2.2,0,0,1,.375,0l.3.718a.2.2,0,0,0,.107.107Z" transform="translate(-1.026 -1.026)" fill="#fff"/>
      <path id="Path_1833" data-name="Path 1833" d="M1.653,3.3a.4.4,0,0,1-.373-.248L.973,2.33l-.723-.3a.406.406,0,0,1,0-.748L.977.973l.3-.723a.406.406,0,0,1,.748,0l.3.723.723.3a.406.406,0,0,1,0,.748l-.724.306-.3.724a.4.4,0,0,1-.375.248Zm0-2.892-.3.724a.406.406,0,0,1-.216.216l-.724.306.724.3a.406.406,0,0,1,.216.222l.306.726.3-.726a.406.406,0,0,1,.222-.222L2.9,1.649l-.726-.3a.4.4,0,0,1-.216-.216Z" transform="translate(-0.004 -0.004)" fill="url(#linear-gradient-9)"/>
    </g>
    <rect id="Rectangle_630" data-name="Rectangle 630" width="32.665" height="25.87" rx="12.935" transform="translate(1.833 7.992)" fill="#fff"/>
    <path id="Path_1834" data-name="Path 1834" d="M43.66,164.51v3.416a2.924,2.924,0,0,1-2.924,2.924H13.919A2.922,2.922,0,0,1,11,167.926V164.51a2.922,2.922,0,0,0,2.919,2.926H40.736A2.924,2.924,0,0,0,43.66,164.51Z" transform="translate(-9.16 -136.988)" opacity="0.5" fill="url(#linear-gradient-10)"/>
    <path id="Path_1835" data-name="Path 1835" d="M39.686,72.811H12.868A3.131,3.131,0,0,1,9.74,69.683V49.658a3.131,3.131,0,0,1,3.128-3.128H39.686a3.131,3.131,0,0,1,3.128,3.128V69.682a3.131,3.131,0,0,1-3.128,3.13ZM12.868,46.943a2.722,2.722,0,0,0-2.718,2.715V69.682A2.722,2.722,0,0,0,12.868,72.4H39.686A2.722,2.722,0,0,0,42.4,69.682V49.658a2.722,2.722,0,0,0-2.717-2.715Z" transform="translate(-8.111 -38.743)" fill="url(#linear-gradient-11)"/>
    <path id="Path_1836" data-name="Path 1836" d="M42.543,69.116H9.883a.206.206,0,1,1,0-.41h32.66a.206.206,0,1,1,0,.41Z" transform="translate(-8.043 -57.209)" fill="url(#linear-gradient-12)"/>
    <circle id="Ellipse_166" data-name="Ellipse 166" cx="0.661" cy="0.661" r="0.661" transform="translate(4.123 9.185)" fill="url(#linear-gradient-13)"/>
    <path id="Path_1837" data-name="Path 1837" d="M38.245,55.39a.865.865,0,1,1,.865-.865A.865.865,0,0,1,38.245,55.39Zm0-1.32a.455.455,0,1,0,.455.455.455.455,0,0,0-.455-.455Z" transform="translate(-31.127 -44.681)" fill="url(#linear-gradient-14)"/>
    <path id="Path_1838" data-name="Path 1838" d="M52.193,55.39a.865.865,0,1,1,.867-.865A.865.865,0,0,1,52.193,55.39Zm0-1.32a.455.455,0,1,0,.455.455.455.455,0,0,0-.455-.455Z" transform="translate(-42.744 -44.681)" fill="url(#linear-gradient-15)"/>
    <rect id="Rectangle_631" data-name="Rectangle 631" width="11.598" height="4.893" rx="2.446" transform="translate(4.784 14.65)" fill="url(#linear-gradient-16)"/>
    <path id="Path_1839" data-name="Path 1839" d="M120.558,87.561H108a.616.616,0,0,1,0-1.231h12.563a.616.616,0,1,1,0,1.231ZM108,86.74a.206.206,0,1,0,0,.41h12.563a.206.206,0,0,0,0-.41Z" transform="translate(-89.417 -71.886)" fill="url(#linear-gradient-17)"/>
    <path id="Path_1840" data-name="Path 1840" d="M111.393,99.731H108a.616.616,0,0,1,0-1.231h3.4a.616.616,0,0,1,0,1.231Zm-3.4-.813a.206.206,0,1,0,0,.41h3.4a.206.206,0,1,0,0-.41Z" transform="translate(-89.417 -82.02)" fill="url(#linear-gradient-18)"/>
    <path id="Path_1841" data-name="Path 1841" d="M116.44,111.871H108a.616.616,0,0,1,0-1.231h8.444a.616.616,0,0,1,0,1.231ZM108,111.05a.206.206,0,1,0,0,.41h8.444a.206.206,0,1,0,0-.41Z" transform="translate(-89.417 -92.129)" fill="url(#linear-gradient-19)"/>
    <path id="Path_1842" data-name="Path 1842" d="M34.655,133.151H27.986a.616.616,0,0,1,0-1.231h6.669a.616.616,0,1,1,0,1.231Zm-6.669-.821a.206.206,0,0,0,0,.41h6.669a.206.206,0,0,0,0-.41Z" transform="translate(-22.792 -109.849)" fill="url(#linear-gradient-20)"/>
    <path id="Path_1843" data-name="Path 1843" d="M99.582,133.151H82.806a.616.616,0,0,1,0-1.231H99.582a.616.616,0,1,1,0,1.231Zm-16.777-.821a.206.206,0,0,0,0,.41H99.582a.206.206,0,0,0,0-.41Z" transform="translate(-68.441 -109.849)" fill="url(#linear-gradient-21)"/>
    <path id="Path_1844" data-name="Path 1844" d="M71.295,145.311H48.836a.616.616,0,0,1,0-1.231H71.295a.616.616,0,1,1,0,1.231Zm-22.459-.821a.206.206,0,0,0,0,.41H71.295a.206.206,0,0,0,0-.41Z" transform="translate(-40.154 -119.975)" fill="url(#linear-gradient-22)"/>
    <path id="Path_1845" data-name="Path 1845" d="M41.567,157.481H27.986a.616.616,0,0,1,0-1.231H41.567a.616.616,0,0,1,0,1.231Zm-13.581-.821a.206.206,0,0,0,0,.41H41.567a.206.206,0,1,0,0-.41Z" transform="translate(-22.792 -130.109)" fill="url(#linear-gradient-23)"/>
    <g id="Group_4581" data-name="Group 4581" transform="translate(23.422 15.946)">
      <path id="Path_1846" data-name="Path 1846" d="M153.535,98.126l1.214-1.6,3.192,1.322-.271,1.984,2.007,2.007,1.984-.271,1.322,3.192-1.593,1.213v2.844l1.6,1.211-1.322,3.192-1.984-.271-2.007,2.007.271,1.984-3.2,1.332-1.214-1.593h-2.844l-1.211,1.6-3.192-1.322.264-1.987-2.007-2.007-1.984.271-1.322-3.192,1.6-1.211v-2.854l-1.6-1.211,1.322-3.192,1.984.274,2.007-2.007-.271-1.984,3.192-1.322,1.211,1.6Z" transform="translate(-141.035 -96.325)" fill="#fff"/>
      <path id="Path_1847" data-name="Path 1847" d="M146.384,126.71l.759.1a10.13,10.13,0,0,0-1.313,1.236C145.957,127.74,146.109,127.366,146.384,126.71Z" transform="translate(-144.857 -121.457)" fill="url(#linear-gradient-24)"/>
      <path id="Path_1848" data-name="Path 1848" d="M234.3,214.09l.1.759-1.338.55A10.328,10.328,0,0,0,234.3,214.09Z" transform="translate(-217.496 -194.22)" fill="url(#linear-gradient-25)"/>
      <path id="Path_1849" data-name="Path 1849" d="M186.465,108.762l1.592,1.211-1.322,3.19-1.984-.271-.184.184a10.22,10.22,0,0,0,.554-3.346A10.336,10.336,0,0,0,174.784,99.4a10.2,10.2,0,0,0-3.347.554c.062-.057.119-.119.184-.184l-.271-1.984c1.7-.706,1.494-.621,3.2-1.322l1.211,1.593H178.6l1.223-1.579c1.7.7,1.506.616,3.2,1.322l-.271,1.984,2.007,2.007,1.984-.271,1.322,3.19-1.594,1.213Z" transform="translate(-166.108 -96.267)" opacity="0.5" fill="url(#linear-gradient-26)"/>
      <path id="Path_1850" data-name="Path 1850" d="M153.73,117.461a.206.206,0,0,1-.167-.08l-1.149-1.514h-2.641l-1.149,1.514a.206.206,0,0,1-.243.065l-3.192-1.322a.2.2,0,0,1-.125-.217l.258-1.884-1.867-1.874-1.884.258a.206.206,0,0,1-.217-.125l-1.322-3.192a.206.206,0,0,1,.065-.243l1.514-1.149v-2.636l-1.514-1.149a.206.206,0,0,1-.065-.243l1.322-3.192a.206.206,0,0,1,.217-.125l1.884.254,1.867-1.867-.256-1.88a.2.2,0,0,1,.125-.217l3.187-1.322a.206.206,0,0,1,.243.065l1.149,1.514h2.641l1.153-1.514a.206.206,0,0,1,.243-.065L157,96.643a.2.2,0,0,1,.125.217l-.258,1.884,1.867,1.863,1.884-.258a.207.207,0,0,1,.217.125l1.322,3.192a.206.206,0,0,1-.065.243l-1.514,1.149V107.7l1.514,1.149a.206.206,0,0,1,.065.243l-1.322,3.192a.207.207,0,0,1-.217.125l-1.884-.259-1.867,1.867.258,1.884a.2.2,0,0,1-.125.217l-3.192,1.322A.207.207,0,0,1,153.73,117.461Zm-4.057-2.007h2.844a.206.206,0,0,1,.167.08L153.8,117l2.9-1.2-.249-1.828a.206.206,0,0,1,.059-.167l2.007-2.007a.207.207,0,0,1,.167-.059l1.832.243,1.2-2.9-1.462-1.116a.206.206,0,0,1-.08-.167v-2.844a.206.206,0,0,1,.08-.167l1.469-1.116-1.208-2.9-1.828.249a.207.207,0,0,1-.167-.059l-2.007-2.007a.206.206,0,0,1-.059-.167l.249-1.828L153.8,95.756l-1.116,1.469a.206.206,0,0,1-.167.08h-2.844a.206.206,0,0,1-.167-.08l-1.109-1.469-2.9,1.2.249,1.828a.206.206,0,0,1-.059.167l-2.007,2.007a.207.207,0,0,1-.167.059l-1.837-.244-1.2,2.9,1.469,1.116a.206.206,0,0,1,.08.167V107.8a.206.206,0,0,1-.08.167l-1.469,1.116,1.2,2.9,1.828-.249a.207.207,0,0,1,.167.059l2.007,2.007a.206.206,0,0,1,.059.167l-.249,1.828L148.392,117l1.116-1.469a.206.206,0,0,1,.164-.077Z" transform="translate(-140.016 -95.306)" fill="url(#linear-gradient-27)"/>
      <g id="Group_4579" data-name="Group 4579" transform="translate(3.468 3.465)">
        <circle id="Ellipse_167" data-name="Ellipse 167" cx="7.405" cy="7.405" r="7.405" transform="translate(0.204 0.207)" fill="#fff"/>
        <path id="Path_1851" data-name="Path 1851" d="M168.36,131.239a7.61,7.61,0,1,1,7.61-7.61A7.61,7.61,0,0,1,168.36,131.239Zm0-14.809a7.193,7.193,0,1,0,7.193,7.193,7.193,7.193,0,0,0-7.193-7.193Z" transform="translate(-160.75 -116.02)" fill="url(#linear-gradient-28)"/>
      </g>
      <path id="Path_1852" data-name="Path 1852" d="M205.216,117.842a.206.206,0,0,1-.206-.206v-1.308a.206.206,0,0,1,.41,0v1.308A.206.206,0,0,1,205.216,117.842Z" transform="translate(-194.138 -112.656)" fill="url(#linear-gradient-29)"/>
      <path id="Path_1853" data-name="Path 1853" d="M183.739,123.576a.2.2,0,0,1-.177-.1l-.659-1.134a.206.206,0,0,1,.355-.206l.654,1.132a.206.206,0,0,1-.177.308Z" transform="translate(-175.712 -117.573)" fill="url(#linear-gradient-30)"/>
      <path id="Path_1854" data-name="Path 1854" d="M168.1,139.269a.2.2,0,0,1-.1-.028l-1.132-.654a.206.206,0,0,1,.206-.355l1.132.654a.206.206,0,0,1-.1.383Z" transform="translate(-162.3 -131.035)" fill="url(#linear-gradient-31)"/>
      <path id="Path_1855" data-name="Path 1855" d="M162.371,160.71h-1.3a.206.206,0,0,1,0-.41h1.308a.206.206,0,0,1,0,.41Z" transform="translate(-157.391 -149.428)" fill="url(#linear-gradient-32)"/>
      <path id="Path_1856" data-name="Path 1856" d="M223.442,123.584a.206.206,0,0,1-.177-.308l.654-1.132a.206.206,0,0,1,.355.206l-.654,1.132a.2.2,0,0,1-.177.1Z" transform="translate(-209.317 -117.581)" fill="url(#linear-gradient-33)"/>
      <path id="Path_1857" data-name="Path 1857" d="M236.787,139.269a.206.206,0,0,1-.1-.383l1.133-.654a.206.206,0,0,1,.206.355l-1.133.654A.2.2,0,0,1,236.787,139.269Z" transform="translate(-220.43 -131.035)" fill="url(#linear-gradient-34)"/>
      <path id="Path_1858" data-name="Path 1858" d="M243.056,160.706h-1.308a.206.206,0,0,1,0-.41h1.308a.206.206,0,1,1,0,.41Z" transform="translate(-224.574 -149.424)" fill="url(#linear-gradient-35)"/>
      <rect id="Rectangle_632" data-name="Rectangle 632" width="6.403" height="0.867" rx="0.433" transform="translate(7.876 14.539)" fill="url(#linear-gradient-36)"/>
      <path id="Path_1859" data-name="Path 1859" d="M205.036,143.523a.2.2,0,0,1-.146-.06l-.59-.59a.206.206,0,0,1,0-.291l2.894-2.889a.623.623,0,1,1,.882.882l-2.891,2.891A.2.2,0,0,1,205.036,143.523Zm-.3-.8.3.3,2.747-2.747a.213.213,0,1,0-.3-.3Z" transform="translate(-193.496 -132.115)" fill="url(#linear-gradient-37)"/>
      <g id="Group_4580" data-name="Group 4580" transform="translate(9.87 9.87)">
        <circle id="Ellipse_168" data-name="Ellipse 168" cx="1.002" cy="1.002" r="1.002" transform="translate(0.206 0.206)" fill="#fff"/>
        <path id="Path_1860" data-name="Path 1860" d="M200.228,156.726a1.208,1.208,0,1,1,1.208-1.208A1.208,1.208,0,0,1,200.228,156.726Zm0-2.007a.8.8,0,1,0,.8.8.8.8,0,0,0-.8-.8Z" transform="translate(-199.02 -154.31)" fill="url(#linear-gradient-38)"/>
      </g>
      <path id="Path_1861" data-name="Path 1861" d="M176.506,136.8a.206.206,0,0,1-.206-.206,5.018,5.018,0,0,1,5.007-5.007.206.206,0,1,1,0,.41,4.6,4.6,0,0,0-4.6,4.6A.206.206,0,0,1,176.506,136.8Z" transform="translate(-170.23 -125.516)" fill="url(#linear-gradient-39)"/>
    </g>
  </g>
</svg>
