<svg xmlns="http://www.w3.org/2000/svg" xmlns:xlink="http://www.w3.org/1999/xlink" width="45.576" height="45.368" viewBox="0 0 45.576 45.368">
  <defs>
    <linearGradient id="linear-gradient" x1="-0.041" y1="-0.114" x2="1.006" y2="1.095" gradientUnits="objectBoundingBox">
      <stop offset="0" stop-color="#9237b3"/>
      <stop offset="1" stop-color="#2fa1cb"/>
    </linearGradient>
    <linearGradient id="linear-gradient-2" x1="-1.965" y1="-2.685" x2="0.997" y2="1.106" xlink:href="#linear-gradient"/>
    <linearGradient id="linear-gradient-3" x1="-8" y1="-8" x2="14.669" y2="14.669" xlink:href="#linear-gradient"/>
    <linearGradient id="linear-gradient-4" x1="-0.929" y1="-0.929" x2="21.74" y2="21.74" xlink:href="#linear-gradient"/>
    <linearGradient id="linear-gradient-5" x1="-19.59" y1="-19.59" x2="3.079" y2="3.079" xlink:href="#linear-gradient"/>
    <linearGradient id="linear-gradient-6" x1="-8.176" y1="-8.178" x2="21.326" y2="21.326" xlink:href="#linear-gradient"/>
    <linearGradient id="linear-gradient-7" x1="-22.637" y1="-22.637" x2="6.866" y2="6.866" xlink:href="#linear-gradient"/>
    <linearGradient id="linear-gradient-8" x1="-17.249" y1="-17.248" x2="12.255" y2="12.256" xlink:href="#linear-gradient"/>
    <linearGradient id="linear-gradient-9" x1="-5.383" y1="-5.382" x2="8.555" y2="8.555" xlink:href="#linear-gradient"/>
    <linearGradient id="linear-gradient-10" x1="-3.015" y1="-3.017" x2="10.922" y2="10.921" xlink:href="#linear-gradient"/>
    <linearGradient id="linear-gradient-11" x1="-9.729" y1="-9.727" x2="2.485" y2="2.484" xlink:href="#linear-gradient"/>
    <linearGradient id="linear-gradient-12" x1="-8.019" y1="-8.029" x2="4.172" y2="4.176" xlink:href="#linear-gradient"/>
    <linearGradient id="linear-gradient-13" x1="-0.267" y1="-3.585" x2="0.966" y2="2.767" xlink:href="#linear-gradient"/>
    <linearGradient id="linear-gradient-14" x1="-0.122" y1="-0.283" x2="1.095" y2="1.249" xlink:href="#linear-gradient"/>
    <linearGradient id="linear-gradient-15" x1="0.018" y1="-38.319" x2="1.235" y2="59.546" xlink:href="#linear-gradient"/>
    <linearGradient id="linear-gradient-16" x1="-5.823" y1="-5.822" x2="24.652" y2="24.653" xlink:href="#linear-gradient"/>
    <linearGradient id="linear-gradient-17" x1="-5.006" y1="-5.006" x2="18.278" y2="18.278" xlink:href="#linear-gradient"/>
    <linearGradient id="linear-gradient-18" x1="-5.679" y1="-5.68" x2="17.604" y2="17.603" xlink:href="#linear-gradient"/>
    <linearGradient id="linear-gradient-19" x1="-0.926" y1="-3.97" x2="1.88" y2="4.826" xlink:href="#linear-gradient"/>
    <linearGradient id="linear-gradient-20" x1="-3.039" y1="-4.477" x2="2.702" y2="3.597" xlink:href="#linear-gradient"/>
    <linearGradient id="linear-gradient-21" x1="-3.665" y1="-5.357" x2="2.076" y2="2.717" xlink:href="#linear-gradient"/>
    <linearGradient id="linear-gradient-22" x1="-2.413" y1="-3.596" x2="3.329" y2="4.477" xlink:href="#linear-gradient"/>
    <linearGradient id="linear-gradient-23" x1="-54.526" y1="-4.456" x2="43.339" y2="4.362" xlink:href="#linear-gradient"/>
    <linearGradient id="linear-gradient-24" x1="-0.795" y1="-8.726" x2="1.445" y2="7.386" xlink:href="#linear-gradient"/>
    <linearGradient id="linear-gradient-25" x1="-3.904" y1="-48.473" x2="4.934" y2="49.792" xlink:href="#linear-gradient"/>
    <linearGradient id="linear-gradient-26" x1="-5.862" y1="-49.457" x2="6.652" y2="48.808" xlink:href="#linear-gradient"/>
    <linearGradient id="linear-gradient-27" x1="-4.868" y1="-59.187" x2="3.971" y2="39.077" xlink:href="#linear-gradient"/>
    <linearGradient id="linear-gradient-28" x1="-7.227" y1="-60.171" x2="5.287" y2="38.094" xlink:href="#linear-gradient"/>
    <linearGradient id="linear-gradient-29" x1="-5.784" y1="-69.614" x2="2.983" y2="28.249" xlink:href="#linear-gradient"/>
    <linearGradient id="linear-gradient-30" x1="-8.591" y1="-70.885" x2="3.923" y2="27.379" xlink:href="#linear-gradient"/>
    <linearGradient id="linear-gradient-31" x1="-1.096" y1="-13.622" x2="2.601" y2="19.088" xlink:href="#linear-gradient"/>
    <linearGradient id="linear-gradient-32" x1="-4.061" y1="-50.619" x2="4.678" y2="47.245" xlink:href="#linear-gradient"/>
    <linearGradient id="linear-gradient-33" x1="-1.125" y1="-39.782" x2="2.824" y2="58.082" xlink:href="#linear-gradient"/>
  </defs>
  <g id="hizli-kayit-ol" transform="translate(0 0.002)">
    <g id="Group_4547" data-name="Group 4547" transform="translate(2.628 5.698)">
      <g id="Group_4545" data-name="Group 4545" opacity="0.2">
        <path id="Path_1757" data-name="Path 1757" d="M32.269,64.592c-8.044,6.993-16.559-.249-16.559-9.432,0-14.975,16.606-24.269,30.208-20.072,3.867,1.2,7.51,4.3,8.153,8.46.716,4.647-2.82,8.211-6.4,10.566C44.266,56.358,34.058,63.037,32.269,64.592Z" transform="translate(-15.71 -34.077)" fill="url(#linear-gradient)"/>
      </g>
      <g id="Group_4546" data-name="Group 4546" transform="translate(26.716 23.137)" opacity="0.2">
        <path id="Path_1758" data-name="Path 1758" d="M183.6,182.665c-2.355.657-5.8.557-7.527-1.465-2.007-2.355,1.191-4.565,3.22-6,2.435-1.721,7.791-4.8,9.429-.93,1.032,2.442-.7,5.552-2.551,7.1A6.928,6.928,0,0,1,183.6,182.665Z" transform="translate(-175.432 -172.404)" fill="url(#linear-gradient-2)"/>
      </g>
    </g>
    <g id="Group_4548" data-name="Group 4548" transform="translate(0 31.374)">
      <circle id="Ellipse_151" data-name="Ellipse 151" cx="0.682" cy="0.682" r="0.682" transform="translate(0.206 0.206)" fill="#fff"/>
      <path id="Path_1759" data-name="Path 1759" d="M.888,189.356a.888.888,0,1,1,.888-.888A.888.888,0,0,1,.888,189.356Zm0-1.367a.2.2,0,1,0,0-.005Z" transform="translate(0 -187.58)" fill="url(#linear-gradient-3)"/>
    </g>
    <g id="Group_4549" data-name="Group 4549" transform="translate(4.255 1.999)">
      <circle id="Ellipse_152" data-name="Ellipse 152" cx="0.682" cy="0.682" r="0.682" transform="translate(0.206 0.206)" fill="#fff"/>
      <path id="Path_1760" data-name="Path 1760" d="M26.328,13.736a.888.888,0,1,1,.888-.888A.888.888,0,0,1,26.328,13.736Zm0-1.367a.478.478,0,1,0,.478.478.478.478,0,0,0-.478-.478Z" transform="translate(-25.44 -11.96)" fill="url(#linear-gradient-4)"/>
    </g>
    <g id="Group_4550" data-name="Group 4550" transform="translate(33.982 38.57)">
      <circle id="Ellipse_153" data-name="Ellipse 153" cx="0.682" cy="0.682" r="0.682" transform="translate(0.206 0.206)" fill="#fff"/>
      <path id="Path_1761" data-name="Path 1761" d="M204.048,232.376a.888.888,0,1,1,.888-.888A.888.888,0,0,1,204.048,232.376Zm0-1.367a.478.478,0,1,0,.478.478.478.478,0,0,0-.478-.478Z" transform="translate(-203.16 -230.6)" fill="url(#linear-gradient-5)"/>
    </g>
    <circle id="Ellipse_154" data-name="Ellipse 154" cx="0.682" cy="0.682" r="0.682" transform="translate(21.85 3.424)" fill="url(#linear-gradient-6)"/>
    <circle id="Ellipse_155" data-name="Ellipse 155" cx="0.682" cy="0.682" r="0.682" transform="translate(41.797 22.949)" fill="url(#linear-gradient-7)"/>
    <circle id="Ellipse_156" data-name="Ellipse 156" cx="0.682" cy="0.682" r="0.682" transform="translate(9.456 40.581)" fill="url(#linear-gradient-8)"/>
    <path id="Path_1762" data-name="Path 1762" d="M205.661.952l.724.306a.2.2,0,0,1,0,.37l-.724.306a.2.2,0,0,0-.107.107l-.306.724a.2.2,0,0,1-.37,0l-.306-.724a.2.2,0,0,0-.107-.107l-.724-.306a.2.2,0,0,1,0-.37l.724-.306a.2.2,0,0,0,.107-.107l.306-.724a.2.2,0,0,1,.37,0l.306.724a.2.2,0,0,0,.107.107Z" transform="translate(-169.559 0)" fill="url(#linear-gradient-9)"/>
    <path id="Path_1763" data-name="Path 1763" d="M11.431,113.407l.724.313a.2.2,0,0,1,0,.37l-.724.3a.2.2,0,0,0-.107.107l-.306.729a.2.2,0,0,1-.37,0l-.306-.724a.2.2,0,0,0-.107-.107l-.724-.306a.2.2,0,0,1,0-.37l.724-.306a.2.2,0,0,0,.107-.107l.306-.724a.2.2,0,0,1,.37,0l.313.719A.2.2,0,0,0,11.431,113.407Z" transform="translate(-7.818 -93.649)" fill="url(#linear-gradient-10)"/>
    <g id="Group_4551" data-name="Group 4551" transform="translate(25.041 42.068)">
      <path id="Path_1764" data-name="Path 1764" d="M152.971,253.692l.724.306a.2.2,0,0,1,0,.37l-.724.306a.2.2,0,0,0-.107.107l-.306.724a.2.2,0,0,1-.37,0l-.306-.724a.2.2,0,0,0-.107-.107l-.724-.306a.2.2,0,0,1,0-.37l.724-.306a.2.2,0,0,0,.107-.107l.306-.724a.2.2,0,0,1,.37,0l.306.724A.2.2,0,0,0,152.971,253.692Z" transform="translate(-150.723 -252.533)" fill="#fff"/>
      <path id="Path_1765" data-name="Path 1765" d="M151.354,254.812a.4.4,0,0,1-.375-.248l-.306-.724-.723-.3a.406.406,0,0,1,0-.748l.724-.306.3-.723a.406.406,0,0,1,.748,0l.306.723.723.306a.406.406,0,0,1,0,.748l-.724.306-.3.723A.4.4,0,0,1,151.354,254.812Zm0-2.892-.3.724a.407.407,0,0,1-.216.216l-.724.306.724.3a.4.4,0,0,1,.216.216l.306.726.3-.724a.4.4,0,0,1,.216-.216l.724-.306-.724-.3a.4.4,0,0,1-.216-.217Z" transform="translate(-149.704 -251.514)" fill="url(#linear-gradient-11)"/>
    </g>
    <g id="Group_4552" data-name="Group 4552" transform="translate(42.273 13.66)">
      <path id="Path_1766" data-name="Path 1766" d="M256,83.862l.724.306a.2.2,0,0,1,0,.37l-.724.306a.2.2,0,0,0-.107.107l-.306.724a.2.2,0,0,1-.37,0l-.306-.724a.2.2,0,0,0-.107-.107l-.724-.306a.2.2,0,0,1,0-.37l.721-.306a.2.2,0,0,0,.107-.107l.306-.724a.2.2,0,0,1,.37,0l.309.729A.2.2,0,0,0,256,83.862Z" transform="translate(-253.752 -82.702)" fill="#fff"/>
      <path id="Path_1767" data-name="Path 1767" d="M254.379,84.973a.4.4,0,0,1-.373-.248L253.7,84l-.723-.3a.4.4,0,0,1,0-.748l.724-.306.3-.723a.406.406,0,0,1,.748,0l.3.723.728.308a.406.406,0,0,1,0,.748L255.06,84l-.3.723A.406.406,0,0,1,254.379,84.973Zm0-2.892-.3.724a.4.4,0,0,1-.216.216l-.724.306.724.3a.4.4,0,0,1,.216.216l.3.731.3-.724a.4.4,0,0,1,.216-.216l.721-.313-.724-.3a.4.4,0,0,1-.216-.216Z" transform="translate(-252.728 -81.674)" fill="url(#linear-gradient-12)"/>
    </g>
    <rect id="Rectangle_622" data-name="Rectangle 622" width="32.662" height="25.868" rx="12.934" transform="translate(6.455 8.4)" fill="#fff"/>
    <path id="Path_1768" data-name="Path 1768" d="M71.262,167v3.416a2.924,2.924,0,0,1-2.924,2.924H41.524a2.922,2.922,0,0,1-2.924-2.925V167a2.922,2.922,0,0,0,2.924,2.924H68.338A2.924,2.924,0,0,0,71.262,167Z" transform="translate(-32.143 -139.068)" opacity="0.5" fill="url(#linear-gradient-13)"/>
    <path id="Path_1769" data-name="Path 1769" d="M67.314,75.279H40.5a3.131,3.131,0,0,1-3.128-3.128V52.13A3.133,3.133,0,0,1,40.5,49H67.314a3.133,3.133,0,0,1,3.128,3.128V72.15a3.131,3.131,0,0,1-3.128,3.13ZM40.5,49.411A2.721,2.721,0,0,0,37.78,52.13V72.151A2.721,2.721,0,0,0,40.5,74.87H67.314a2.721,2.721,0,0,0,2.718-2.718V52.13a2.721,2.721,0,0,0-2.718-2.718Z" transform="translate(-31.119 -40.806)" fill="url(#linear-gradient-14)"/>
    <path id="Path_1770" data-name="Path 1770" d="M70.146,71.6H37.483a.206.206,0,1,1,0-.41H70.146a.206.206,0,0,1,0,.41Z" transform="translate(-31.027 -59.28)" fill="url(#linear-gradient-15)"/>
    <circle id="Ellipse_157" data-name="Ellipse 157" cx="0.661" cy="0.661" r="0.661" transform="translate(8.745 9.594)" fill="url(#linear-gradient-16)"/>
    <path id="Path_1771" data-name="Path 1771" d="M65.873,57.89a.865.865,0,1,1,.866-.866A.865.865,0,0,1,65.873,57.89Zm0-1.32a.452.452,0,1,0,.322.132.455.455,0,0,0-.322-.132Z" transform="translate(-54.136 -46.768)" fill="url(#linear-gradient-17)"/>
    <path id="Path_1772" data-name="Path 1772" d="M79.815,57.89a.865.865,0,1,1,.865-.866A.865.865,0,0,1,79.815,57.89Zm0-1.32a.452.452,0,1,0,.322.132.455.455,0,0,0-.322-.132Z" transform="translate(-65.744 -46.768)" fill="url(#linear-gradient-18)"/>
    <g id="Group_4556" data-name="Group 4556" transform="translate(10.498 18.804)">
      <rect id="Rectangle_623" data-name="Rectangle 623" width="14.35" height="4.578" rx="2.289" transform="translate(5.113)" fill="url(#linear-gradient-19)"/>
      <g id="Group_4553" data-name="Group 4553" transform="translate(8.783 8.511)">
        <rect id="Rectangle_624" data-name="Rectangle 624" width="6.604" height="4.578" rx="2.289" transform="translate(0.204 0.206)" fill="#fff"/>
        <path id="Path_1773" data-name="Path 1773" d="M120.965,168.3h-4.379a1.318,1.318,0,0,1-1.316-1.316v-2.355a1.318,1.318,0,0,1,1.316-1.316h4.381a1.318,1.318,0,0,1,1.316,1.316v2.355A1.318,1.318,0,0,1,120.965,168.3Zm-4.381-4.578a.907.907,0,0,0-.907.907v2.355a.907.907,0,0,0,.907.907h4.381a.907.907,0,0,0,.907-.907v-2.355a.907.907,0,0,0-.907-.907Z" transform="translate(-115.27 -163.31)" fill="url(#linear-gradient-20)"/>
      </g>
      <g id="Group_4554" data-name="Group 4554" transform="translate(17.565 8.511)">
        <rect id="Rectangle_625" data-name="Rectangle 625" width="6.604" height="4.578" rx="2.289" transform="translate(0.204 0.206)" fill="#fff"/>
        <path id="Path_1774" data-name="Path 1774" d="M173.465,168.3h-4.379a1.318,1.318,0,0,1-1.316-1.316v-2.355a1.318,1.318,0,0,1,1.316-1.316h4.381a1.318,1.318,0,0,1,1.316,1.316v2.355A1.318,1.318,0,0,1,173.465,168.3Zm-4.381-4.578a.907.907,0,0,0-.907.907v2.355a.907.907,0,0,0,.907.907h4.381a.907.907,0,0,0,.907-.907v-2.355a.907.907,0,0,0-.907-.907Z" transform="translate(-167.77 -163.31)" fill="url(#linear-gradient-21)"/>
      </g>
      <g id="Group_4555" data-name="Group 4555" transform="translate(0 8.511)">
        <rect id="Rectangle_626" data-name="Rectangle 626" width="6.604" height="4.578" rx="2.289" transform="translate(6.808 4.782) rotate(180)" fill="#fff"/>
        <path id="Path_1775" data-name="Path 1775" d="M68.457,168.3H64.076a1.318,1.318,0,0,1-1.316-1.316v-2.355a1.318,1.318,0,0,1,1.316-1.316h4.381a1.318,1.318,0,0,1,1.316,1.316v2.355A1.318,1.318,0,0,1,68.457,168.3Zm-4.381-4.578a.907.907,0,0,0-.907.907v2.355a.907.907,0,0,0,.907.907h4.381a.907.907,0,0,0,.907-.907v-2.355a.907.907,0,0,0-.907-.907Z" transform="translate(-62.76 -163.31)" fill="url(#linear-gradient-22)"/>
      </g>
      <path id="Path_1776" data-name="Path 1776" d="M135.2,143.026a.206.206,0,0,1-.206-.206v-4.137a.206.206,0,1,1,.41,0v4.138A.206.206,0,0,1,135.2,143.026Z" transform="translate(-122.912 -134.105)" fill="url(#linear-gradient-23)"/>
      <path id="Path_1777" data-name="Path 1777" d="M100.306,153.419a.206.206,0,0,1-.206-.206V151.9a.555.555,0,0,0-.554-.554H83.5a.555.555,0,0,0-.547.555v1.31a.206.206,0,1,1-.41,0v-1.31a.965.965,0,0,1,.965-.965H99.555a.965.965,0,0,1,.965.965v1.31a.206.206,0,0,1-.214.2Z" transform="translate(-79.236 -144.499)" fill="url(#linear-gradient-24)"/>
      <path id="Path_1778" data-name="Path 1778" d="M74.46,173.08H70.278a.206.206,0,0,1,0-.41H74.46a.206.206,0,0,1,0,.41Z" transform="translate(-68.865 -162.594)" fill="url(#linear-gradient-25)"/>
      <path id="Path_1779" data-name="Path 1779" d="M73.172,181.87H70.328a.206.206,0,0,1,0-.41h2.844a.206.206,0,0,1,0,.41Z" transform="translate(-68.906 -169.914)" fill="url(#linear-gradient-26)"/>
      <path id="Path_1780" data-name="Path 1780" d="M126.96,173.08h-4.182a.206.206,0,0,1,0-.41h4.182a.206.206,0,0,1,0,.41Z" transform="translate(-112.583 -162.594)" fill="url(#linear-gradient-27)"/>
      <path id="Path_1781" data-name="Path 1781" d="M125.682,181.87h-2.844a.206.206,0,0,1,0-.41h2.844a.206.206,0,0,1,0,.41Z" transform="translate(-112.633 -169.914)" fill="url(#linear-gradient-28)"/>
      <path id="Path_1782" data-name="Path 1782" d="M179.46,173.076h-4.182a.206.206,0,0,1,0-.41h4.182a.206.206,0,1,1,0,.41Z" transform="translate(-156.302 -162.59)" fill="url(#linear-gradient-29)"/>
      <path id="Path_1783" data-name="Path 1783" d="M178.182,181.87h-2.844a.206.206,0,0,1,0-.41h2.844a.206.206,0,0,1,0,.41Z" transform="translate(-156.352 -169.914)" fill="url(#linear-gradient-30)"/>
    </g>
    <g id="Group_4557" data-name="Group 4557" transform="translate(14.614 14.323)">
      <path id="Path_1784" data-name="Path 1784" d="M113.947,86.871h-9.661a.616.616,0,1,1,0-1.231h9.66a.616.616,0,0,1,0,1.231Zm-9.661-.82a.206.206,0,0,0,0,.41h9.66a.206.206,0,0,0,0-.41Z" transform="translate(-100.943 -85.64)" fill="url(#linear-gradient-31)"/>
      <path id="Path_1785" data-name="Path 1785" d="M161.749,97.146h-4.2a.206.206,0,1,1,0-.41h4.2a.206.206,0,0,1,0,.41Z" transform="translate(-145.627 -94.879)" fill="url(#linear-gradient-32)"/>
      <path id="Path_1786" data-name="Path 1786" d="M97.343,97.146h-9.75a.206.206,0,1,1,0-.41h9.75a.206.206,0,1,1,0,.41Z" transform="translate(-87.369 -94.879)" fill="url(#linear-gradient-33)"/>
    </g>
  </g>
</svg>
