<svg xmlns="http://www.w3.org/2000/svg" width="68.762" height="69" viewBox="0 0 68.762 69">
  <g id="loan" transform="translate(-16 -13.359)">
    <path id="Path_302" data-name="Path 302" d="M224.532,103.621,192.738,92.139A2.764,2.764,0,0,0,189.2,93.8l-5.476,15.1a2.764,2.764,0,0,0,1.66,3.543l31.795,11.481a2.766,2.766,0,0,0,3.537-1.658l5.475-15.1a2.764,2.764,0,0,0-1.658-3.543Z" transform="translate(-143.435 -67.298)" fill="#5fcda4"/>
    <path id="Path_303" data-name="Path 303" d="M248.677,134.977h0c-2.967-1.008-2.656-2.8-1.952-5.059.032-.1-.049-.207-.181-.257l-23.2-8.623a.246.246,0,0,0-.314.09c-.89,2.033-1.838,3.53-4.39,2.809l-2.41,4.451,0,.009-.528,1.432c-.033.088.035.253.151.253h0c2.887,1.008,2.5,3.167,1.83,5.365a.18.18,0,0,0,.086.232l23.406,8.7a.187.187,0,0,0,.22-.126c.931-2.1,2.021-3.947,4.909-2.873h0a.2.2,0,0,0,.271-.082l2.25-6.06c.033-.088-.035-.123-.151-.266Z" transform="translate(-170.943 -92.156)" fill="#4ca987"/>
    <path id="Path_304" data-name="Path 304" d="M301.6,167.548a5.149,5.149,0,1,1-3.95.188,5.178,5.178,0,0,1,3.95-.188Z" transform="translate(-238.569 -131.729)" fill="#5fcda4"/>
    <path id="Path_305" data-name="Path 305" d="M152.634,328.8,141.307,335a5.968,5.968,0,0,0-5.861-5.083h-7.983a9.346,9.346,0,0,1-4.134-.964l-.821-.4a13.1,13.1,0,0,0-13.772,1.368l-1.988,1.8a7.879,7.879,0,0,1-3.8,1.895l-.036.012,4.572,15.129,6.5-4.179a4.391,4.391,0,0,1,3.265-.441l12,2.247a14.311,14.311,0,0,0,9.038-1.3l20.757-14.5A4.765,4.765,0,0,0,152.634,328.8Z" transform="translate(-74.398 -268.658)" fill="#ffd8b7"/>
    <path id="Path_306" data-name="Path 306" d="M185.55,115.88l-.919,2.532-2.278-.75a4.645,4.645,0,0,1-2.374-1.777A16.321,16.321,0,0,0,185.55,115.88Z" transform="translate(-140.373 -87.762)" fill="#efc597"/>
    <path id="Path_307" data-name="Path 307" d="M163.093,162.169l-.661,1.821-4.424,1.946a.832.832,0,0,1-1.1-.633,2.947,2.947,0,0,1,1.195-2.934l1.4-.989a13.915,13.915,0,0,1,2.362.443Z" transform="translate(-120.578 -126.711)" fill="#efc597"/>
    <path id="Path_308" data-name="Path 308" d="M220.173,131.521h0c-.117,0-.184-.165-.151-.253l.528-1.432,0-.009,2.41-4.451c2.551.721,3.5-.776,4.39-2.809a.158.158,0,0,1,.02-.033l-4.025-1.5a.246.246,0,0,0-.314.09c-.89,2.033-1.838,3.53-4.39,2.809l-2.41,4.451,0,.009-.528,1.432c-.033.088.035.253.151.253h0c2.887,1.008,2.5,3.167,1.83,5.365a.179.179,0,0,0,.086.232l4.089,1.521c.075-.157.133-.281.143-.313.672-2.2,1.057-4.357-1.83-5.365Z" transform="translate(-170.943 -92.156)" fill="#418469"/>
    <path id="Path_309" data-name="Path 309" d="M82.055,59.387l-3.172-1.044-5.168-1.7a4.645,4.645,0,0,1-2.374-1.777,16.321,16.321,0,0,0,5.57-.006l.587-1.618a2.764,2.764,0,0,1,3.537-1.658l1.068.386-6.172-6.333a2.981,2.981,0,0,0-3.127-.91A44.666,44.666,0,0,1,56.591,46.47h0l-3.52,9.79,7.7,3.468a13.87,13.87,0,0,0,5.884,1.52l3.069.1q.464.015.927.062a13.915,13.915,0,0,1,2.362.443l1.237.346,6.283,1.756a2.408,2.408,0,1,0,1.523-4.568Z" transform="translate(-31.733 -26.74)" fill="#ffd8b7"/>
    <path id="Path_310" data-name="Path 310" d="M18.056,32.9,16,46.4l4.664,1.718L25.48,34.727Z" transform="translate(0 -16.728)" fill="#4689d3"/>
    <path id="Path_311" data-name="Path 311" d="M18.056,32.9,16,46.4l4.225,1.556,2.192-13.979Z" transform="translate(0 -16.728)" fill="#3c70a0"/>
    <g id="_Group_" data-name=" Group " transform="translate(27.684 57.956)">
      <g id="_Path_" data-name=" Path ">
        <path id="Path_312" data-name="Path 312" d="M136.458,333.627h-.04l-6.81-.314a32.331,32.331,0,0,0-5.974.281.864.864,0,1,1-.241-1.711,33.971,33.971,0,0,1,6.294-.3l5.828.268a5.11,5.11,0,0,0-4.994-4.267h-7.983a10.279,10.279,0,0,1-4.513-1.052l-.823-.405a12.187,12.187,0,0,0-12.837,1.258l-1.961,1.776a8.8,8.8,0,0,1-4.223,2.1.864.864,0,1,1-.319-1.7,7.051,7.051,0,0,0,3.382-1.687l1.988-1.8c.018-.016.036-.031.055-.046a13.9,13.9,0,0,1,14.678-1.458l.823.4a8.541,8.541,0,0,0,3.75.875h7.983a6.859,6.859,0,0,1,6.8,6.9.864.864,0,0,1-.864.864Z" transform="translate(-97.158 -323.136)" fill="#d8b79e"/>
      </g>
    </g>
    <g id="Group_3309" data-name="Group 3309" transform="translate(61.405 13.359)">
      <path id="Path_313" data-name="Path 313" d="M332.255,84.009a.865.865,0,0,1-.812-1.159l.569-1.567a.864.864,0,0,1,1.624.589l-.569,1.567A.864.864,0,0,1,332.255,84.009Z" transform="translate(-331.391 -71.017)" fill="#80aaff"/>
      <path id="Path_314" data-name="Path 314" d="M342.1,29.856a.864.864,0,0,1-.812-1.159l2.215-6.108a.864.864,0,0,1,1.624.589l-2.216,6.108a.864.864,0,0,1-.812.57Z" transform="translate(-339.821 -20.773)" fill="#80aaff"/>
      <path id="Path_315" data-name="Path 315" d="M376.193,46.608a.864.864,0,0,1-.812-1.159l2.182-6.018a.864.864,0,0,1,1.624.589l-2.182,6.018a.864.864,0,0,1-.812.57Z" transform="translate(-369.004 -35.191)" fill="#80aaff"/>
      <path id="Path_316" data-name="Path 316" d="M397.427,16.347a.864.864,0,0,1-.812-1.159l.457-1.26a.864.864,0,1,1,1.624.589l-.457,1.26A.864.864,0,0,1,397.427,16.347Z" transform="translate(-387.181 -13.359)" fill="#80aaff"/>
      <path id="Path_317" data-name="Path 317" d="M402.944,109.536a.864.864,0,0,1-.812-1.159l.568-1.567a.864.864,0,0,1,1.624.589l-.568,1.567A.864.864,0,0,1,402.944,109.536Z" transform="translate(-391.903 -92.869)" fill="#80aaff"/>
      <path id="Path_318" data-name="Path 318" d="M412.794,55.383a.865.865,0,0,1-.812-1.159l2.215-6.108a.864.864,0,1,1,1.624.59l-2.215,6.107a.864.864,0,0,1-.812.57Z" transform="translate(-400.335 -42.625)" fill="#80aaff"/>
    </g>
    <path id="Path_319" data-name="Path 319" d="M88.471,287.548h0l-.843,0a.864.864,0,1,1,0-1.728h0l.843,0a.864.864,0,1,1,0,1.728Z" transform="translate(-60.575 -233.234)" fill="#d4e1f4"/>
    <path id="Path_320" data-name="Path 320" d="M115.262,287.643h0l-5.9-.028a.864.864,0,0,1,0-1.728h0l5.9.028a.864.864,0,0,1,0,1.728Z" transform="translate(-79.181 -233.294)" fill="#d4e1f4"/>
    <path id="Path_321" data-name="Path 321" d="M127.131,259.02h0l-.843,0a.864.864,0,1,1,0-1.728h0l.843,0a.864.864,0,0,1,0,1.728Z" transform="translate(-93.669 -208.813)" fill="#d4e1f4"/>
    <path id="Path_322" data-name="Path 322" d="M82.7,258.8H82.7l-4.658-.028a.864.864,0,0,1,0-1.728h.005l4.658.028A.864.864,0,0,1,82.7,258.8Z" transform="translate(-52.371 -208.605)" fill="#d4e1f4"/>
    <path id="Path_323" data-name="Path 323" d="M364.811,395.747a.864.864,0,0,1-.5-1.57l1.882-1.327a.864.864,0,1,1,1,1.412l-1.882,1.327a.86.86,0,0,1-.5.158Zm3.765-2.655a.864.864,0,0,1-.5-1.569l1.883-1.328a.864.864,0,1,1,1,1.412l-1.882,1.328A.86.86,0,0,1,368.576,393.092Zm3.765-2.655a.864.864,0,0,1-.5-1.569l1.882-1.328a.864.864,0,1,1,1,1.412l-1.883,1.327A.86.86,0,0,1,372.341,390.437Zm3.765-2.655a.864.864,0,0,1-.5-1.569l1.883-1.328a.864.864,0,0,1,1,1.412l-1.883,1.328A.86.86,0,0,1,376.106,387.782Zm3.765-2.655a.864.864,0,0,1-.5-1.569l1.883-1.328a.864.864,0,0,1,1,1.412l-1.883,1.327A.859.859,0,0,1,379.871,385.127Z" transform="translate(-297.854 -315.631)" fill="#b0b5ca"/>
    <path id="Path_324" data-name="Path 324" d="M318.685,178.352a2.061,2.061,0,0,0-.581-.913.863.863,0,0,0-1.633-.526,2.084,2.084,0,0,0-1.645,2.952A2.053,2.053,0,0,0,316,180.932a.338.338,0,0,1,.192.176.356.356,0,0,1-.435.488.341.341,0,0,1-.209-.221.864.864,0,1,0-1.65.513,2.063,2.063,0,0,0,.533.869.864.864,0,0,0,1.6.581,2.086,2.086,0,0,0,1.722-2.962,2.054,2.054,0,0,0-1.169-1.068.338.338,0,0,1-.192-.176.356.356,0,0,1,.435-.488.341.341,0,0,1,.209.221.864.864,0,0,0,1.65-.513Z" transform="translate(-254.973 -139.57)" fill="#428e6f"/>
    <path id="Path_325" data-name="Path 325" d="M178.407,63.491a.864.864,0,0,1-.222-1.7c.29-.077.582-.158.869-.242a.864.864,0,1,1,.484,1.659c-.3.086-.6.173-.907.253A.861.861,0,0,1,178.407,63.491Z" transform="translate(-138.285 -41.223)" fill="#f4f8fc"/>
    <path id="Path_326" data-name="Path 326" d="M104.319,70.158a.864.864,0,0,1-.018-1.728,45.474,45.474,0,0,0,7.8-.835.864.864,0,0,1,.334,1.7,47.2,47.2,0,0,1-8.1.867Z" transform="translate(-74.857 -46.414)" fill="#f4f8fc"/>
    <path id="Path_327" data-name="Path 327" d="M56.568,369.52l-7.678.967.992,16.758,11.533-1.52Z" transform="translate(-28.155 -304.886)" fill="#e87187"/>
  </g>
</svg>
