<svg xmlns="http://www.w3.org/2000/svg" width="44.134" height="44.134" viewBox="0 0 44.134 44.134">
  <g id="native-advertising" transform="translate(-0.001 0)">
    <path id="Path_901" data-name="Path 901" d="M19.177,44.4h2.2a1.953,1.953,0,0,0,1.953-1.953V41.256a2.284,2.284,0,0,0-2.284-2.284H7.77a2.648,2.648,0,0,1-2.648-2.648V7.769A2.648,2.648,0,0,1,7.77,5.121H45.725a2.648,2.648,0,0,1,2.648,2.648V36.324a2.648,2.648,0,0,1-2.648,2.648H32.452a2.284,2.284,0,0,0-2.284,2.284v1.192A1.953,1.953,0,0,0,32.121,44.4h2.2a3.089,3.089,0,0,1,3.089,3.089v.883H16.088V47.49A3.089,3.089,0,0,1,19.177,44.4" transform="translate(-4.679 -4.679)" fill="#ecf4f7"/>
    <path id="Path_902" data-name="Path 902" d="M40.961,66.646v-23.7a1.988,1.988,0,0,1,1.988-1.988h33.1a1.988,1.988,0,0,1,1.988,1.988v23.7a1.988,1.988,0,0,1-1.988,1.988h-33.1A1.988,1.988,0,0,1,40.961,66.646Zm0,0" transform="translate(-37.429 -37.43)" fill="#83e1e5"/>
    <path id="Path_903" data-name="Path 903" d="M78.034,46.269v-3.32a1.988,1.988,0,0,0-1.988-1.988h-33.1a1.988,1.988,0,0,0-1.988,1.988v3.32Zm0,0" transform="translate(-37.429 -37.43)" fill="#aab1ba"/>
    <path id="Path_904" data-name="Path 904" d="M83.681,142.547H76.973a.684.684,0,0,1-.684-.684v-4.987a.684.684,0,0,1,.684-.684h6.708a.684.684,0,0,1,.684.684v4.987A.684.684,0,0,1,83.681,142.547Zm0,0" transform="translate(-69.712 -124.451)" fill="#fddf7f"/>
    <path id="Path_905" data-name="Path 905" d="M112.242,167.637l-3.645,3.645h4.607a.684.684,0,0,0,.684-.684v-1.314Zm0,0" transform="translate(-99.236 -153.186)" fill="#ecf4f7"/>
    <path id="Path_906" data-name="Path 906" d="M76.289,169.147v1.258a.684.684,0,0,0,.684.684h5.009l-3.568-3.663Zm0,0" transform="translate(-69.712 -152.994)" fill="#ecf4f7"/>
    <path id="Path_907" data-name="Path 907" d="M83.681,250.664H76.973a.684.684,0,0,1-.684-.684v-4.987a.684.684,0,0,1,.684-.684h6.708a.684.684,0,0,1,.684.684v4.987A.684.684,0,0,1,83.681,250.664Zm0,0" transform="translate(-69.712 -223.249)" fill="#fddf7f"/>
    <path id="Path_908" data-name="Path 908" d="M112.242,275.754,108.6,279.4h4.607a.684.684,0,0,0,.684-.684V277.4Zm0,0" transform="translate(-99.236 -251.984)" fill="#ecf4f7"/>
    <path id="Path_909" data-name="Path 909" d="M76.289,277.261v1.258a.684.684,0,0,0,.684.684h5.009l-3.568-3.663Zm0,0" transform="translate(-69.712 -251.787)" fill="#ecf4f7"/>
    <path id="Path_910" data-name="Path 910" d="M41.046,29.215a2.432,2.432,0,0,1-2.429,2.429H37.244a.441.441,0,1,1,0-.883h1.372a1.548,1.548,0,0,0,1.547-1.547.441.441,0,1,1,.883,0ZM22.068,33.851H21.23a.441.441,0,1,0,0,.883h.838a.441.441,0,1,0,0-.883ZM44.135,3.09V31.645a3.093,3.093,0,0,1-3.089,3.089H27.772a1.845,1.845,0,0,0-1.843,1.843v1.192a1.513,1.513,0,0,0,1.512,1.512h2.2a3.535,3.535,0,0,1,3.531,3.531v.883a.441.441,0,0,1-.441.441H11.408a.441.441,0,0,1-.441-.441v-.883A3.535,3.535,0,0,1,14.5,39.28h2.2a1.513,1.513,0,0,0,1.512-1.512V36.577a1.845,1.845,0,0,0-1.843-1.843H3.09A3.093,3.093,0,0,1,0,31.645V3.09A3.093,3.093,0,0,1,3.09,0H41.046A3.093,3.093,0,0,1,44.135,3.09Zm-.883,0A2.209,2.209,0,0,0,41.046.883H3.09A2.209,2.209,0,0,0,.883,3.09V31.645A2.209,2.209,0,0,0,3.09,33.851H19.825a.441.441,0,1,1,0,.883H18.37a2.713,2.713,0,0,1,.72,1.843v1.192a2.4,2.4,0,0,1-2.394,2.394H14.5a2.651,2.651,0,0,0-2.648,2.648v.441H32.286v-.441a2.651,2.651,0,0,0-2.648-2.648h-2.2a2.4,2.4,0,0,1-2.394-2.394V36.577a2.728,2.728,0,0,1,2.725-2.725H41.046a2.209,2.209,0,0,0,2.207-2.207ZM7.268,3.531a.441.441,0,0,0-.441-.441H5.3A2.209,2.209,0,0,0,3.09,5.3a.441.441,0,0,0,.883,0A1.326,1.326,0,0,1,5.3,3.972h1.53a.441.441,0,0,0,.441-.441ZM3.532,7.209a.441.441,0,0,0-.441.441v6.532a.441.441,0,1,0,.883,0V7.65A.441.441,0,0,0,3.532,7.209ZM8.784,3.972h.662a.441.441,0,1,0,0-.883H8.784a.441.441,0,0,0,0,.883ZM40.6,20.111a.441.441,0,0,0-.441.441v6.532a.441.441,0,1,0,.883,0V20.552A.441.441,0,0,0,40.6,20.111ZM35.353,30.762h-.662a.441.441,0,0,0,0,.883h.662a.441.441,0,0,0,0-.883ZM33.366,11.3H19.31a.441.441,0,1,0,0,.883H33.366a.441.441,0,1,0,0-.883Zm0,6.356H19.31a.441.441,0,1,0,0,.883H33.366a.441.441,0,1,0,0-.883Zm0,2.964H19.31a.441.441,0,1,0,0,.883H33.366a.441.441,0,1,0,0-.883Zm0,6.356H19.31a.441.441,0,1,0,0,.883H33.366a.441.441,0,1,0,0-.883Zm0-12.5H19.31a.441.441,0,1,0,0,.883H33.366a.441.441,0,1,0,0-.883Zm0,9.32H19.31a.441.441,0,1,0,0,.883H33.366a.441.441,0,1,0,0-.883ZM15.095,12.424v4.987a1.127,1.127,0,0,1-1.126,1.125H7.261a1.126,1.126,0,0,1-1.125-1.125V12.424A1.127,1.127,0,0,1,7.261,11.3h6.708A1.127,1.127,0,0,1,15.095,12.424Zm-8.077,0v2.8L8.425,14.09a.441.441,0,0,1,.594.035l1.821,1.869,1.855-1.855a.441.441,0,0,1,.624,0l.893.894V12.424a.243.243,0,0,0-.243-.243H7.261a.243.243,0,0,0-.243.243Zm4.206,5.23L8.667,15.029,7.018,16.364v1.047a.243.243,0,0,0,.194.238.236.236,0,0,0,.049.005Zm2.988-1.374-1.205-1.205-1.551,1.551,1,1.028h1.513a.243.243,0,0,0,.243-.243Zm.883,5.464v4.987a1.127,1.127,0,0,1-1.126,1.125H7.261a1.126,1.126,0,0,1-1.125-1.125V21.744a1.127,1.127,0,0,1,1.125-1.126h6.708A1.127,1.127,0,0,1,15.095,21.744Zm-8.077,0v2.8l1.407-1.139a.441.441,0,0,1,.594.035l1.821,1.869,1.855-1.855a.441.441,0,0,1,.624,0l.893.894V21.744a.243.243,0,0,0-.243-.243H7.261a.243.243,0,0,0-.243.243Zm4.206,5.23L8.667,24.349,7.018,25.684v1.047a.243.243,0,0,0,.194.238.235.235,0,0,0,.049.005ZM14.212,25.6l-1.205-1.205-1.551,1.551,1,1.028h1.513a.236.236,0,0,0,.049-.005.243.243,0,0,0,.194-.238ZM6.136,6.444a.441.441,0,0,0,.441.441H7.916a.441.441,0,0,0,0-.883H6.577A.441.441,0,0,0,6.136,6.444Zm3.4,0a.441.441,0,0,0,.441.441h1.471a.441.441,0,1,0,0-.883H9.975a.441.441,0,0,0-.441.441Zm0,0" transform="translate(0)" fill="#1c1d21"/>
  </g>
</svg>
