<svg xmlns="http://www.w3.org/2000/svg" width="46.404" height="46.404" viewBox="0 0 46.404 46.404">
  <g id="new" transform="translate(0 0)">
    <path id="Path_101" data-name="Path 101" d="M45.371,33.692A22.685,22.685,0,1,1,22.685,11,22.689,22.689,0,0,1,45.371,33.692Z" transform="translate(0 -9.981)" fill="#00315e"/>
    <path id="Path_102" data-name="Path 102" d="M41.545,142.779a.926.926,0,0,1-.926.926h-.926v.926a.926.926,0,1,1-1.852,0V143.7h-.926a.926.926,0,0,1,0-1.852h.926v-.926a.926.926,0,1,1,1.852,0v.926h.926A.926.926,0,0,1,41.545,142.779Z" transform="translate(-32.656 -127.032)" fill="#994587"/>
    <path id="Path_103" data-name="Path 103" d="M91.773,237.2a.926.926,0,0,1-.926.926h-.926v.926a.926.926,0,1,1-1.852,0v-.926h-.926a.926.926,0,0,1,0-1.852h.926v-.926a.926.926,0,1,1,1.852,0v.926h.926A.926.926,0,0,1,91.773,237.2Z" transform="translate(-78.231 -212.707)" fill="#fdc5e6"/>
    <path id="Path_104" data-name="Path 104" d="M148,27.581a16.2,16.2,0,0,1-21.251,1.611l-5.681,5.683a2.315,2.315,0,1,1-3.274-3.275l5.681-5.683A16.207,16.207,0,1,1,148,27.581Z" transform="translate(-106.269)" fill="#babac0"/>
    <path id="Path_105" data-name="Path 105" d="M183.67,63.059A16.2,16.2,0,0,1,162.7,64.723l-.141-.2-4.155,4.156a.556.556,0,0,1-.795-.009l-1.087-1.138,4.893-4.895a16.21,16.21,0,0,1,23.917-20.557A16.216,16.216,0,0,1,183.67,63.059Z" transform="translate(-142.026 -35.388)" fill="#d3d3d8"/>
    <path id="Path_106" data-name="Path 106" d="M63.035,323.492l3.274,3.275-8.072,8.074a22.831,22.831,0,0,1-3.274-3.275Z" transform="translate(-49.872 -293.529)" fill="#012d4e"/>
    <path id="Path_107" data-name="Path 107" d="M104.289,344.007l-5.643,5.645A1.062,1.062,0,0,1,97.1,349.6l-.014-.016a1.059,1.059,0,0,1,.046-1.452l5.643-5.644Z" transform="translate(-87.853 -310.769)" fill="#463b83"/>
    <path id="Path_108" data-name="Path 108" d="M190.942,52.5a12.5,12.5,0,1,1,18.095,11.185,12.518,12.518,0,0,0-11.683-.262A12.5,12.5,0,0,1,190.942,52.5Z" transform="translate(-173.257 -36.295)" fill="#0571b3"/>
    <path id="Path_109" data-name="Path 109" d="M206.019,107.06a14.6,14.6,0,0,0,5.375-.336,12.516,12.516,0,0,1-2.357,1.537A12.419,12.419,0,0,0,206.019,107.06Zm-8.665.939a12.445,12.445,0,0,1,5.594-1.319,12.618,12.618,0,0,1,1.439.082,14.489,14.489,0,0,1-10.59-17.64A12.51,12.51,0,0,0,197.354,108Z" transform="translate(-173.257 -80.867)" fill="#54469b"/>
    <path id="Path_110" data-name="Path 110" d="M270.034,121.734a12.522,12.522,0,0,1-12.126-.26,5.269,5.269,0,0,1,4.556-4.74c0-.005,0-.01,0-.016v-1.447a4.828,4.828,0,0,1-3.325-4.588v-1.755a4.824,4.824,0,1,1,9.648,0v1.755a4.827,4.827,0,0,1-3.325,4.588v1.447c0,.005,0,.01,0,.016A5.269,5.269,0,0,1,270.034,121.734Z" transform="translate(-234.02 -94.459)" fill="#ececf1"/>
    <path id="Path_111" data-name="Path 111" d="M220.49,52.779a.926.926,0,0,1-.926.926h-.926v.926a.926.926,0,1,1-1.852,0V53.7h-.926a.926.926,0,0,1,0-1.852h.926v-.926a.926.926,0,1,1,1.852,0v.926h.926A.926.926,0,0,1,220.49,52.779Zm5.978,14.864c0-.005,0-.01,0-.016V66.18a4.828,4.828,0,0,0,3.325-4.588V59.837a4.825,4.825,0,0,0-4.824-4.826q-.126,0-.251.006V67.042a4.663,4.663,0,0,0,6.139,4.422,5.272,5.272,0,0,0-4.389-3.822Z" transform="translate(-195.026 -45.368)" fill="#fff5f5"/>
  </g>
</svg>
