<svg xmlns="http://www.w3.org/2000/svg" xmlns:xlink="http://www.w3.org/1999/xlink" width="46.576" height="46.579" viewBox="0 0 46.576 46.579">
  <defs>
    <linearGradient id="linear-gradient" x1="-0.006" y1="-0.074" x2="1.041" y2="1.134" gradientUnits="objectBoundingBox">
      <stop offset="0" stop-color="#9237b3"/>
      <stop offset="1" stop-color="#2fa1cb"/>
    </linearGradient>
    <linearGradient id="linear-gradient-2" x1="-1.865" y1="-2.558" x2="1.094" y2="1.23" xlink:href="#linear-gradient"/>
    <linearGradient id="linear-gradient-3" x1="-9.966" y1="-9.967" x2="12.685" y2="12.685" xlink:href="#linear-gradient"/>
    <linearGradient id="linear-gradient-4" x1="-17.472" y1="-17.472" x2="5.179" y2="5.179" xlink:href="#linear-gradient"/>
    <linearGradient id="linear-gradient-5" x1="-26.241" y1="-26.241" x2="3.239" y2="3.238" xlink:href="#linear-gradient"/>
    <linearGradient id="linear-gradient-6" x1="-2.364" y1="-2.363" x2="27.116" y2="27.116" xlink:href="#linear-gradient"/>
    <linearGradient id="linear-gradient-7" x1="-18.532" y1="-18.532" x2="10.947" y2="10.947" xlink:href="#linear-gradient"/>
    <linearGradient id="linear-gradient-8" x1="-10.197" y1="-10.197" x2="19.283" y2="19.282" xlink:href="#linear-gradient"/>
    <linearGradient id="linear-gradient-9" x1="-2.202" y1="-0.493" x2="3.392" y2="1.563" xlink:href="#linear-gradient"/>
    <linearGradient id="linear-gradient-10" x1="-0.604" y1="-0.447" x2="2.114" y2="1.565" xlink:href="#linear-gradient"/>
    <linearGradient id="linear-gradient-11" x1="-0.28" y1="-5.685" x2="2.182" y2="13.841" xlink:href="#linear-gradient"/>
    <linearGradient id="linear-gradient-12" x1="-1.843" y1="-12.463" x2="2.235" y2="10.6" xlink:href="#linear-gradient"/>
    <linearGradient id="linear-gradient-13" x1="-3.276" y1="-1.557" x2="4.155" y2="2.569" xlink:href="#linear-gradient"/>
    <linearGradient id="linear-gradient-14" x1="-1.479" y1="-0.779" x2="5.958" y2="3.346" xlink:href="#linear-gradient"/>
    <linearGradient id="linear-gradient-15" x1="-8.083" y1="-15.667" x2="3.217" y2="5.677" xlink:href="#linear-gradient"/>
    <linearGradient id="linear-gradient-16" x1="-1.086" y1="-11.344" x2="1.258" y2="6.164" xlink:href="#linear-gradient"/>
    <linearGradient id="linear-gradient-17" x1="-1.191" y1="-2.816" x2="1.526" y2="2.539" xlink:href="#linear-gradient"/>
    <linearGradient id="linear-gradient-18" x1="-3.661" y1="-15.82" x2="3.042" y2="10.47" xlink:href="#linear-gradient"/>
    <linearGradient id="linear-gradient-19" x1="-7.668" y1="-7.937" x2="2.952" y2="3.131" xlink:href="#linear-gradient"/>
    <linearGradient id="linear-gradient-20" x1="-7.486" y1="-7.774" x2="3.11" y2="3.304" xlink:href="#linear-gradient"/>
    <linearGradient id="linear-gradient-21" x1="-7.128" y1="-7.393" x2="3.478" y2="3.685" xlink:href="#linear-gradient"/>
    <linearGradient id="linear-gradient-22" x1="-6.618" y1="-6.848" x2="3.997" y2="4.218" xlink:href="#linear-gradient"/>
    <linearGradient id="linear-gradient-23" x1="-5.969" y1="-6.169" x2="4.651" y2="4.898" xlink:href="#linear-gradient"/>
    <linearGradient id="linear-gradient-24" x1="-4.654" y1="-4.799" x2="5.961" y2="6.271" xlink:href="#linear-gradient"/>
    <linearGradient id="linear-gradient-25" x1="-3.763" y1="-3.891" x2="6.857" y2="7.23" xlink:href="#linear-gradient"/>
    <linearGradient id="linear-gradient-26" x1="-2.911" y1="-2.998" x2="7.713" y2="8.115" xlink:href="#linear-gradient"/>
    <linearGradient id="linear-gradient-27" x1="-2.127" y1="-2.155" x2="8.53" y2="8.915" xlink:href="#linear-gradient"/>
    <linearGradient id="linear-gradient-28" x1="-1.453" y1="-1.472" x2="9.118" y2="9.585" xlink:href="#linear-gradient"/>
    <linearGradient id="linear-gradient-29" x1="-4.454" y1="-4.454" x2="9.472" y2="9.472" xlink:href="#linear-gradient"/>
    <linearGradient id="linear-gradient-30" x1="-12.349" y1="-12.35" x2="1.576" y2="1.576" xlink:href="#linear-gradient"/>
    <linearGradient id="linear-gradient-31" x1="-4.284" y1="-4.284" x2="9.642" y2="9.642" xlink:href="#linear-gradient"/>
    <linearGradient id="linear-gradient-32" x1="-5.679" y1="-5.675" x2="6.524" y2="6.52" xlink:href="#linear-gradient"/>
  </defs>
  <g id="odeme-kolayligi" transform="translate(0 0.002)">
    <g id="Group_4601" data-name="Group 4601" transform="translate(2.498 5.559)">
      <g id="Group_4599" data-name="Group 4599" opacity="0.2">
        <path id="Path_1894" data-name="Path 1894" d="M31.558,63.708c-8.3,7.212-17.078-.257-17.078-9.728,0-15.444,17.126-25.029,31.154-20.7,3.99,1.239,7.749,4.437,8.408,8.732.738,4.792-2.908,8.468-6.6,10.9C43.93,55.215,33.4,62.1,31.558,63.708Z" transform="translate(-14.48 -32.237)" fill="url(#linear-gradient)"/>
      </g>
      <g id="Group_4600" data-name="Group 4600" transform="translate(27.551 23.862)" opacity="0.2">
        <path id="Path_1895" data-name="Path 1895" d="M182.612,181.146c-2.429.678-5.986.574-7.763-1.511-2.07-2.429,1.228-4.708,3.321-6.186,2.512-1.775,8.035-4.954,9.724-.959,1.064,2.519-.719,5.725-2.631,7.319A7.145,7.145,0,0,1,182.612,181.146Z" transform="translate(-174.192 -170.564)" fill="url(#linear-gradient-2)"/>
      </g>
    </g>
    <g id="Group_4602" data-name="Group 4602" transform="translate(37.164 4.647)">
      <circle id="Ellipse_174" data-name="Ellipse 174" cx="0.704" cy="0.704" r="0.704" transform="translate(0.212 0.212)" fill="#fff"/>
      <path id="Path_1896" data-name="Path 1896" d="M216.356,28.782a.916.916,0,1,1,.916-.916A.916.916,0,0,1,216.356,28.782Zm0-1.409a.493.493,0,1,0,.492.493.493.493,0,0,0-.492-.493Z" transform="translate(-215.44 -26.95)" fill="url(#linear-gradient-3)"/>
    </g>
    <g id="Group_4603" data-name="Group 4603" transform="translate(27.953 41.36)">
      <circle id="Ellipse_175" data-name="Ellipse 175" cx="0.704" cy="0.704" r="0.704" transform="translate(0.212 0.212)" fill="#fff"/>
      <path id="Path_1897" data-name="Path 1897" d="M162.956,241.6a.916.916,0,1,1,.916-.916A.916.916,0,0,1,162.956,241.6Zm0-1.409a.493.493,0,1,0,.493.493.493.493,0,0,0-.493-.493Z" transform="translate(-162.04 -239.77)" fill="url(#linear-gradient-4)"/>
    </g>
    <circle id="Ellipse_176" data-name="Ellipse 176" cx="0.704" cy="0.704" r="0.704" transform="translate(45.169 34.002)" fill="url(#linear-gradient-5)"/>
    <circle id="Ellipse_177" data-name="Ellipse 177" cx="0.704" cy="0.704" r="0.704" transform="translate(7.794 4.154)" fill="url(#linear-gradient-6)"/>
    <circle id="Ellipse_178" data-name="Ellipse 178" cx="0.704" cy="0.704" r="0.704" transform="translate(31.993 25.475)" fill="url(#linear-gradient-7)"/>
    <circle id="Ellipse_179" data-name="Ellipse 179" cx="0.704" cy="0.704" r="0.704" transform="translate(0 34.002)" fill="url(#linear-gradient-8)"/>
    <path id="Path_1898" data-name="Path 1898" d="M106.835,48.11v6.928a9.73,9.73,0,0,1-3.559,7.523l-.653.538a4.1,4.1,0,0,0-1.377,4.168l.257,1.025H97.337l.257-1.023A4.1,4.1,0,0,0,96.218,63.1l-.666-.545A9.734,9.734,0,0,1,92,55.038V48.11Z" transform="translate(-76.13 -39.813)" fill="#fff"/>
    <path id="Path_1899" data-name="Path 1899" d="M142.418,48.11v6.928a9.738,9.738,0,0,1-3.557,7.525l-.656.536a4.1,4.1,0,0,0-1.415,2.337,4.14,4.14,0,0,0,.038,1.834l.254,1.025H135V48.112Z" transform="translate(-111.712 -39.813)" opacity="0.5" fill="url(#linear-gradient-9)"/>
    <path id="Path_1900" data-name="Path 1900" d="M100.461,67.491H96.295a.212.212,0,0,1-.205-.264l.257-1.025a3.887,3.887,0,0,0-1.306-3.949l-.666-.545A9.914,9.914,0,0,1,90.74,54.02V47.092a.212.212,0,0,1,.217-.212h14.835a.212.212,0,0,1,.212.212V54.02a9.943,9.943,0,0,1-3.636,7.685l-.654.549a3.89,3.89,0,0,0-1.306,3.956l.257,1.025a.212.212,0,0,1-.205.264Zm-3.9-.423h3.623L100,66.307a4.313,4.313,0,0,1,1.447-4.385l.662-.543a9.521,9.521,0,0,0,3.483-7.359V47.3H91.163V54.02a9.488,9.488,0,0,0,3.481,7.359l.666.545a4.313,4.313,0,0,1,1.447,4.383Z" transform="translate(-75.087 -38.794)" fill="url(#linear-gradient-10)"/>
    <g id="Group_4604" data-name="Group 4604" transform="translate(14.863 7.233)">
      <rect id="Rectangle_635" data-name="Rectangle 635" width="16.426" height="1.699" rx="0.85" transform="translate(0.214 0.214)" fill="#fff"/>
      <path id="Path_1901" data-name="Path 1901" d="M102.5,44.065H86.678a.518.518,0,0,1-.518-.518v-1.09a.518.518,0,0,1,.518-.518H102.5a.518.518,0,0,1,.518.518v1.092A.518.518,0,0,1,102.5,44.065Zm-15.819-1.7a.091.091,0,0,0-.091.091v1.092a.091.091,0,0,0,.091.091H102.5a.091.091,0,0,0,.091-.091V42.458a.091.091,0,0,0-.091-.091Z" transform="translate(-86.16 -41.94)" fill="url(#linear-gradient-11)"/>
    </g>
    <g id="Group_4605" data-name="Group 4605" transform="translate(18.202 28.273)">
      <path id="Path_1902" data-name="Path 1902" d="M114.67,165.14h-6.108a1.9,1.9,0,0,0-1.822,1.38h9.75A1.9,1.9,0,0,0,114.67,165.14Z" transform="translate(-106.529 -164.928)" fill="#fff"/>
      <path id="Path_1903" data-name="Path 1903" d="M115.478,165.709h-9.752a.212.212,0,0,1-.2-.269,2.113,2.113,0,0,1,2.025-1.53h6.108a2.113,2.113,0,0,1,2.025,1.53.21.21,0,0,1-.2.269Zm-9.445-.423h9.143a1.691,1.691,0,0,0-1.515-.952h-6.114A1.691,1.691,0,0,0,106.033,165.287Z" transform="translate(-105.515 -163.91)" fill="url(#linear-gradient-12)"/>
    </g>
    <g id="Group_4606" data-name="Group 4606" transform="translate(29.434 9.814)">
      <path id="Path_1904" data-name="Path 1904" d="M177,59.5v.826a6.628,6.628,0,0,1-2.327,5.054l-2.827,2.415a9.833,9.833,0,0,0,.835-2.308l1.208-1.035a5.422,5.422,0,0,0,1.9-4.125V59.5a.128.128,0,0,0-.126-.129h-2.753V58.16h2.76A1.342,1.342,0,0,1,177,59.5Z" transform="translate(-171.639 -57.943)" fill="#fff"/>
      <path id="Path_1905" data-name="Path 1905" d="M170.836,66.955a.212.212,0,0,1-.188-.309,9.644,9.644,0,0,0,.818-2.258.21.21,0,0,1,.069-.114l1.208-1.035a5.208,5.208,0,0,0,1.823-3.968V58.53H171.9a.212.212,0,0,1-.212-.212V57.11a.212.212,0,0,1,.212-.21h2.76a1.553,1.553,0,0,1,1.553,1.553v.825a6.838,6.838,0,0,1-2.415,5.21L170.968,66.9a.21.21,0,0,1-.131.053Zm1.025-2.4a10.105,10.105,0,0,1-.442,1.416l2.108-1.8a6.415,6.415,0,0,0,2.243-4.885v-.823a1.13,1.13,0,0,0-1.113-1.13h-2.541v.79h2.541a.345.345,0,0,1,.345.345v.825a5.631,5.631,0,0,1-1.972,4.285Z" transform="translate(-170.625 -56.9)" fill="url(#linear-gradient-13)"/>
    </g>
    <g id="Group_4607" data-name="Group 4607" transform="translate(11.568 9.816)">
      <path id="Path_1906" data-name="Path 1906" d="M68.29,59.5v.826a6.628,6.628,0,0,0,2.325,5.054l2.827,2.415a9.833,9.833,0,0,1-.835-2.308L71.4,64.45a5.422,5.422,0,0,1-1.9-4.125V59.5a.128.128,0,0,1,.126-.129H72.38V58.16H69.629A1.342,1.342,0,0,0,68.29,59.5Z" transform="translate(-68.078 -57.944)" fill="#fff"/>
      <path id="Path_1907" data-name="Path 1907" d="M72.425,66.964a.21.21,0,0,1-.138-.05L69.465,64.5a6.838,6.838,0,0,1-2.4-5.208v-.825a1.553,1.553,0,0,1,1.553-1.553h2.75a.212.212,0,0,1,.212.212V58.33a.212.212,0,0,1-.212.216H68.7v.742a5.208,5.208,0,0,0,1.825,3.968L71.73,64.29a.21.21,0,0,1,.069.114,9.645,9.645,0,0,0,.818,2.258.212.212,0,0,1-.188.309Zm-3.814-9.631a1.132,1.132,0,0,0-1.128,1.13v.825a6.415,6.415,0,0,0,2.251,4.884l2.108,1.8a10.1,10.1,0,0,1-.442-1.416l-1.154-.987a5.632,5.632,0,0,1-1.973-4.282v-.825a.345.345,0,0,1,.345-.345h2.527v-.785Z" transform="translate(-67.06 -56.91)" fill="url(#linear-gradient-14)"/>
    </g>
    <rect id="Rectangle_636" data-name="Rectangle 636" width="17.275" height="1.942" rx="0.971" transform="translate(14.651 37.185)" fill="#fff"/>
    <path id="Path_1908" data-name="Path 1908" d="M167.463,215.865V217.2a.3.3,0,0,1-.305.305H163.79a.3.3,0,0,0,.3-.305v-1.333a.3.3,0,0,0-.3-.305h3.366a.3.3,0,0,1,.307.305Z" transform="translate(-135.536 -178.377)" opacity="0.5" fill="url(#linear-gradient-15)"/>
    <path id="Path_1909" data-name="Path 1909" d="M100.877,216.68H84.208a.518.518,0,0,1-.518-.518v-1.335a.518.518,0,0,1,.518-.518h16.669a.518.518,0,0,1,.518.518v1.335A.518.518,0,0,1,100.877,216.68Zm-16.669-1.942a.091.091,0,0,0-.091.091v1.335a.091.091,0,0,0,.091.091h16.669a.091.091,0,0,0,.091-.091v-1.335a.091.091,0,0,0-.091-.091Z" transform="translate(-69.253 -177.342)" fill="url(#linear-gradient-16)"/>
    <g id="Group_4608" data-name="Group 4608" transform="translate(15.658 29.647)">
      <path id="Path_1910" data-name="Path 1910" d="M92.419,173.11h14a.424.424,0,0,1,.424.424v6.9H92v-6.9a.424.424,0,0,1,.419-.424Z" transform="translate(-91.788 -172.896)" fill="#fff"/>
      <path id="Path_1911" data-name="Path 1911" d="M105.818,179.619H90.982a.212.212,0,0,1-.212-.212v-6.9a.638.638,0,0,1,.637-.637h14a.638.638,0,0,1,.637.637v6.9a.212.212,0,0,1-.224.212ZM91.181,179.2h14.425V172.51a.214.214,0,0,0-.214-.214H91.4a.214.214,0,0,0-.214.214Z" transform="translate(-90.77 -171.87)" fill="url(#linear-gradient-17)"/>
    </g>
    <rect id="Rectangle_637" data-name="Rectangle 637" width="6.191" height="1.578" rx="0.789" transform="translate(20.193 32.734)" fill="url(#linear-gradient-18)"/>
    <g id="Group_4614" data-name="Group 4614" transform="translate(33.107 12.811)">
      <g id="Group_4609" data-name="Group 4609" transform="translate(0 19.096)">
        <path id="Path_1912" data-name="Path 1912" d="M195.024,186.392l.312.961a.14.14,0,0,0,.133.1h1.011a.14.14,0,0,1,.081.252l-.818.593a.14.14,0,0,0-.05.155l.312.961a.14.14,0,0,1-.214.155l-.818-.593a.14.14,0,0,0-.164,0l-.821.6a.14.14,0,0,1-.214-.155l.312-.961a.14.14,0,0,0-.05-.155l-.818-.593a.14.14,0,0,1,.079-.259h1.011a.14.14,0,0,0,.133-.1l.312-.961a.14.14,0,0,1,.269,0Z" transform="translate(-192.94 -186.062)" fill="#fff"/>
        <path id="Path_1913" data-name="Path 1913" d="M194.854,188.722a.345.345,0,0,1-.207-.067l-.776-.569-.775.562a.345.345,0,0,1-.54-.392l.3-.913-.775-.564a.345.345,0,0,1,.207-.635h.957l.3-.911a.345.345,0,0,1,.668,0l.3.911h.957a.345.345,0,0,1,.207.635l-.775.562.3.911a.345.345,0,0,1-.333.459Zm-2.348-2.146.637.464a.345.345,0,0,1,.128.392l-.243.75.638-.464a.345.345,0,0,1,.412,0l.638.462-.243-.749a.345.345,0,0,1,.128-.392l.638-.464h-.788a.345.345,0,0,1-.333-.243l-.243-.75-.243.75a.345.345,0,0,1-.335.243Z" transform="translate(-191.919 -184.976)" fill="url(#linear-gradient-19)"/>
      </g>
      <g id="Group_4610" data-name="Group 4610" transform="translate(2.846 14.97)">
        <path id="Path_1914" data-name="Path 1914" d="M211.61,162.5l.312.961a.14.14,0,0,0,.133.1h1.018a.14.14,0,0,1,.081.252l-.825.6a.14.14,0,0,0-.05.155l.312.961a.14.14,0,0,1-.214.155l-.818-.593a.14.14,0,0,0-.164,0l-.818.593a.14.14,0,0,1-.214-.155l.312-.961a.14.14,0,0,0-.05-.155l-.818-.593a.14.14,0,0,1,.081-.252H210.9a.14.14,0,0,0,.133-.1l.312-.961a.14.14,0,0,1,.264-.007Z" transform="translate(-209.523 -162.173)" fill="#fff"/>
        <path id="Path_1915" data-name="Path 1915" d="M209.392,164.795a.345.345,0,0,1-.335-.461l.3-.911-.776-.564a.345.345,0,0,1,.207-.635h.959l.3-.911a.345.345,0,0,1,.668,0l.3.911h.964a.345.345,0,0,1,.207.635l-.775.562.3.911a.345.345,0,0,1-.54.392l-.775-.562-.775.562a.345.345,0,0,1-.217.071Zm-.385-2.146.638.464a.345.345,0,0,1,.128.392l-.243.75.638-.464a.345.345,0,0,1,.412,0l.638.462-.243-.749a.345.345,0,0,1,.131-.388l.638-.464h-.794a.345.345,0,0,1-.333-.243l-.243-.75-.243.75a.345.345,0,0,1-.335.243Z" transform="translate(-208.419 -161.056)" fill="url(#linear-gradient-20)"/>
      </g>
      <g id="Group_4611" data-name="Group 4611" transform="translate(4.747 10.211)">
        <path id="Path_1916" data-name="Path 1916" d="M222.647,134.913l.312.961a.14.14,0,0,0,.133.1h1.014a.14.14,0,0,1,.081.252l-.818.593a.14.14,0,0,0-.05.155l.312.961a.14.14,0,0,1-.214.155l-.818-.593a.14.14,0,0,0-.164,0l-.818.593a.14.14,0,0,1-.214-.155l.312-.961a.14.14,0,0,0-.05-.155l-.818-.593a.14.14,0,0,1,.081-.252h1.011a.14.14,0,0,0,.133-.1l.312-.961a.14.14,0,0,1,.26,0Z" transform="translate(-220.56 -134.589)" fill="#fff"/>
        <path id="Path_1917" data-name="Path 1917" d="M220.412,137.2a.345.345,0,0,1-.335-.461l.3-.911-.776-.564a.345.345,0,0,1,.207-.635h.959l.3-.911a.345.345,0,0,1,.668,0l.3.911h.961a.345.345,0,0,1,.207.635l-.775.562.3.911a.345.345,0,0,1-.54.392l-.775-.562-.775.562A.345.345,0,0,1,220.412,137.2Zm-.385-2.146.638.464a.345.345,0,0,1,.128.392l-.243.749.638-.464a.345.345,0,0,1,.412,0l.637.462-.243-.75a.345.345,0,0,1,.128-.392l.637-.462h-.788a.345.345,0,0,1-.333-.243l-.243-.749-.243.749a.345.345,0,0,1-.335.243Z" transform="translate(-219.439 -133.466)" fill="url(#linear-gradient-21)"/>
      </g>
      <g id="Group_4612" data-name="Group 4612" transform="translate(5.824 5.103)">
        <path id="Path_1918" data-name="Path 1918" d="M228.917,105.312l.312.961a.14.14,0,0,0,.133.1h1.011a.14.14,0,0,1,.081.252l-.814.593a.14.14,0,0,0-.05.155l.312.961a.14.14,0,0,1-.214.155l-.818-.593a.14.14,0,0,0-.164,0l-.818.593a.14.14,0,0,1-.214-.155l.312-.961a.14.14,0,0,0-.05-.155l-.818-.593a.14.14,0,0,1,.081-.252h1.011a.14.14,0,0,0,.133-.1l.312-.961a.14.14,0,0,1,.26,0Z" transform="translate(-226.824 -104.987)" fill="#fff"/>
        <path id="Path_1919" data-name="Path 1919" d="M228.622,107.6a.345.345,0,0,1-.207-.067l-.783-.564-.775.562a.345.345,0,0,1-.54-.393l.3-.911-.776-.564a.345.345,0,0,1,.207-.635H227l.3-.911a.345.345,0,0,1,.668,0l.3.911h.957a.345.345,0,0,1,.207.635l-.762.566.3.911a.345.345,0,0,1-.333.459Zm-2.348-2.146.638.464a.345.345,0,0,1,.128.392l-.243.75.638-.464a.345.345,0,0,1,.412,0l.637.462-.243-.75a.345.345,0,0,1,.128-.392l.638-.464h-.788a.345.345,0,0,1-.333-.243l-.254-.749-.243.75a.345.345,0,0,1-.335.243Z" transform="translate(-225.679 -103.856)" fill="url(#linear-gradient-22)"/>
      </g>
      <g id="Group_4613" data-name="Group 4613" transform="translate(5.831)">
        <path id="Path_1920" data-name="Path 1920" d="M228.917,75.707l.312.961a.14.14,0,0,0,.133.1h1.011a.14.14,0,0,1,.081.252l-.814.6a.14.14,0,0,0-.05.155l.312.961a.14.14,0,0,1-.214.155l-.818-.593a.14.14,0,0,0-.164,0l-.818.593a.14.14,0,0,1-.214-.155l.312-.961a.14.14,0,0,0-.05-.155l-.818-.593a.14.14,0,0,1,.081-.252h1.011a.14.14,0,0,0,.133-.1l.312-.961a.14.14,0,0,1,.26,0Z" transform="translate(-226.831 -75.387)" fill="#fff"/>
        <path id="Path_1921" data-name="Path 1921" d="M226.691,78.011a.345.345,0,0,1-.335-.461l.3-.907-.776-.564a.345.345,0,0,1,.207-.635h.959l.3-.911a.345.345,0,0,1,.668,0l.295.9h.957a.345.345,0,0,1,.207.635l-.768.573.3.913a.345.345,0,0,1-.54.392l-.792-.568-.775.562A.345.345,0,0,1,226.691,78.011Zm-.385-2.146.638.464a.345.345,0,0,1,.128.392l-.243.75.638-.464a.345.345,0,0,1,.412,0l.638.462-.243-.749a.345.345,0,0,1,.128-.392l.638-.464h-.788a.345.345,0,0,1-.333-.243l-.254-.749-.243.749a.345.345,0,0,1-.335.243Z" transform="translate(-225.719 -74.276)" fill="url(#linear-gradient-23)"/>
      </g>
    </g>
    <g id="Group_4620" data-name="Group 4620" transform="translate(3.714 12.808)">
      <g id="Group_4615" data-name="Group 4615" transform="translate(5.852 19.101)">
        <path id="Path_1922" data-name="Path 1922" d="M58.365,186.406l-.312.961a.14.14,0,0,1-.133.1H56.911a.14.14,0,0,0-.081.252l.818.593a.14.14,0,0,1,.05.155l-.312.961a.14.14,0,0,0,.214.155l.818-.593a.14.14,0,0,1,.164,0l.819.6a.14.14,0,0,0,.214-.155l-.312-.961a.14.14,0,0,1,.05-.155l.818-.593a.14.14,0,0,0-.079-.259H59.077a.14.14,0,0,1-.133-.1l-.312-.961a.14.14,0,0,0-.267,0Z" transform="translate(-56.546 -186.078)" fill="#fff"/>
        <path id="Path_1923" data-name="Path 1923" d="M58.394,188.73a.345.345,0,0,1-.207-.067l-.775-.569-.775.562a.345.345,0,0,1-.542-.39l.3-.913-.775-.564a.345.345,0,0,1,.207-.635h.957l.3-.911a.345.345,0,0,1,.668,0l.3.911H59a.345.345,0,0,1,.207.635l-.775.562.292.914a.345.345,0,0,1-.333.459Zm-2.348-2.146.637.464a.345.345,0,0,1,.128.392l-.243.75.638-.464a.345.345,0,0,1,.412,0l.638.462-.243-.749a.345.345,0,0,1,.128-.392l.638-.464h-.79a.345.345,0,0,1-.333-.243l-.243-.75-.243.75a.345.345,0,0,1-.335.243Z" transform="translate(-55.459 -184.986)" fill="url(#linear-gradient-24)"/>
      </g>
      <g id="Group_4616" data-name="Group 4616" transform="translate(3.004 14.988)">
        <path id="Path_1924" data-name="Path 1924" d="M41.847,162.5l-.312.961a.14.14,0,0,1-.133.1H40.391a.14.14,0,0,0-.081.252l.818.6a.14.14,0,0,1,.05.155l-.312.961a.14.14,0,0,0,.214.155l.818-.593a.14.14,0,0,1,.164,0l.818.593a.14.14,0,0,0,.214-.155l-.312-.961a.14.14,0,0,1,.05-.155l.818-.593a.14.14,0,0,0-.081-.252H42.557a.14.14,0,0,1-.133-.1l-.317-.968a.14.14,0,0,0-.26,0Z" transform="translate(-40.028 -162.194)" fill="#fff"/>
        <path id="Path_1925" data-name="Path 1925" d="M39.919,164.864a.345.345,0,0,1-.333-.461l.3-.911-.775-.564a.345.345,0,0,1,.207-.635h.957l.3-.911a.351.351,0,0,1,.668,0l.3.911h.957a.345.345,0,0,1,.207.635l-.775.562.3.911a.345.345,0,0,1-.54.392l-.775-.562-.775.562A.345.345,0,0,1,39.919,164.864Zm.982-1.071a.345.345,0,0,1,.205.067l.638.462-.243-.749a.345.345,0,0,1,.128-.392l.638-.464h-.788a.345.345,0,0,1-.333-.243l-.243-.75-.243.75a.345.345,0,0,1-.333.242h-.792l.631.469a.345.345,0,0,1,.128.392l-.243.749.637-.462a.345.345,0,0,1,.214-.071Z" transform="translate(-38.949 -161.14)" fill="url(#linear-gradient-25)"/>
      </g>
      <g id="Group_4617" data-name="Group 4617" transform="translate(1.103 10.235)">
        <path id="Path_1926" data-name="Path 1926" d="M30.8,134.89l-.312.961a.14.14,0,0,1-.133.1H29.341a.14.14,0,0,0-.081.252l.818.593a.14.14,0,0,1,.05.155l-.312.961a.14.14,0,0,0,.214.155l.818-.593a.14.14,0,0,1,.164,0l.818.593a.14.14,0,0,0,.214-.155l-.312-.961a.14.14,0,0,1,.05-.155l.818-.593a.14.14,0,0,0-.081-.252h-1a.14.14,0,0,1-.133-.1l-.314-.961a.14.14,0,0,0-.264,0Z" transform="translate(-28.983 -134.588)" fill="#fff"/>
        <path id="Path_1927" data-name="Path 1927" d="M28.9,137.307a.345.345,0,0,1-.333-.461l.3-.911-.775-.562a.345.345,0,0,1,.207-.635h.957l.295-.906a.351.351,0,0,1,.668,0l.3.911h.957a.345.345,0,0,1,.207.635l-.775.562.3.911a.345.345,0,0,1-.54.393l-.775-.562-.775.562A.345.345,0,0,1,28.9,137.307Zm.982-1.071a.345.345,0,0,1,.207.067l.638.464-.243-.75a.345.345,0,0,1,.128-.393l.637-.462h-.788a.345.345,0,0,1-.333-.243l-.243-.749-.243.75a.345.345,0,0,1-.333.243h-.79l.638.464a.345.345,0,0,1,.128.392l-.245.747.638-.462a.345.345,0,0,1,.205-.067Z" transform="translate(-27.929 -133.59)" fill="url(#linear-gradient-26)"/>
      </g>
      <g id="Group_4618" data-name="Group 4618" transform="translate(0.027 5.108)">
        <path id="Path_1928" data-name="Path 1928" d="M24.557,105.29l-.312.961a.14.14,0,0,1-.133.1H23.1a.14.14,0,0,0-.081.252l.812.593a.14.14,0,0,1,.05.155l-.312.961a.14.14,0,0,0,.214.155l.818-.593a.14.14,0,0,1,.164,0l.818.593a.14.14,0,0,0,.214-.155l-.312-.961a.14.14,0,0,1,.05-.155l.818-.593a.14.14,0,0,0-.081-.252H25.266a.14.14,0,0,1-.133-.1l-.312-.961a.14.14,0,0,0-.264,0Z" transform="translate(-22.743 -104.967)" fill="#fff"/>
        <path id="Path_1929" data-name="Path 1929" d="M24.617,107.6a.345.345,0,0,1-.207-.067l-.769-.564-.775.562a.345.345,0,0,1-.54-.393l.3-.911-.775-.564a.345.345,0,0,1,.207-.635h.957l.283-.909a.345.345,0,0,1,.668,0l.3.911h.957a.345.345,0,0,1,.207.635l-.775.562.3.911a.345.345,0,0,1-.333.459Zm-2.348-2.148.638.464a.345.345,0,0,1,.128.392l-.243.75.638-.462a.345.345,0,0,1,.412,0l.637.462-.243-.75a.345.345,0,0,1,.128-.392l.638-.464h-.79a.345.345,0,0,1-.333-.243l-.238-.749-.243.749a.345.345,0,0,1-.333.242Z" transform="translate(-21.689 -103.866)" fill="url(#linear-gradient-27)"/>
      </g>
      <g id="Group_4619" data-name="Group 4619">
        <path id="Path_1930" data-name="Path 1930" d="M24.557,75.684l-.312.961a.14.14,0,0,1-.133.1H23.1a.14.14,0,0,0-.081.252l.812.6a.14.14,0,0,1,.05.155l-.312.961a.14.14,0,0,0,.214.155l.818-.593a.14.14,0,0,1,.164,0l.818.593A.14.14,0,0,0,25.8,78.7l-.312-.961a.14.14,0,0,1,.05-.155L26.352,77a.14.14,0,0,0-.081-.252H25.266a.14.14,0,0,1-.133-.1l-.312-.961a.14.14,0,0,0-.264,0Z" transform="translate(-22.716 -75.361)" fill="#fff"/>
        <path id="Path_1931" data-name="Path 1931" d="M22.524,77.995a.345.345,0,0,1-.333-.461l.295-.907-.775-.562a.345.345,0,0,1,.205-.645h.957l.292-.906a.345.345,0,0,1,.668,0l.3.906h.957a.345.345,0,0,1,.207.635l-.775.573.3.913a.345.345,0,0,1-.54.392l-.771-.568-.775.562A.345.345,0,0,1,22.524,77.995Zm-.385-2.146.638.464a.345.345,0,0,1,.128.392l-.243.749.638-.462a.345.345,0,0,1,.412,0l.638.462-.243-.749a.345.345,0,0,1,.128-.392l.638-.464h-.792a.345.345,0,0,1-.333-.243l-.238-.749-.243.749a.345.345,0,0,1-.333.243Z" transform="translate(-21.533 -74.256)" fill="url(#linear-gradient-28)"/>
      </g>
    </g>
    <path id="Path_1932" data-name="Path 1932" d="M186.685.982l.747.316a.207.207,0,0,1,0,.381l-.747.316a.207.207,0,0,0-.11.11l-.316.747a.207.207,0,0,1-.381,0l-.316-.747a.207.207,0,0,0-.11-.11l-.747-.316a.207.207,0,0,1,0-.381l.747-.316a.207.207,0,0,0,.11-.11l.316-.747a.207.207,0,0,1,.381,0l.316.747a.207.207,0,0,0,.11.11Z" transform="translate(-152.737 0)" fill="url(#linear-gradient-29)"/>
    <path id="Path_1933" data-name="Path 1933" d="M206.715,253.722l.747.316a.207.207,0,0,1,0,.381l-.747.316a.207.207,0,0,0-.11.11l-.316.747a.207.207,0,0,1-.381,0l-.316-.747a.207.207,0,0,0-.11-.11l-.747-.316a.207.207,0,0,1,0-.381l.747-.316a.207.207,0,0,0,.11-.11l.316-.747a.207.207,0,0,1,.381,0l.316.747A.207.207,0,0,0,206.715,253.722Z" transform="translate(-169.312 -209.141)" fill="url(#linear-gradient-30)"/>
    <path id="Path_1934" data-name="Path 1934" d="M61.755,120.042l.747.316a.207.207,0,0,1,0,.381l-.747.316a.207.207,0,0,0-.11.11l-.316.747a.207.207,0,0,1-.381,0l-.316-.747a.207.207,0,0,0-.11-.11l-.747-.316a.207.207,0,0,1,0-.381l.747-.316a.207.207,0,0,0,.11-.11l.316-.747a.207.207,0,0,1,.381,0l.316.747A.207.207,0,0,0,61.755,120.042Z" transform="translate(-49.358 -98.522)" fill="url(#linear-gradient-31)"/>
    <g id="Group_4621" data-name="Group 4621" transform="translate(5.241 38.676)">
      <path id="Path_1935" data-name="Path 1935" d="M33.713,226.438l.749.321a.207.207,0,0,1,0,.381l-.749.309a.207.207,0,0,0-.11.11l-.314.752a.207.207,0,0,1-.381,0l-.316-.747a.207.207,0,0,0-.11-.11l-.747-.316a.207.207,0,0,1,0-.381l.747-.316a.207.207,0,0,0,.11-.11l.316-.747a.207.207,0,0,1,.381,0l.316.747A.207.207,0,0,0,33.713,226.438Z" transform="translate(-31.397 -225.243)" fill="#fff"/>
      <path id="Path_1936" data-name="Path 1936" d="M32.084,227.617a.417.417,0,0,1-.386-.255l-.316-.747-.743-.314a.419.419,0,0,1,0-.771l.747-.317.312-.743a.419.419,0,0,1,.771,0l.316.743.745.316a.419.419,0,0,1,0,.771l-.747.316-.312.745a.417.417,0,0,1-.386.257Zm0-2.983-.311.75a.414.414,0,0,1-.223.223l-.747.316.747.307a.414.414,0,0,1,.223.224l.316.747.3-.752a.419.419,0,0,1,.223-.223l.756-.324-.747-.307a.417.417,0,0,1-.231-.21Z" transform="translate(-30.384 -224.214)" fill="url(#linear-gradient-32)"/>
    </g>
  </g>
</svg>
