<svg xmlns="http://www.w3.org/2000/svg" width="16.529" height="15.84" viewBox="0 0 16.529 15.84">
  <g id="paper-plane" transform="translate(0 0)">
    <path id="Path_548" data-name="Path 548" d="M8.75,17.612v3.194a.516.516,0,0,0,.932.306l1.868-2.543Z" transform="translate(-2.724 -5.483)" fill="#fff"/>
    <path id="Path_549" data-name="Path 549" d="M16.312.1a.517.517,0,0,0-.539-.037L.278,8.151A.517.517,0,0,0,.349,9.1L4.657,10.57l9.174-7.844-7.1,8.553,7.22,2.468a.528.528,0,0,0,.167.028.516.516,0,0,0,.511-.44L16.523.593a.517.517,0,0,0-.211-.5Z" transform="translate(0 0)" fill="#fff"/>
  </g>
</svg>
