<svg xmlns="http://www.w3.org/2000/svg" width="44.796" height="40.352" viewBox="0 0 44.796 40.352">
  <g id="personal-profile" transform="translate(0 -25.383)">
    <g id="Group_3882" data-name="Group 3882" transform="translate(0.603 26.028)">
      <g id="Group_3881" data-name="Group 3881" transform="translate(0 0)">
        <path id="Path_1027" data-name="Path 1027" d="M47,32.755H10.256a3.37,3.37,0,0,0-3.37,3.37V60.882l4.561,2.1H47.761l2.608-2.1V36.125A3.37,3.37,0,0,0,47,32.755Z" transform="translate(-6.886 -32.755)" fill="#f3fbff"/>
        <path id="Path_1028" data-name="Path 1028" d="M14.642,62.656a3.37,3.37,0,0,1-3.37-3.37V33.34a3.386,3.386,0,0,1,.052-.585H10.256a3.37,3.37,0,0,0-3.37,3.37V60.882l4.561,2.1H47.761l.4-.322Z" transform="translate(-6.886 -32.755)" fill="#e3f6fc"/>
        <g id="XMLID_223_" transform="translate(0 28.127)">
          <g id="Group_3878" data-name="Group 3878">
            <g id="XMLID_224_" transform="translate(13.462 1.519)">
              <g id="Group_3877" data-name="Group 3877">
                <path id="Path_1029" data-name="Path 1029" d="M177.391,380.788H160.656l2.743-2.681v-6.711h11.295l-.046,6.711Z" transform="translate(-160.656 -371.395)" fill="#c7c0c7"/>
              </g>
            </g>
            <path id="Path_1030" data-name="Path 1030" d="M174.694,371.395H163.4v6.711l-2.743,2.681h2.8l2.023-1.978a1.4,1.4,0,0,0,.42-1v-.981a.646.646,0,0,1,.646-.646h8.12Z" transform="translate(-147.194 -369.876)" fill="#b8afb8"/>
            <path id="Path_1031" data-name="Path 1031" d="M50.369,354.045v1.188A3.37,3.37,0,0,1,47,358.6H10.256a3.37,3.37,0,0,1-3.37-3.37v-1.188Z" transform="translate(-6.886 -354.045)" fill="#d6d1d6"/>
            <path id="Path_1032" data-name="Path 1032" d="M14.642,355.818a3.369,3.369,0,0,1-2.968-1.773H6.886v1.188a3.37,3.37,0,0,0,3.37,3.37H47a3.37,3.37,0,0,0,3.318-2.784Z" transform="translate(-6.886 -354.045)" fill="#c7c0c7"/>
          </g>
        </g>
        <path id="Path_1033" data-name="Path 1033" d="M134.411,84.607l9.972.44L147.13,85a11.242,11.242,0,1,0-16.9,0Z" transform="translate(-116.883 -63.403)" fill="#b8de9c"/>
        <g id="Group_3880" data-name="Group 3880" transform="translate(13.344 12.74)">
          <g id="XMLID_226_">
            <g id="Group_3879" data-name="Group 3879">
              <path id="Path_1034" data-name="Path 1034" d="M176.21,187.137a11.241,11.241,0,0,1-16.9,0,8.449,8.449,0,0,1,3.36-6.35l2.785-2.5H170.6l2.251,2.5A8.449,8.449,0,0,1,176.21,187.137Z" transform="translate(-159.307 -178.284)" fill="#fcf0b6"/>
            </g>
          </g>
        </g>
      </g>
      <path id="Path_1035" data-name="Path 1035" d="M173.834,181.657a8.523,8.523,0,0,0-.983-.869l-2.251-2.5h-5.148l-2.309,2.076.173.191-.185.351-.15-.4-.313.282a8.449,8.449,0,0,0-3.36,6.35,11.317,11.317,0,0,0,1.7,1.574,8.42,8.42,0,0,1,1.894-4.3,2.066,2.066,0,0,1,2.23-.617,8.506,8.506,0,0,0,8.706-2.134Z" transform="translate(-145.964 -165.544)" fill="#fbe372"/>
      <path id="Path_1036" data-name="Path 1036" d="M180.743,66.344a7.205,7.205,0,1,1-7.206,7.206,7.206,7.206,0,0,1,7.206-7.206Z" transform="translate(-158.948 -63.403)" fill="#f8f7f8"/>
      <path id="Path_1037" data-name="Path 1037" d="M176.8,73.55a7.209,7.209,0,0,1,5.576-7.021,7.206,7.206,0,1,0,0,14.041A7.21,7.21,0,0,1,176.8,73.55Z" transform="translate(-158.948 -63.403)" fill="#efedee"/>
    </g>
    <g id="Group_3883" data-name="Group 3883" transform="translate(0 25.383)">
      <path id="Path_1038" data-name="Path 1038" d="M40.77,25.383H4.026A4.031,4.031,0,0,0,0,29.409V55.355a4.031,4.031,0,0,0,4.026,4.026H16.2v2.74l-2.354,2.3h-1a.657.657,0,1,0,0,1.313H32.008a.657.657,0,1,0,0-1.313h-.887l-2.354-2.3v-2.74h12A4.031,4.031,0,0,0,44.8,55.355V29.409a4.031,4.031,0,0,0-4.026-4.026ZM27.651,62.867l1.591,1.555H15.729l1.591-1.555a.657.657,0,0,0,.2-.47V59.381h9.936V62.4A.656.656,0,0,0,27.651,62.867Zm13.119-4.8H4.026a2.716,2.716,0,0,1-2.713-2.713v-.532H14.228a.657.657,0,0,0,0-1.313H1.313v-24.1A2.716,2.716,0,0,1,4.026,26.7H40.77a2.716,2.716,0,0,1,2.713,2.713v24.1H17.026a.657.657,0,0,0,0,1.313H43.483v.532A2.716,2.716,0,0,1,40.77,58.068Z" transform="translate(0 -25.383)"/>
      <path id="Path_1039" data-name="Path 1039" d="M249.5,368.935a.657.657,0,0,0-.657.657v.292a.657.657,0,1,0,1.313,0v-.292A.657.657,0,0,0,249.5,368.935Z" transform="translate(-227.062 -338.859)"/>
      <path id="Path_1040" data-name="Path 1040" d="M143.346,73.767a.657.657,0,0,0-1.27-.333,10.535,10.535,0,0,1-1.357,3.067,9.085,9.085,0,0,0-2.842-4.769,7.846,7.846,0,0,0,.606-9.222,10.569,10.569,0,0,1,3.939,8.232V70.8a.657.657,0,0,0,.654.659h0a.657.657,0,0,0,.656-.654v-.064a11.888,11.888,0,1,0-.389,3.026ZM125.188,62.511a7.826,7.826,0,0,0-1.18,3.482.657.657,0,0,0,1.308.118,6.54,6.54,0,1,1,.267,2.544.657.657,0,0,0-1.254.39,7.891,7.891,0,0,0,1.466,2.687,9.085,9.085,0,0,0-2.839,4.761,10.568,10.568,0,0,1,2.232-13.983Zm-1.129,15.4a7.776,7.776,0,0,1,2.659-5.242c.135.116.273.228.415.335a7.855,7.855,0,0,0,9.82-.337,7.776,7.776,0,0,1,2.661,5.252,10.578,10.578,0,0,1-15.555-.009Z" transform="translate(-109.439 -55.914)"/>
    </g>
  </g>
</svg>
