<svg xmlns="http://www.w3.org/2000/svg" width="44.796" height="46.807" viewBox="0 0 44.796 46.807">
  <g id="popular" transform="translate(-11)">
    <path id="Path_42" data-name="Path 42" d="M11,33.4A22.4,22.4,0,1,1,44.981,52.572a22.421,22.421,0,0,0-23.167,0A22.385,22.385,0,0,1,11,33.4Z" transform="translate(0 -9.994)" fill="#00315e"/>
    <path id="Path_43" data-name="Path 43" d="M141.453,71.081l1.237,2.506a.227.227,0,0,0,.171.124l2.765.4a.227.227,0,0,1,.126.388l-2,1.95a.227.227,0,0,0-.065.2l.472,2.754a.227.227,0,0,1-.33.24l-2.473-1.3a.227.227,0,0,0-.211,0l-2.473,1.3a.227.227,0,0,1-.33-.24l.472-2.754a.227.227,0,0,0-.065-.2l-2-1.95a.227.227,0,0,1,.126-.388l2.765-.4a.227.227,0,0,0,.171-.124l1.237-2.506A.227.227,0,0,1,141.453,71.081ZM157.76,91.319l-1.237,2.506a.227.227,0,0,1-.171.124l-2.765.4a.227.227,0,0,0-.126.388l2,1.95a.227.227,0,0,1,.065.2l-.472,2.754a.227.227,0,0,0,.33.24l2.473-1.3a.227.227,0,0,1,.211,0l2.473,1.3a.227.227,0,0,0,.33-.24L160.4,96.89a.227.227,0,0,1,.065-.2l2-1.95a.227.227,0,0,0-.126-.388l-2.765-.4a.227.227,0,0,1-.171-.124l-1.237-2.506A.227.227,0,0,0,157.76,91.319Z" transform="translate(-114.188 -64.468)" fill="#fda800"/>
    <path id="Path_44" data-name="Path 44" d="M160.233,133.041a9.636,9.636,0,0,1-9.636-9.636V113.3a9.636,9.636,0,1,1,19.272,0v10.1A9.636,9.636,0,0,1,160.233,133.041Z" transform="translate(-126.835 -94.189)" fill="#7d402d"/>
    <path id="Path_45" data-name="Path 45" d="M162.1,132.86a9.645,9.645,0,0,1-11.5-9.455V113.3a9.645,9.645,0,0,1,11.5-9.455,9.639,9.639,0,0,0-7.768,9.455v10.1A9.639,9.639,0,0,0,162.1,132.86Z" transform="translate(-126.835 -94.189)" fill="#67382a"/>
    <path id="Path_46" data-name="Path 46" d="M149.376,354.191v5.242a22.417,22.417,0,0,1-23.857,0v-5.242a5.219,5.219,0,0,1,5.219-5.219h13.42A5.219,5.219,0,0,1,149.376,354.191Z" transform="translate(-104.05 -317.069)" fill="#ececf1"/>
    <path id="Path_47" data-name="Path 47" d="M171.6,354.191v5.242a22.431,22.431,0,0,1-21.621,1.237v-6.48a5.219,5.219,0,0,1,5.219-5.219h11.183A5.219,5.219,0,0,1,171.6,354.191Z" transform="translate(-126.278 -317.069)" fill="#fff5f5"/>
    <path id="Path_48" data-name="Path 48" d="M329.045,228.511v.746a1.864,1.864,0,1,1-3.728,0v-.746a1.864,1.864,0,0,1,3.728,0Z" transform="translate(-285.582 -205.927)" fill="#e3ac6e"/>
    <path id="Path_49" data-name="Path 49" d="M164.174,128.832v2.982a8.2,8.2,0,0,1-5.964,7.892v2.545a2.237,2.237,0,0,1-4.473,0v-2.545a8.221,8.221,0,0,1-5.435-4.986,1.865,1.865,0,0,1-2.394-1.788v-.746a1.864,1.864,0,0,1,1.864-1.864v-1.491a8.2,8.2,0,1,1,16.4,0Z" transform="translate(-122.575 -109.603)" fill="#eabe8d"/>
    <path id="Path_50" data-name="Path 50" d="M147.025,131.813V133.3a1.861,1.861,0,0,0,.745,1.491,1.864,1.864,0,0,1-1.864-1.864v-.746a1.864,1.864,0,0,1,1.864-1.864A1.861,1.861,0,0,0,147.025,131.813Zm2.982,0v-2.982a8.2,8.2,0,0,1,7.083-8.125,8.207,8.207,0,0,0-9.319,8.125v2.982a8.207,8.207,0,0,0,9.319,8.125,8.2,8.2,0,0,1-7.083-8.125Zm6.534-.485a.806.806,0,0,1-1.139,0,.686.686,0,1,0-.97.97,2.179,2.179,0,0,0,3.078,0,.686.686,0,1,0-.97-.97Zm2.152,3.418a.686.686,0,0,0-.97,0,2.48,2.48,0,0,1-3.5,0,.686.686,0,1,0-.97.97,3.853,3.853,0,0,0,5.443,0A.686.686,0,0,0,158.693,134.747Z" transform="translate(-122.574 -109.602)" fill="#e3ac6e"/>
    <path id="Path_51" data-name="Path 51" d="M206.149,206.456a1.118,1.118,0,1,1,1.118-1.118A1.118,1.118,0,0,1,206.149,206.456Zm8.2-1.118a1.118,1.118,0,1,0-1.118,1.118A1.118,1.118,0,0,0,214.35,205.337Z" transform="translate(-176.293 -185.549)" fill="#463b83"/>
    <path id="Path_52" data-name="Path 52" d="M219.862,204.22a.559.559,0,1,1-.559.559A.559.559,0,0,1,219.862,204.22Zm6.523.559a.559.559,0,1,0,.559-.559A.559.559,0,0,0,226.386,204.779Z" transform="translate(-189.26 -185.55)" fill="#fff5f5"/>
    <path id="Path_53" data-name="Path 53" d="M189.665,431.34v4.318q-.856.3-1.743.533V431.34a.871.871,0,0,1,1.743,0Zm-13.971-.871a.871.871,0,0,0-.871.871v4.318q.856.3,1.743.533V431.34A.871.871,0,0,0,175.693,430.469Z" transform="translate(-148.845 -391.115)" fill="#ececf1"/>
    <path id="Path_54" data-name="Path 54" d="M185.178,121.875a8.207,8.207,0,0,1-5.339-3.635,10.662,10.662,0,0,1-10.661,3.071c.023-3.542,4.123-6.68,7.937-6.68,4.015,0,8.2,3.371,8.063,7.244Z" transform="translate(-143.717 -104.151)" fill="#7d402d"/>
    <path id="Path_55" data-name="Path 55" d="M171.338,121.738a10.619,10.619,0,0,1-2.161-.357,6.8,6.8,0,0,1,7.329-6.653A9.648,9.648,0,0,0,171.338,121.738Z" transform="translate(-143.716 -104.222)" fill="#67382a"/>
    <path id="Path_56" data-name="Path 56" d="M171.359,437.994a.914.914,0,0,1,.914-.914h4.182a.914.914,0,1,1,0,1.828h-4.182A.914.914,0,0,1,171.359,437.994Zm-5.348,0a.914.914,0,0,0-.914-.914h-4.182a.914.914,0,1,0,0,1.828H165.1A.914.914,0,0,0,166.011,437.994Z" transform="translate(-135.378 -397.122)" fill="#d89c56"/>
    <path id="Path_57" data-name="Path 57" d="M165.014,320.427l2.488,5.041a.457.457,0,0,0,.344.25l5.563.808a.457.457,0,0,1,.253.78l-4.025,3.923a.457.457,0,0,0-.131.4l.95,5.54a.457.457,0,0,1-.663.482l-4.975-2.616a.457.457,0,0,0-.425,0l-4.975,2.616a.457.457,0,0,1-.663-.482l.95-5.54a.457.457,0,0,0-.131-.4l-4.025-3.923a.457.457,0,0,1,.253-.78l5.563-.808a.457.457,0,0,0,.344-.25l2.488-5.041A.457.457,0,0,1,165.014,320.427Z" transform="translate(-131.207 -290.902)" fill="#fd4fb6"/>
    <path id="Path_58" data-name="Path 58" d="M170.456,392.389a.457.457,0,0,1-.663.482l-4.975-2.616a.457.457,0,0,0-.425,0l-4.975,2.616a.457.457,0,0,1-.663-.482l.95-5.54a.457.457,0,0,0-.131-.4l-4.025-3.923a.457.457,0,0,1,.253-.78l5.493-.8a9.224,9.224,0,0,0,8.591,8.112Z" transform="translate(-131.207 -346.117)" fill="#b1529e"/>
    <path id="Path_59" data-name="Path 59" d="M67.627,226.939l1.45,2.938a.267.267,0,0,0,.2.146l3.243.471a.266.266,0,0,1,.148.455l-2.346,2.287a.267.267,0,0,0-.077.236l.554,3.23a.266.266,0,0,1-.387.281l-2.9-1.525a.267.267,0,0,0-.248,0l-2.9,1.525a.266.266,0,0,1-.387-.281l.554-3.23a.267.267,0,0,0-.077-.236l-2.346-2.287a.267.267,0,0,1,.148-.455l3.243-.471a.267.267,0,0,0,.2-.146l1.45-2.938A.266.266,0,0,1,67.627,226.939Z" transform="translate(-46.362 -206.057)" fill="#fcf498"/>
    <path id="Path_60" data-name="Path 60" d="M301.973.136l1.32,2.676a.243.243,0,0,0,.183.133l2.953.429a.243.243,0,0,1,.134.414L304.427,5.87a.242.242,0,0,0-.07.215l.5,2.941a.243.243,0,0,1-.352.256l-2.641-1.388a.242.242,0,0,0-.226,0L299,9.281a.243.243,0,0,1-.352-.256l.5-2.941a.243.243,0,0,0-.07-.215l-2.137-2.083a.243.243,0,0,1,.134-.414l2.953-.429a.243.243,0,0,0,.183-.133L301.538.136a.243.243,0,0,1,.435,0Z" transform="translate(-259.739 0)" fill="#f1ca50"/>
    <path id="Path_61" data-name="Path 61" d="M172.273,449.047a2.285,2.285,0,0,1,2.285-2.285h2.811v3.657a.914.914,0,0,1-.914.914h-1.9A2.285,2.285,0,0,1,172.273,449.047Zm-7.176,0a2.286,2.286,0,0,0-2.286-2.285H160v3.657a.914.914,0,0,0,.914.914h1.9A2.286,2.286,0,0,0,165.1,449.047Z" transform="translate(-135.378 -405.919)" fill="#e3ac6e"/>
    <path id="Path_62" data-name="Path 62" d="M275.485,422.743a.914.914,0,0,1-.914.914h-.914v.914a.914.914,0,1,1-1.828,0v-.914h-.914a.914.914,0,1,1,0-1.828h.914v-.914a.914.914,0,1,1,1.828,0v.914h.914A.914.914,0,0,1,275.485,422.743Z" transform="translate(-235.322 -381.604)" fill="#fdf7bd"/>
    <path id="Path_63" data-name="Path 63" d="M405.485,162.743a.914.914,0,0,1-.914.914h-.914v.914a.914.914,0,0,1-1.828,0v-.914h-.914a.914.914,0,1,1,0-1.828h.914v-.914a.914.914,0,1,1,1.828,0v.914h.914A.914.914,0,0,1,405.485,162.743Z" transform="translate(-353.438 -145.373)" fill="#fdf7bd"/>
    <path id="Path_64" data-name="Path 64" d="M125.485,2.743a.914.914,0,0,1-.914.914h-.914v.914a.914.914,0,1,1-1.828,0V3.657h-.914a.914.914,0,0,1,0-1.828h.914V.914a.914.914,0,1,1,1.828,0v.914h.914A.914.914,0,0,1,125.485,2.743Z" transform="translate(-99.035)" fill="#fd4fb6"/>
  </g>
</svg>
