<svg id="Layer_1" enable-background="new 0 0 511 511" height="512" viewBox="0 0 511 511" width="512" xmlns="http://www.w3.org/2000/svg"><g><path d="m255.463 0c-107.764.015-199.94 66.747-237.474 161.141-.116.292-.232.584-.347.877-19.175 48.751-1.593 104.292 41.859 133.555l146.444 115.363c63.186 49.776 149.829 58.916 221.25 21.914 14.895-7.717 27.215-16.483 34.671-26.677 31.05-42.455 49.316-94.85 49.132-151.519-.455-140.315-115.221-254.674-255.535-254.654z" fill="#00b7f0"/><g fill="#0091c8"><ellipse cx="322.663" cy="411.488" rx="10.05" ry="10.05" transform="matrix(.383 -.924 .924 .383 -180.98 552.121)"/><path d="m325.13 308.491c1.788 1.793 41.93 42.048 43.751 43.436 15.798 12.413 39.887 4.936 45.271-15.21l25.032-93.665c20.961-22.606 40.381-49.116 56.077-76.022-19.905-53.927-57.486-99.284-105.711-129.065-20.286 10.717-40.602 23.723-59.379 37.948-17.676 13.388-28.612 23.748-29.752 24.731l-96.54 25.801c-21.39 5.716-28.393 32.4-12.861 47.934l21.199 21.199 20.864 20.864c-.034 6.558.66 12.704 2.073 18.849l-30.911 30.911c-20.383-1.203-41.168 5.967-56.742 21.541-7.281 7.281-19.485 4.815-23.623-4.613-.265-.603-.539-1.201-.824-1.794-.088-.183-.183-.353-.28-.519-4.002-8.141-9.785-15.247-16.872-20.775-6.941-5.412-9.787-14.718-6.795-22.995 2.343-6.481 3.417-13.569 2.918-20.967-3.201-47.439-66.148-66.266-93.834-24.978-42.137 170.418 207.563 356.716 343.481 301.322 39.33-16.029 75.714-42.545 103.973-78.251 18.963-23.961-14.235-54.126-36.294-32.981-10.965 10.51-22.874 20.051-35.586 28.491-5.167 3.43-11.681 3.444-17.221.656-4.569-2.299-9.917.829-10.398 5.708-.609 6.208-4.231 11.732-9.932 14.264-10.284 4.568-20.934 8.468-31.893 11.66-6.057 1.765-12.538-.274-16.548-5.144-.022-.027-.045-.055-.068-.082-9.57-11.563-23.279-19.78-38.532-22.553-10.272-1.867-14.346-14.358-6.964-21.741 15.574-15.574 22.744-36.359 21.541-56.742l29.933-29.933c6.836 1.812 13.988 2.754 21.447 2.715z"/><path d="m141.861 251.522c7.164 0 12.972-5.807 12.972-12.971s-5.808-12.972-12.972-12.972-12.972 5.808-12.972 12.972 5.808 12.971 12.972 12.971z"/><path d="m135.375 196.679c3.582 0 6.486-2.904 6.486-6.486s-2.904-6.486-6.486-6.486-6.486 2.904-6.486 6.486 2.904 6.486 6.486 6.486z"/></g><path d="m294.756 442.902c-9.228 1.729-18.565-2.254-24.184-9.775-9.893-13.241-24.464-22.155-40.519-25.074-10.272-1.867-14.346-14.358-6.964-21.741 28.914-28.914 28.914-75.793 0-104.707-28.914-28.914-75.793-28.914-104.707 0-7.281 7.281-19.485 4.815-23.623-4.613-4.043-9.212-10.35-17.205-18.218-23.275-6.961-5.371-9.527-14.567-6.543-22.837 2.336-6.473 3.406-13.551 2.907-20.938-1.705-25.271-22.037-45.753-47.297-47.618-2.744-.203-5.445-.184-8.091.03-11.305 28.861-17.517 60.278-17.517 93.146 0 141.109 114.391 255.5 255.5 255.5 34.001 0 66.443-6.658 96.115-18.715.113-2.383.06-4.801-.193-7.244-2.962-28.585-30.183-47.102-56.666-42.139z" fill="#fff"/><g fill="#f5f0f0"><path d="m93.936 275.198c-3.162-6.591-13.252-2.091-10.464 4.666.805 1.952 1.862 3.589 3.241 4.654 7.868 6.07 14.175 14.063 18.218 23.275 4.138 9.429 16.342 11.894 23.623 4.613 28.914-28.914 75.793-28.914 104.707 0 4.387 4.387 8.098 9.193 11.154 14.282-1.614-16.457-8.72-32.477-21.326-45.083-28.914-28.914-75.793-28.914-104.707 0-7.281 7.281-19.485 4.815-23.623-4.613-.265-.604-.539-1.202-.823-1.794z"/><path d="m233.261 417.113c-7.383 7.383-3.309 19.873 6.964 21.741 16.181 2.941 30.855 11.974 40.752 25.388 5.502 7.457 14.844 11.168 23.953 9.461 11.484-2.152 23.102.116 32.822 5.705 5.861 3.37 12.581-2.644 9.822-8.815-8.824-19.734-30.636-31.754-52.626-27.726-9.205 1.686-18.588-1.897-24.144-9.428-5.862-7.945-13.401-14.35-21.937-18.863-5.124-2.71-11.438-1.636-15.534 2.466z"/><path d="m22.284 162.194c-.543-.006-1.084-.002-1.623.009-.32.007-.642.01-.961.023-.732.028-1.46.07-2.183.128-4.742 12.106-8.575 24.668-11.442 37.592 8.618-5.026 18.83-7.624 29.705-6.821 4.429.327 8.706 1.227 12.757 2.624 10.057 3.47 18.131-8.958 11.042-16.828-.306-.335-.624-.66-.939-.987-.21-.218-.415-.44-.628-.654-.308-.309-.626-.607-.941-.908-.246-.235-.489-.472-.74-.702-.302-.277-.612-.544-.921-.814-.277-.242-.553-.487-.836-.723-.296-.248-.599-.488-.9-.729-.309-.247-.617-.494-.931-.733-.289-.221-.584-.435-.878-.65-.339-.247-.678-.493-1.023-.732-.283-.196-.57-.388-.858-.579-.367-.244-.736-.484-1.109-.718-.277-.174-.557-.345-.838-.514-.395-.237-.792-.47-1.193-.697-.271-.154-.544-.305-.818-.453-.42-.227-.843-.448-1.269-.664-.267-.135-.536-.27-.806-.401-.442-.214-.888-.42-1.337-.621-.264-.119-.528-.238-.795-.352-.463-.198-.93-.387-1.399-.572-.262-.103-.523-.208-.787-.307-.48-.18-.965-.348-1.451-.514-.262-.089-.523-.182-.788-.267-.493-.159-.992-.305-1.491-.449-.265-.076-.528-.157-.794-.23-.506-.137-1.016-.259-1.528-.381-.266-.063-.53-.133-.798-.192-.522-.115-1.05-.214-1.577-.313-.262-.049-.522-.106-.786-.151-.561-.096-1.127-.174-1.694-.251-.234-.032-.465-.072-.7-.101-.802-.098-1.608-.179-2.419-.238-.83-.061-1.655-.095-2.478-.117-.281-.008-.563-.01-.845-.013z"/></g><path d="m414.597 219.954-42.386-42.386-59.597 104.195 24.484 61.676c15.6 15.6 42.238 8.453 47.935-12.861z" fill="#8757f3"/><path d="m339.513 345.607c9.704 7.793 21.394-6.44 12.2-14.829-.338-.308-.671-.626-.999-.955-6.921-6.921-5.282-18.484 3.232-23.314.21-.119.419-.238.629-.359 28.118-16.089 48.465-42.952 56.83-74.25l3.193-11.947-42.386-42.386-86.876 86.876-13.616 13.616 44.179 44.179 21.199 21.199c.778.781 1.585 1.503 2.415 2.17z" fill="#6a2bc2"/><path d="m285.383 90.741 42.386 42.386-111.469 44.441-54.402-9.328c-15.6-15.6-8.453-42.238 12.861-47.935z" fill="#8757f3"/><path d="m159.731 165.825c-7.794-9.704 6.44-21.394 14.829-12.2.308.338.626.671.955.999 6.921 6.921 18.484 5.282 23.314-3.232.119-.21.238-.419.359-.629 16.089-28.118 42.952-48.465 74.25-56.83l11.947-3.193 42.386 42.386-86.876 86.876-13.616 13.616-44.179-44.179-21.199-21.199c-.782-.779-1.504-1.585-2.17-2.415z" fill="#6a2bc2"/><path d="m400.601 246.753c-71.639 71.639-129.517 66.371-168.464 27.424s-32.058-75.147 39.582-146.786 180.9-151.59 219.847-112.642-19.326 160.364-90.965 232.004z" fill="#fec502"/><path d="m404.54 123.608c-3.154-5.222-6.857-9.761-10.966-13.619-10.886-10.221-.686-28.359 13.551-23.851 8.837 2.798 17.039 7.698 23.817 14.476l1.105 1.105c22.024 22.024 59.783 11.835 67.494-18.342 5.906-23.112 7.157-46.138-2.818-62.117-23.518-37.593-93.417-11.548-132.794 8.728-.791.408-1.583.818-2.374 1.233-.001.001-.002.001-.004.002-36.313 19.033-73.177 45.677-101.99 74.49-71.639 71.639-66.371 129.517-27.424 168.464 6.414 6.414 13.345 11.908 20.764 16.302-13.934-23.522-16.741-51.974-2.266-84.62 10.033-22.627 40.153-28.001 57.11-9.971.432.459.872.913 1.32 1.361 26.811 26.811 72.448 23.32 94.357-10.471 12.357-19.059 12.863-43.727 1.118-63.17z" fill="#ffa50a"/><path d="m483.63 127.39c21.819-47.631 28.709-91.869 7.935-112.643s-51.116.011-98.748 21.83z" fill="#8757f3"/><path d="m467.572 92.618-13.722-13.722c-11.853-11.853-6.879-32.078 9.128-37.055 7.532-2.342 14.833-4.177 21.808-5.445 10.043-1.826 14.108-14.23 6.935-21.492-.052-.052-.103-.104-.155-.156-20.774-20.774-65.011-13.884-112.643 7.935l88.649 88.649c5.168-5.168 5.168-13.546 0-18.714z" fill="#6a2bc2"/><circle cx="361.851" cy="144.462" fill="#fff" r="60.745"/><path d="m140.458 413.231-24.967 3.206c-4.817.618-8.919-3.483-8.301-8.301l3.206-24.967c3.202-24.943 14.586-48.119 32.368-65.901 17.561-17.561 46.034-17.561 63.595 0 17.561 17.561 17.561 46.034 0 63.595-17.782 17.782-40.958 29.166-65.901 32.368z" fill="#f5f0f0"/><path d="m143.887 390.87-34.491 4.428s26.312-73.42 44.094-91.202c0 0 27.77-26.047 44.61-17.627 4.217 2.108 8.171 4.921 11.687 8.437 17.561 17.561 17.561 46.034 0 63.595-17.781 17.783-40.958 29.167-65.9 32.369z" fill="#fec502"/><path d="m392.224 174.835c-16.774 16.774-43.971 16.774-60.745 0s-9.298-34.306 7.476-51.08c14.678-14.678 29.858-26.177 46.531-15.169 2.382 1.573 4.641 3.407 6.738 5.504 16.774 16.774 16.774 43.97 0 60.745z" fill="#00b7f0"/><path d="m181.266 245.11h63.292v43.842h-63.292z" fill="#6a2bc2" transform="matrix(.707 .707 -.707 .707 251.18 -72.34)"/><path d="m244.541 329.66-34.003-34.003c-8.561-8.561-8.561-22.44 0-31.001 8.561-8.561 22.44-8.561 31.001 0l34.003 34.003z" fill="#8757f3"/><path d="m362.909 168.267c3.571-3.571 3.571-9.36 0-12.931l-13.019-13.019c-2.863-2.863-3.019-7.513-.252-10.47.078-.084.157-.167.236-.25 2.892-3.042 7.773-2.984 10.741-.016l3.939 3.939c3.444 3.444 9.049 3.852 12.708.638 4.009-3.522 4.158-9.634.444-13.347-1.647-1.647-.516-4.444 1.811-4.523.084-.003.167-.005.251-.008 6.216-.175 8.282-8.438 2.826-11.422-15.643-8.555-35.854-6.81-49.726 5.903-18.151 16.634-18.614 44.849-1.389 62.074 1.18 1.18 2.412 2.276 3.688 3.288 2.498 1.982 6.024-.459 5.029-3.489-.029-.09-.059-.18-.088-.27-1.922-5.985 5.425-10.542 9.87-6.097 3.571 3.57 9.36 3.57 12.931 0z" fill="#0091c8"/><path d="m146.192 294.907c-17.782 17.782-29.165 40.958-32.368 65.901l-4.428 34.491c6.938-.891 12.404-6.329 13.345-13.26.594-4.377 1.375-8.94 2.892-14.618 1.967-7.363 11.148-9.863 16.537-4.474l5.352 5.352c4.24 4.24 11.115 4.24 15.355 0 4.24-4.24 4.24-11.115 0-15.355l-14.633-14.633c-3.712-3.712-4.006-9.632-.681-13.694l.074-.09c3.796-4.637 10.765-4.984 15.002-.747l5.023 5.023c4.24 4.24 11.115 4.24 15.355 0 4.24-4.24 4.24-11.115 0-15.355-3.81-3.81-1.112-10.379 4.276-10.333.177.001.355.004.532.008 11.487.233 14.346-15.887 3.371-19.289-14.92-4.627-32.195-1.736-45.004 11.073z" fill="#ffa50a"/><g fill="#fff"><circle cx="293.543" cy="405.349" r="10.05"/><circle cx="332.972" cy="409.417" r="5.982"/><circle cx="112.741" cy="232.411" r="12.972"/><circle cx="106.255" cy="184.054" r="6.486"/></g></g></svg>