<svg xmlns="http://www.w3.org/2000/svg" width="46.404" height="41.82" viewBox="0 0 46.404 41.82">
  <g id="security" transform="translate(0 -25.295)">
    <g id="Group_3889" data-name="Group 3889" transform="translate(0.68 25.975)">
      <path id="Path_1049" data-name="Path 1049" d="M191.479,40.054a7.259,7.259,0,1,0-14.518,0V45.12h2.9V40.054a4.36,4.36,0,1,1,8.72,0v4.791h2.9Z" transform="translate(-161.607 -32.795)" fill="#d6d1d6"/>
      <g id="Group_3888" data-name="Group 3888" transform="translate(0 8.591)">
        <path id="Path_1050" data-name="Path 1050" d="M49.034,311.884H11.011A3.511,3.511,0,0,1,7.5,308.373v-9.664a3.511,3.511,0,0,1,3.511-3.511H49.034a3.511,3.511,0,0,1,3.511,3.511v9.664a3.511,3.511,0,0,1-3.511,3.511Z" transform="translate(-7.5 -280.013)" fill="#f3fbff"/>
        <path id="Path_1051" data-name="Path 1051" d="M15.162,309.849a3.511,3.511,0,0,1-3.511-3.511v-9.664a3.5,3.5,0,0,1,.325-1.476h-.965A3.511,3.511,0,0,0,7.5,298.708v9.664a3.511,3.511,0,0,0,3.511,3.511H49.034a3.513,3.513,0,0,0,3.187-2.036Z" transform="translate(-7.5 -280.013)" fill="#e3f6fc"/>
        <path id="Path_1052" data-name="Path 1052" d="M38.293,336.447a.794.794,0,0,1-.793-.793V325.99a.794.794,0,0,1,.793-.793H76.316a.794.794,0,0,1,.793.793v9.664a.794.794,0,0,1-.793.793H38.293Z" transform="translate(-34.782 -307.295)" fill="#cfeffc"/>
        <g id="Group_3887" data-name="Group 3887" transform="translate(2.718 17.902)">
          <path id="Path_1053" data-name="Path 1053" d="M38.932,333.62V325.2h-.639a.794.794,0,0,0-.793.793v9.664a.794.794,0,0,0,.793.793h2.07A3.505,3.505,0,0,1,38.932,333.62Z" transform="translate(-37.5 -325.197)" fill="#a9e4f9"/>
          <circle id="Ellipse_118" data-name="Ellipse 118" cx="1.497" cy="1.497" r="1.497" transform="translate(18.307 4.128)" fill="#a9e4f9"/>
          <circle id="Ellipse_119" data-name="Ellipse 119" cx="1.497" cy="1.497" r="1.497" transform="translate(12.182 4.128)" fill="#a9e4f9"/>
          <circle id="Ellipse_120" data-name="Ellipse 120" cx="1.497" cy="1.497" r="1.497" transform="translate(6.058 4.128)" fill="#a9e4f9"/>
          <circle id="Ellipse_121" data-name="Ellipse 121" cx="1.497" cy="1.497" r="1.497" transform="translate(24.431 4.128)" fill="#a9e4f9"/>
          <circle id="Ellipse_122" data-name="Ellipse 122" cx="1.497" cy="1.497" r="1.497" transform="translate(30.555 4.128)" fill="#a9e4f9"/>
        </g>
        <path id="Path_1054" data-name="Path 1054" d="M174.79,139.665H161.426a2.083,2.083,0,0,1-2.083-2.083v-7.89a2.083,2.083,0,0,1,2.083-2.083H174.79a2.083,2.083,0,0,1,2.083,2.083v7.89A2.083,2.083,0,0,1,174.79,139.665Z" transform="translate(-145.586 -127.61)" fill="#fbe88c"/>
        <path id="Path_1055" data-name="Path 1055" d="M164.292,137.753a2.083,2.083,0,0,1-2.083-2.083v-7.89c0-.058,0-.115.008-.171h-.792a2.083,2.083,0,0,0-2.083,2.083v7.89a2.083,2.083,0,0,0,2.083,2.083h13.365a2.082,2.082,0,0,0,2.075-1.912Z" transform="translate(-145.585 -127.61)" fill="#fbe372"/>
        <path id="Path_1056" data-name="Path 1056" d="M235.5,157.723a2.252,2.252,0,1,0-2.048,0l-.668,1.179a.66.66,0,0,0,.574.986H235.6a.66.66,0,0,0,.574-.986Z" transform="translate(-211.867 -151.123)" fill="#c7c0c7"/>
      </g>
    </g>
    <g id="Group_3890" data-name="Group 3890" transform="translate(0 25.295)">
      <path id="Path_1057" data-name="Path 1057" d="M42.213,287.7H4.191A4.2,4.2,0,0,0,0,291.888v9.664a4.2,4.2,0,0,0,4.191,4.191H32.505a.68.68,0,0,0,0-1.359H4.191a2.835,2.835,0,0,1-2.832-2.832v-9.664a2.835,2.835,0,0,1,2.832-2.832H42.213a2.835,2.835,0,0,1,2.832,2.832v9.664a2.835,2.835,0,0,1-2.832,2.832H35.4a.68.68,0,0,0,0,1.359h6.812a4.2,4.2,0,0,0,4.191-4.191v-9.664A4.2,4.2,0,0,0,42.213,287.7Z" transform="translate(0 -263.922)"/>
      <path id="Path_1058" data-name="Path 1058" d="M35.764,317.7H31.472A1.474,1.474,0,0,0,30,319.169v9.664a1.474,1.474,0,0,0,1.472,1.472H69.5a1.474,1.474,0,0,0,1.472-1.472v-9.664A1.474,1.474,0,0,0,69.5,317.7H38.66a.68.68,0,1,0,0,1.359H69.5a.115.115,0,0,1,.113.113v9.664a.115.115,0,0,1-.113.113H31.472a.115.115,0,0,1-.113-.113v-9.664a.115.115,0,0,1,.113-.113h4.292a.68.68,0,1,0,0-1.359Z" transform="translate(-27.282 -291.204)"/>
      <path id="Path_1059" data-name="Path 1059" d="M236.408,365.432a2.177,2.177,0,1,0-2.177,2.177A2.179,2.179,0,0,0,236.408,365.432Zm-2.995,0a.818.818,0,1,1,.818.818A.819.819,0,0,1,233.413,365.432Z" transform="translate(-211.029 -332.635)"/>
      <path id="Path_1060" data-name="Path 1060" d="M168.814,365.432a2.177,2.177,0,1,0-2.177,2.177A2.179,2.179,0,0,0,168.814,365.432Zm-2.995,0a.818.818,0,1,1,.818.818A.819.819,0,0,1,165.819,365.432Z" transform="translate(-149.559 -332.635)"/>
      <path id="Path_1061" data-name="Path 1061" d="M99.042,367.609a2.177,2.177,0,1,0-2.177-2.177A2.179,2.179,0,0,0,99.042,367.609Zm0-2.995a.818.818,0,1,1-.818.818A.819.819,0,0,1,99.042,364.614Z" transform="translate(-88.089 -332.635)"/>
      <path id="Path_1062" data-name="Path 1062" d="M304,365.432a2.177,2.177,0,1,0-2.177,2.177A2.18,2.18,0,0,0,304,365.432Zm-2.995,0a.818.818,0,1,1,.818.818A.819.819,0,0,1,301.009,365.432Z" transform="translate(-272.501 -332.635)"/>
      <path id="Path_1063" data-name="Path 1063" d="M371.6,365.432a2.177,2.177,0,1,0-2.177,2.177A2.179,2.179,0,0,0,371.6,365.432Zm-2.995,0a.818.818,0,1,1,.818.818A.819.819,0,0,1,368.6,365.432Z" transform="translate(-333.971 -332.635)"/>
      <path id="Path_1064" data-name="Path 1064" d="M154.605,47.3H167.97a2.765,2.765,0,0,0,2.762-2.762v-7.89a2.764,2.764,0,0,0-1.415-2.41v-1a7.939,7.939,0,1,0-15.878,0v.911a2.765,2.765,0,0,0-1.6,2.5v7.89a2.765,2.765,0,0,0,2.762,2.762Zm6.773-20.646a6.587,6.587,0,0,1,6.58,6.58v.652h-1.54v-.652a5.029,5.029,0,0,0-.691-2.544.68.68,0,1,0-1.172.688,3.668,3.668,0,0,1,.5,1.856v.652H157.7v-.652a3.678,3.678,0,0,1,4.99-3.438.68.68,0,1,0,.486-1.269,5.037,5.037,0,0,0-6.835,4.708v.652H154.8v-.652A6.587,6.587,0,0,1,161.378,26.654ZM153.2,36.648a1.4,1.4,0,0,1,1.4-1.4H167.97a1.4,1.4,0,0,1,1.4,1.4v7.89a1.4,1.4,0,0,1-1.4,1.4H154.605a1.4,1.4,0,0,1-1.4-1.4Z" transform="translate(-138.085 -25.295)"/>
      <path id="Path_1065" data-name="Path 1065" d="M225.735,151.111l-.36.635a1.34,1.34,0,0,0,1.165,2h2.236a1.34,1.34,0,0,0,1.165-2l-.36-.635a2.931,2.931,0,1,0-3.846,0Zm1.923-3.786a1.572,1.572,0,0,1,.714,2.973.68.68,0,0,0-.282.94l.652,1.15h-2.17l.652-1.15a.68.68,0,0,0-.281-.94,1.572,1.572,0,0,1,.715-2.973Z" transform="translate(-204.366 -135.033)"/>
    </g>
  </g>
</svg>
