<svg xmlns="http://www.w3.org/2000/svg" width="17.671" height="15.776" viewBox="0 0 17.671 15.776">
  <g id="store" transform="translate(0 -27.455)">
    <rect id="Rectangle_191" data-name="Rectangle 191" width="15.123" height="12.944" transform="translate(1.274 29.887)" fill="#e9eaeb"/>
    <rect id="Rectangle_192" data-name="Rectangle 192" width="1.92" height="12.944" transform="translate(14.477 29.887)" fill="#b9bbc1"/>
    <path id="Path_982" data-name="Path 982" d="M50.613,29.887H35.384V27.762a.307.307,0,0,1,.307-.307H50.305a.307.307,0,0,1,.307.307v2.125Z" transform="translate(-34.163 0)" fill="#fdc74f"/>
    <path id="Path_983" data-name="Path 983" d="M422.6,27.455h-1.613v1.6h1.92V27.762A.307.307,0,0,0,422.6,27.455Z" transform="translate(-406.456 0)" fill="#fca629"/>
    <path id="Path_984" data-name="Path 984" d="M1.658,145.594h0a1.26,1.26,0,0,1-1.26-1.26v-1.027H2.919v1.027A1.26,1.26,0,0,1,1.658,145.594Z" transform="translate(-0.384 -111.853)" fill="#e60d28"/>
    <path id="Path_985" data-name="Path 985" d="M74.687,145.594h0a1.26,1.26,0,0,1-1.26-1.26v-1.027h2.521v1.027A1.26,1.26,0,0,1,74.687,145.594Z" transform="translate(-70.893 -111.853)" fill="#f2f2f2"/>
    <path id="Path_986" data-name="Path 986" d="M147.716,145.594h0a1.26,1.26,0,0,1-1.26-1.26v-1.027h2.521v1.027A1.26,1.26,0,0,1,147.716,145.594Z" transform="translate(-141.401 -111.853)" fill="#e60d28"/>
    <path id="Path_987" data-name="Path 987" d="M220.745,145.594h0a1.26,1.26,0,0,1-1.26-1.26v-1.027h2.521v1.027A1.26,1.26,0,0,1,220.745,145.594Z" transform="translate(-211.91 -111.853)" fill="#f2f2f2"/>
    <path id="Path_988" data-name="Path 988" d="M293.774,145.594h0a1.26,1.26,0,0,1-1.26-1.26v-1.027h2.521v1.027A1.26,1.26,0,0,1,293.774,145.594Z" transform="translate(-282.418 -111.853)" fill="#e60d28"/>
    <path id="Path_989" data-name="Path 989" d="M366.8,145.594h0a1.26,1.26,0,0,1-1.26-1.26v-1.027h2.52v1.027A1.26,1.26,0,0,1,366.8,145.594Z" transform="translate(-352.927 -111.853)" fill="#f2f2f2"/>
    <path id="Path_990" data-name="Path 990" d="M439.832,145.594h0a1.26,1.26,0,0,1-1.26-1.26v-1.027h2.521v1.027A1.26,1.26,0,0,1,439.832,145.594Z" transform="translate(-423.435 -111.853)" fill="#e60d28"/>
    <path id="Path_991" data-name="Path 991" d="M2.919,76.2H.4L1.6,73.8H3.78Z" transform="translate(-0.384 -44.747)" fill="#fc502a"/>
    <path id="Path_992" data-name="Path 992" d="M75.948,76.2H73.427l.862-2.4h2.176Z" transform="translate(-70.893 -44.747)" fill="#fff"/>
    <path id="Path_993" data-name="Path 993" d="M148.977,76.2h-2.521l.517-2.4h2.176Z" transform="translate(-141.401 -44.747)" fill="#fc502a"/>
    <path id="Path_994" data-name="Path 994" d="M222.006,76.2h-2.521l.172-2.4h2.176Z" transform="translate(-211.91 -44.747)" fill="#fff"/>
    <path id="Path_995" data-name="Path 995" d="M290.215,76.2h-2.521l-.172-2.4H289.7Z" transform="translate(-277.599 -44.747)" fill="#fc502a"/>
    <path id="Path_996" data-name="Path 996" d="M353.6,76.2h-2.521l-.517-2.4h2.176Z" transform="translate(-338.467 -44.747)" fill="#fff"/>
    <path id="Path_997" data-name="Path 997" d="M416.991,76.2h-2.521l-.862-2.4h2.176Z" transform="translate(-399.334 -44.747)" fill="#fc502a"/>
    <path id="Path_998" data-name="Path 998" d="M17.1,438.7H.576a.576.576,0,0,0-.576.576v.843a.163.163,0,0,0,.163.163H17.508a.163.163,0,0,0,.163-.163v-.843A.576.576,0,0,0,17.1,438.7Z" transform="translate(0 -397.053)" fill="#8b8996"/>
    <path id="Path_999" data-name="Path 999" d="M457.549,438.7H456.2v1.582h1.763a.163.163,0,0,0,.163-.163v-.843A.576.576,0,0,0,457.549,438.7Z" transform="translate(-440.454 -397.053)" fill="#706f7f"/>
    <path id="Path_1000" data-name="Path 1000" d="M208.362,257.366H200.6a.229.229,0,0,1-.229-.229v-4.271a.229.229,0,0,1,.229-.229h7.763a.229.229,0,0,1,.229.229v4.272A.229.229,0,0,1,208.362,257.366Z" transform="translate(-193.454 -217.409)" fill="#00c6c8"/>
    <path id="Path_1001" data-name="Path 1001" d="M384.468,252.636h-1.7v4.73h1.7a.229.229,0,0,0,.229-.229v-4.271A.229.229,0,0,0,384.468,252.636Z" transform="translate(-369.56 -217.409)" fill="#0fb0c0"/>
    <path id="Path_1002" data-name="Path 1002" d="M69.707,259.058H66.165v-6.193a.229.229,0,0,1,.229-.229h3.083a.229.229,0,0,1,.229.229v6.193Z" transform="translate(-63.881 -217.409)" fill="#00c6c8"/>
    <path id="Path_1003" data-name="Path 1003" d="M114.676,252.636h-1.7v6.422H114.9v-6.193A.229.229,0,0,0,114.676,252.636Z" transform="translate(-109.08 -217.409)" fill="#0fb0c0"/>
    <path id="Path_1004" data-name="Path 1004" d="M132.646,329.389a.267.267,0,0,0,.267-.267v-.48a.267.267,0,1,0-.533,0v.48A.267.267,0,0,0,132.646,329.389Z" transform="translate(-127.81 -290.535)" fill="#fff"/>
  </g>
</svg>
