<svg xmlns="http://www.w3.org/2000/svg" width="60.868" height="69" viewBox="0 0 60.868 69">
  <g id="trading" transform="translate(-29.157)">
    <g id="Group_3305" data-name="Group 3305" transform="translate(29.157 22.146)">
      <path id="Path_286" data-name="Path 286" d="M38.473,166.929a1.046,1.046,0,0,1-.98-.681L35.614,161.2l-5.046,1.878a1.046,1.046,0,0,1-.73-1.96l6.026-2.243a1.046,1.046,0,0,1,1.345.615l2.243,6.026a1.047,1.047,0,0,1-.98,1.411Z" transform="translate(-29.157 -158.81)" fill="#c3aff0"/>
    </g>
    <g id="Group_3306" data-name="Group 3306" transform="translate(80.041 15.637)">
      <path id="Path_287" data-name="Path 287" d="M395.093,152.384a1.046,1.046,0,0,1-.749-1.776,26.746,26.746,0,0,0,.58-36.726,1.046,1.046,0,0,1,1.543-1.413,28.838,28.838,0,0,1-.625,39.6,1.043,1.043,0,0,1-.749.316Z" transform="translate(-394.047 -112.13)" fill="#c3aff0"/>
    </g>
    <g id="Group_3307" data-name="Group 3307" transform="translate(32.345 22.146)">
      <path id="Path_288" data-name="Path 288" d="M69.875,198.691a1.043,1.043,0,0,1-.413-.085,28.865,28.865,0,0,1-14.5-39.213,1.046,1.046,0,1,1,1.877.923,26.773,26.773,0,0,0,13.448,36.369,1.046,1.046,0,0,1-.414,2.007Z" transform="translate(-52.018 -158.808)" fill="#c3aff0"/>
    </g>
    <g id="Group_3308" data-name="Group 3308" transform="translate(77.798 47.772)">
      <path id="Path_289" data-name="Path 289" d="M381.248,350.692a1.046,1.046,0,0,1-.98-.681l-2.243-6.026a1.046,1.046,0,1,1,1.96-.73l1.878,5.046,5.046-1.878a1.046,1.046,0,0,1,.73,1.96l-6.026,2.243A1.043,1.043,0,0,1,381.248,350.692Z" transform="translate(-377.959 -342.573)" fill="#c3aff0"/>
    </g>
    <path id="Path_290" data-name="Path 290" d="M185.819,333.4,171.7,332.159,157.581,333.4v8.806a7.863,7.863,0,0,0,7.863,7.863l6.256,1.209,6.256-1.209a7.863,7.863,0,0,0,7.863-7.863Z" transform="translate(-110.515 -285.839)" fill="#918291"/>
    <path id="Path_291" data-name="Path 291" d="M290.54,341.092V349.9a7.863,7.863,0,0,1-7.863,7.863h2.93a7.863,7.863,0,0,0,7.863-7.863v-8.806Z" transform="translate(-218.166 -293.526)" fill="#7a6d79"/>
    <path id="Path_292" data-name="Path 292" d="M107.009,0h39.2a1.826,1.826,0,0,1,1.826,1.826V17.482a1.826,1.826,0,0,1-1.826,1.826h-39.2a1.826,1.826,0,0,1-1.826-1.826V1.826A1.826,1.826,0,0,1,107.009,0Z" transform="translate(-65.424)" fill="#95d6a4"/>
    <path id="Path_293" data-name="Path 293" d="M381.3,0h-2.93a1.826,1.826,0,0,1,1.826,1.826V17.482a1.826,1.826,0,0,1-1.826,1.826h2.93a1.826,1.826,0,0,0,1.826-1.826V1.826A1.826,1.826,0,0,0,381.3,0Z" transform="translate(-300.512)" fill="#78c2a4"/>
    <path id="Path_294" data-name="Path 294" d="M167.916,256.286l9.9-7.627a4.56,4.56,0,0,1,5.556-.007l9.965,7.634Z" transform="translate(-119.409 -213.168)" fill="#f4dbb3"/>
    <path id="Path_295" data-name="Path 295" d="M252.609,248.654a4.56,4.56,0,0,0-4.239-.7,4.554,4.554,0,0,1,1.309.7l9.965,7.634h2.93Z" transform="translate(-188.644 -213.17)" fill="#eac89f"/>
    <circle id="Ellipse_27" data-name="Ellipse 27" cx="8.861" cy="8.861" r="8.861" transform="translate(52.323 0.793)" fill="#edf4ff"/>
    <path id="Path_296" data-name="Path 296" d="M249.787,5.684a8.911,8.911,0,0,0-1.465.123,8.86,8.86,0,0,1,0,17.477,8.861,8.861,0,1,0,1.465-17.6Z" transform="translate(-188.602 -4.891)" fill="#dbeaff"/>
    <path id="Path_297" data-name="Path 297" d="M176.394,300.6H147.329a1.181,1.181,0,0,1-1.181-1.181v-4.2a1.181,1.181,0,0,1,1.181-1.181h29.065a1.181,1.181,0,0,1,1.181,1.181v4.2A1.181,1.181,0,0,1,176.394,300.6Z" transform="translate(-100.677 -253.036)" fill="#7a6d79"/>
    <path id="Path_298" data-name="Path 298" d="M344.96,294.04h-2.93a1.181,1.181,0,0,1,1.181,1.181v4.2a1.181,1.181,0,0,1-1.181,1.181h2.93a1.181,1.181,0,0,0,1.181-1.181v-4.2A1.181,1.181,0,0,0,344.96,294.04Z" transform="translate(-269.242 -253.036)" fill="#685e68"/>
    <path id="Path_299" data-name="Path 299" d="M218.31,465.392H204.9a.945.945,0,0,1-.9-1.221l1.086-3.543h13.049l1.086,3.543A.945.945,0,0,1,218.31,465.392Z" transform="translate(-150.418 -396.392)" fill="#7a6d79"/>
    <path id="Path_300" data-name="Path 300" d="M288.621,464.17l-1.086-3.543h-2.93l1.086,3.543a.945.945,0,0,1-.9,1.221h2.93A.945.945,0,0,0,288.621,464.17Z" transform="translate(-219.826 -396.392)" fill="#685e68"/>
    <circle id="Ellipse_28" data-name="Ellipse 28" cx="1.048" cy="1.048" r="1.048" transform="translate(74.766 8.432)" fill="#b3e59f"/>
    <circle id="Ellipse_29" data-name="Ellipse 29" cx="1.048" cy="1.048" r="1.048" transform="translate(45.423 8.275)" fill="#b3e59f"/>
    <path id="Path_301" data-name="Path 301" d="M237.418,35.724a3.836,3.836,0,0,0,1.518.641v.12a1.046,1.046,0,1,0,2.092,0v-.236a3.183,3.183,0,0,0,2.044-2.443,2.821,2.821,0,0,0-1.915-3.194,7.353,7.353,0,0,1-1.838-.848.611.611,0,0,1,.343-.835,1.275,1.275,0,0,1,1.175.174l.392.186s.986.442,1.327-.463a1.244,1.244,0,0,0-.319-1.277,3.088,3.088,0,0,0-1.21-.646V26.8a1.046,1.046,0,0,0-2.092,0v.17a2.689,2.689,0,0,0-1.721,2.058,2.422,2.422,0,0,0,.814,2.383,8.813,8.813,0,0,0,2.432,1.174.732.732,0,0,1,.549.875,1.042,1.042,0,0,1-1.034.879,1.912,1.912,0,0,1-1.412-.365,1.046,1.046,0,1,0-1.145,1.75Z" transform="translate(-178.812 -22.163)" fill="#95d6a4"/>
  </g>
</svg>
