<svg xmlns="http://www.w3.org/2000/svg" xmlns:xlink="http://www.w3.org/1999/xlink" width="45.576" height="45.576" viewBox="0 0 45.576 45.576">
  <defs>
    <linearGradient id="linear-gradient" x1="-0.044" y1="-0.118" x2="1.029" y2="1.12" gradientUnits="objectBoundingBox">
      <stop offset="0" stop-color="#9237b3"/>
      <stop offset="1" stop-color="#2fa1cb"/>
    </linearGradient>
    <linearGradient id="linear-gradient-2" x1="-1.975" y1="-2.698" x2="1.06" y2="1.186" xlink:href="#linear-gradient"/>
    <linearGradient id="linear-gradient-3" x1="-16.263" y1="-16.264" x2="6.965" y2="6.965" xlink:href="#linear-gradient"/>
    <linearGradient id="linear-gradient-4" x1="-21.983" y1="-21.983" x2="1.246" y2="1.245" xlink:href="#linear-gradient"/>
    <linearGradient id="linear-gradient-5" x1="-3.316" y1="-3.316" x2="26.915" y2="26.915" xlink:href="#linear-gradient"/>
    <linearGradient id="linear-gradient-6" x1="-13.299" y1="-13.298" x2="16.933" y2="16.933" xlink:href="#linear-gradient"/>
    <linearGradient id="linear-gradient-7" x1="-11.104" y1="-11.104" x2="3.176" y2="3.177" xlink:href="#linear-gradient"/>
    <linearGradient id="linear-gradient-8" x1="-7.306" y1="-7.307" x2="6.975" y2="6.974" xlink:href="#linear-gradient"/>
    <linearGradient id="linear-gradient-9" x1="-0.742" y1="-0.741" x2="11.772" y2="11.764" xlink:href="#linear-gradient"/>
    <linearGradient id="linear-gradient-10" x1="-6.36" y1="-6.347" x2="6.174" y2="6.162" xlink:href="#linear-gradient"/>
    <linearGradient id="linear-gradient-11" x1="-0.398" y1="-0.397" x2="1.53" y2="1.528" xlink:href="#linear-gradient"/>
    <linearGradient id="linear-gradient-12" x1="-0.37" y1="-0.286" x2="1.342" y2="1.238" xlink:href="#linear-gradient"/>
    <linearGradient id="linear-gradient-13" x1="-1.609" y1="-1.439" x2="2.488" y2="2.659" xlink:href="#linear-gradient"/>
    <linearGradient id="linear-gradient-14" x1="-17.605" y1="-3.325" x2="21.549" y2="4.95" xlink:href="#linear-gradient"/>
    <linearGradient id="linear-gradient-15" x1="-17.647" y1="-3.338" x2="21.593" y2="4.962" xlink:href="#linear-gradient"/>
    <linearGradient id="linear-gradient-16" x1="-3.869" y1="-20.141" x2="4.444" y2="19.126" xlink:href="#linear-gradient"/>
    <linearGradient id="linear-gradient-17" x1="-3.869" y1="-20.145" x2="4.444" y2="19.13" xlink:href="#linear-gradient"/>
    <linearGradient id="linear-gradient-18" x1="-5.345" y1="-5.345" x2="2.572" y2="2.572" xlink:href="#linear-gradient"/>
    <linearGradient id="linear-gradient-19" x1="-0.623" y1="-0.623" x2="1.651" y2="1.651" xlink:href="#linear-gradient"/>
    <linearGradient id="linear-gradient-20" x1="-1.042" y1="-1.042" x2="2.082" y2="2.08" xlink:href="#linear-gradient"/>
    <linearGradient id="linear-gradient-21" x1="-9.621" y1="-6.939" x2="16.499" y2="12.251" xlink:href="#linear-gradient"/>
    <linearGradient id="linear-gradient-22" x1="-1.958" y1="-1.958" x2="3.02" y2="3.019" xlink:href="#linear-gradient"/>
    <linearGradient id="linear-gradient-23" x1="-5.561" y1="-5.56" x2="6.712" y2="6.712" xlink:href="#linear-gradient"/>
    <linearGradient id="linear-gradient-24" x1="-6.857" y1="-4.257" x2="3.79" y2="2.713" xlink:href="#linear-gradient"/>
    <linearGradient id="linear-gradient-25" x1="-3.126" y1="-4.161" x2="2.03" y2="2.356" xlink:href="#linear-gradient"/>
    <linearGradient id="linear-gradient-26" x1="-2.505" y1="-22.745" x2="1.828" y2="10.773" xlink:href="#linear-gradient"/>
    <linearGradient id="linear-gradient-27" x1="-0.331" y1="-16.056" x2="1.351" y2="17.462" xlink:href="#linear-gradient"/>
    <linearGradient id="linear-gradient-28" x1="-2.621" y1="-23.64" x2="1.712" y2="9.876" xlink:href="#linear-gradient"/>
    <linearGradient id="linear-gradient-29" x1="-29.396" y1="-4.473" x2="71.294" y2="12.264" xlink:href="#linear-gradient"/>
    <linearGradient id="linear-gradient-30" x1="-7.657" y1="-3.736" x2="26.818" y2="14.157" xlink:href="#linear-gradient"/>
    <linearGradient id="linear-gradient-31" x1="-4.226" y1="-4.234" x2="17.719" y2="17.751" xlink:href="#linear-gradient"/>
    <linearGradient id="linear-gradient-32" x1="-3.721" y1="-7.626" x2="14.119" y2="26.722" xlink:href="#linear-gradient"/>
    <linearGradient id="linear-gradient-33" x1="-4.443" y1="-29.274" x2="12.18" y2="71.005" xlink:href="#linear-gradient"/>
    <linearGradient id="linear-gradient-34" x1="-12.815" y1="-6.403" x2="21.571" y2="11.417" xlink:href="#linear-gradient"/>
    <linearGradient id="linear-gradient-35" x1="-10.201" y1="-20.152" x2="7.626" y2="14.244" xlink:href="#linear-gradient"/>
    <linearGradient id="linear-gradient-36" x1="-10.966" y1="-68.761" x2="5.646" y2="31.514" xlink:href="#linear-gradient"/>
  </defs>
  <g id="uygun-fiyat" transform="translate(0 -0.004)">
    <g id="Group_4562" data-name="Group 4562" transform="translate(2.433 5.934)">
      <g id="Group_4560" data-name="Group 4560" opacity="0.2">
        <path id="Path_1787" data-name="Path 1787" d="M31.115,65.952c-8.081,7.026-16.635-.25-16.635-9.475,0-15.044,16.683-24.38,30.347-20.164,3.887,1.208,7.548,4.325,8.19,8.513.719,4.668-2.833,8.249-6.431,10.615-3.42,2.242-13.673,8.95-15.471,10.512Z" transform="translate(-14.48 -35.297)" fill="url(#linear-gradient)"/>
      </g>
      <g id="Group_4561" data-name="Group 4561" transform="translate(26.837 23.249)" opacity="0.2">
        <path id="Path_1788" data-name="Path 1788" d="M182.394,183.962c-2.366.66-5.831.56-7.562-1.472-2.016-2.366,1.2-4.586,3.235-6.026,2.447-1.729,7.827-4.826,9.472-.934,1.037,2.453-.7,5.577-2.563,7.13A6.96,6.96,0,0,1,182.394,183.962Z" transform="translate(-174.192 -173.654)" fill="url(#linear-gradient-2)"/>
      </g>
    </g>
    <g id="Group_4563" data-name="Group 4563" transform="translate(43.792 16.944)">
      <circle id="Ellipse_158" data-name="Ellipse 158" cx="0.686" cy="0.686" r="0.686" transform="translate(0.207 0.207)" fill="#fff"/>
      <path id="Path_1789" data-name="Path 1789" d="M261.5,102.6a.892.892,0,1,1,.892-.892A.892.892,0,0,1,261.5,102.6Zm0-1.373a.481.481,0,1,0,.481.481.481.481,0,0,0-.481-.481Z" transform="translate(-260.61 -100.82)" fill="url(#linear-gradient-3)"/>
    </g>
    <g id="Group_4564" data-name="Group 4564" transform="translate(39.366 41.785)">
      <circle id="Ellipse_159" data-name="Ellipse 159" cx="0.686" cy="0.686" r="0.686" transform="translate(0.207 0.207)" fill="#fff"/>
      <path id="Path_1790" data-name="Path 1790" d="M235.162,250.435a.892.892,0,1,1,.892-.892A.892.892,0,0,1,235.162,250.435Zm0-1.373a.481.481,0,1,0,.479.479.481.481,0,0,0-.479-.479Z" transform="translate(-234.27 -248.65)" fill="url(#linear-gradient-4)"/>
    </g>
    <circle id="Ellipse_160" data-name="Ellipse 160" cx="0.686" cy="0.686" r="0.686" transform="translate(0 11.784)" fill="url(#linear-gradient-5)"/>
    <circle id="Ellipse_161" data-name="Ellipse 161" cx="0.686" cy="0.686" r="0.686" transform="translate(7.121 32.039)" fill="url(#linear-gradient-6)"/>
    <path id="Path_1791" data-name="Path 1791" d="M211.51,191.136l.728.308a.2.2,0,0,1,0,.371l-.728.308a.2.2,0,0,0-.108.108l-.308.728a.2.2,0,0,1-.371,0l-.308-.728a.2.2,0,0,0-.108-.108l-.728-.308a.2.2,0,0,1,0-.371l.728-.308a.2.2,0,0,0,.108-.108l.307-.728a.2.2,0,0,1,.371,0l.308.728a.2.2,0,0,0,.108.108Z" transform="translate(-174.262 -158.218)" fill="url(#linear-gradient-7)"/>
    <path id="Path_1792" data-name="Path 1792" d="M16.513,254.916l.724.308a.2.2,0,0,1,0,.371l-.728.307a.2.2,0,0,0-.108.108l-.308.728a.2.2,0,0,1-.371,0l-.308-.728a.2.2,0,0,0-.108-.108l-.728-.307a.2.2,0,0,1,0-.371l.728-.308a.2.2,0,0,0,.108-.108l.309-.728a.2.2,0,0,1,.371,0l.311.724A.2.2,0,0,0,16.513,254.916Z" transform="translate(-12.029 -211.281)" fill="url(#linear-gradient-8)"/>
    <g id="Group_4565" data-name="Group 4565" transform="translate(7.603 0.004)">
      <path id="Path_1793" data-name="Path 1793" d="M48.51,2.229l.728.308a.2.2,0,0,1,0,.376l-.728.3a.2.2,0,0,0-.108.108l-.308.728a.2.2,0,0,1-.371,0l-.308-.728a.2.2,0,0,0-.108-.108l-.728-.3a.2.2,0,0,1,0-.371l.728-.308a.2.2,0,0,0,.108-.108l.309-.726a.2.2,0,0,1,.37,0l.3.721a.2.2,0,0,0,.113.108Z" transform="translate(-46.254 -1.065)" fill="#fff"/>
      <path id="Path_1794" data-name="Path 1794" d="M46.9,3.318a.407.407,0,0,1-.376-.249l-.313-.729-.719-.3a.408.408,0,0,1,0-.751l.719-.308.3-.726a.408.408,0,0,1,.751,0l.316.726.726.306a.408.408,0,0,1,0,.751l-.728.308-.3.726A.407.407,0,0,1,46.9,3.318Zm0-2.905-.3.728a.4.4,0,0,1-.217.217l-.728.308.728.3a.4.4,0,0,1,.217.223l.308.728.3-.728a.408.408,0,0,1,.217-.217l.729-.308-.729-.306a.407.407,0,0,1-.217-.217Z" transform="translate(-45.244 -0.004)" fill="url(#linear-gradient-9)"/>
    </g>
    <g id="Group_4566" data-name="Group 4566" transform="translate(10.15 34.608)">
      <path id="Path_1795" data-name="Path 1795" d="M63.67,208.126l.728.308a.2.2,0,0,1,0,.371l-.728.308a.2.2,0,0,0-.108.108l-.308.728a.2.2,0,0,1-.371,0l-.308-.728a.2.2,0,0,0-.108-.108l-.728-.308a.2.2,0,0,1,0-.371l.728-.308a.2.2,0,0,0,.108-.108l.308-.728a.2.2,0,0,1,.371,0l.308.728A.2.2,0,0,0,63.67,208.126Z" transform="translate(-61.414 -206.962)" fill="#fff"/>
      <path id="Path_1796" data-name="Path 1796" d="M62.06,209.254a.4.4,0,0,1-.38-.249l-.308-.728-.721-.311a.408.408,0,0,1,0-.751l.728-.308.3-.719a.407.407,0,0,1,.749,0l.308.726.726.306a.408.408,0,0,1,0,.751l-.728.308-.3.724a.407.407,0,0,1-.371.25Zm0-2.905-.3.728a.408.408,0,0,1-.222.218l-.729.308.728.3a.408.408,0,0,1,.217.217l.308.728.3-.728a.408.408,0,0,1,.217-.217l.729-.308-.726-.3a.407.407,0,0,1-.217-.217Z" transform="translate(-60.404 -205.94)" fill="url(#linear-gradient-10)"/>
    </g>
    <g id="Group_4571" data-name="Group 4571" transform="translate(4.7 1.529)">
      <path id="Path_1797" data-name="Path 1797" d="M85.4,67.6a11.885,11.885,0,0,1-4.8,10.237A4.934,4.934,0,0,0,78.725,80.9l-.247,1.311a1.176,1.176,0,0,1-1.148.951H69.7a1.176,1.176,0,0,1-1.148-.951L68.308,80.9a5.041,5.041,0,0,0-1.921-3.1A11.9,11.9,0,1,1,85.4,67.6Z" transform="translate(-55.964 -48.43)" fill="#fff"/>
      <path id="Path_1798" data-name="Path 1798" d="M82.986,61.229a11.719,11.719,0,0,0-6.241-2.28A11.89,11.89,0,0,0,66.4,77.872c-.042-.034-.082-.066-.128-.1A11.892,11.892,0,1,1,82.986,61.229Z" transform="translate(-55.853 -48.401)" opacity="0.5" fill="url(#linear-gradient-11)"/>
      <path id="Path_1799" data-name="Path 1799" d="M76.316,82.322H68.689A1.375,1.375,0,0,1,67.344,81.2L67.1,79.889a4.818,4.818,0,0,0-1.848-2.973A12.011,12.011,0,0,1,60.4,67.231a12.1,12.1,0,1,1,19.314,9.731A4.705,4.705,0,0,0,77.919,79.9l-.247,1.311a1.373,1.373,0,0,1-1.356,1.112ZM72.493,55.541a11.692,11.692,0,0,0-7,21.05,5.228,5.228,0,0,1,2,3.226l.247,1.314a.961.961,0,0,0,.944.783h7.627a.961.961,0,0,0,.944-.783l.247-1.313a5.122,5.122,0,0,1,1.954-3.193,11.691,11.691,0,0,0-6.209-21.062Q72.875,55.541,72.493,55.541Z" transform="translate(-54.95 -47.384)" fill="url(#linear-gradient-12)"/>
      <g id="Group_4567" data-name="Group 4567" transform="translate(27.299)">
        <path id="Path_1800" data-name="Path 1800" d="M201.145,15.724l-3.922,3.92a1.166,1.166,0,0,1-.986.336l-4-.563-.565-4.008a1.166,1.166,0,0,1,.336-.986l3.912-3.924a.749.749,0,0,1,1.27.425l.435,3.094,3.094.435a.749.749,0,0,1,.43,1.27Z" transform="translate(-191.451 -10.08)" fill="#fff"/>
        <path id="Path_1801" data-name="Path 1801" d="M195.376,19.195a1.344,1.344,0,0,1-.188-.013l-4-.563a.207.207,0,0,1-.168-.168l-.57-4.008a1.381,1.381,0,0,1,.388-1.161l3.922-3.922a.954.954,0,0,1,1.622.543l.413,2.939,2.941.413a.954.954,0,0,1,.543,1.615l-3.924,3.922a1.381,1.381,0,0,1-.975.4Zm-3.982-.963,3.851.541a.97.97,0,0,0,.812-.272l3.924-3.924a.543.543,0,0,0-.307-.921l-3.1-.434a.207.207,0,0,1-.168-.168l-.435-3.094a.543.543,0,0,0-.921-.308l-3.927,3.914a.966.966,0,0,0-.272.813Z" transform="translate(-190.433 -9.079)" fill="url(#linear-gradient-13)"/>
      </g>
      <path id="Path_1802" data-name="Path 1802" d="M199.464,32.441a.207.207,0,0,1-.2-.178l-.644-4.581a.207.207,0,1,1,.408-.057l.644,4.581a.207.207,0,0,1-.168.234Z" transform="translate(-169.939 -24.349)" fill="url(#linear-gradient-14)"/>
      <path id="Path_1803" data-name="Path 1803" d="M205.336,26.662a.207.207,0,0,1-.2-.178l-.644-4.581a.2.2,0,1,1,.4-.066l.65,4.591a.207.207,0,0,1-.168.234Z" transform="translate(-174.826 -19.553)" fill="url(#linear-gradient-15)"/>
      <path id="Path_1804" data-name="Path 1804" d="M207.286,55.885h-.029l-4.581-.644a.2.2,0,1,1,.066-.4l4.581.644a.207.207,0,0,1-.029.41Z" transform="translate(-173.179 -47.149)" fill="url(#linear-gradient-16)"/>
      <path id="Path_1805" data-name="Path 1805" d="M221.7,41.476h-.029l-4.581-.644a.207.207,0,0,1-.168-.234.21.21,0,0,1,.234-.168l4.581.644a.207.207,0,0,1-.029.41Z" transform="translate(-185.167 -35.161)" fill="url(#linear-gradient-17)"/>
      <g id="Group_4568" data-name="Group 4568" transform="translate(14.933 37.502)">
        <circle id="Ellipse_162" data-name="Ellipse 162" cx="2.411" cy="2.411" r="2.411" transform="translate(0.208 0.207)" fill="#fff"/>
        <path id="Path_1806" data-name="Path 1806" d="M119.46,237.5a2.618,2.618,0,1,1,2.616-2.617A2.618,2.618,0,0,1,119.46,237.5Zm0-4.823a2.2,2.2,0,1,0,2.2,2.2A2.2,2.2,0,0,0,119.46,232.673Z" transform="translate(-116.84 -232.26)" fill="url(#linear-gradient-18)"/>
      </g>
      <g id="Group_4569" data-name="Group 4569" transform="translate(8.439 10.734)">
        <path id="Path_1807" data-name="Path 1807" d="M88.326,74.19A8.906,8.906,0,1,0,97.232,83.1,8.906,8.906,0,0,0,88.326,74.19Z" transform="translate(-79.213 -73.983)" fill="#fff"/>
        <path id="Path_1808" data-name="Path 1808" d="M87.3,91.188a9.114,9.114,0,1,1,9.116-9.115A9.114,9.114,0,0,1,87.3,91.188Zm0-17.812a8.7,8.7,0,1,0,8.7,8.7,8.7,8.7,0,0,0-8.7-8.7Z" transform="translate(-78.19 -72.96)" fill="url(#linear-gradient-19)"/>
      </g>
      <path id="Path_1809" data-name="Path 1809" d="M99.558,100.976a6.644,6.644,0,0,1-6.574-7.562.21.21,0,0,1,.232-.168.207.207,0,0,1,.168.232,6.217,6.217,0,1,0,3.2-4.616.207.207,0,1,1-.2-.363,6.639,6.639,0,1,1,3.159,12.478Z" transform="translate(-82.007 -74.488)" fill="url(#linear-gradient-20)"/>
      <path id="Path_1810" data-name="Path 1810" d="M96.546,101.885a.207.207,0,0,1-.188-.292,6.626,6.626,0,0,1,1.222-1.813.207.207,0,0,1,.3.284,6.217,6.217,0,0,0-1.144,1.7A.207.207,0,0,1,96.546,101.885Z" transform="translate(-84.851 -84.493)" fill="url(#linear-gradient-21)"/>
      <path id="Path_1811" data-name="Path 1811" d="M111.812,110.768a4.164,4.164,0,1,1,4.166-4.165A4.164,4.164,0,0,1,111.812,110.768Zm0-7.916a3.752,3.752,0,1,0,3.754,3.749,3.752,3.752,0,0,0-3.754-3.749Z" transform="translate(-94.261 -86.752)" fill="url(#linear-gradient-22)"/>
      <g id="Group_4570" data-name="Group 4570" transform="translate(15.866 18.16)">
        <path id="Path_1812" data-name="Path 1812" d="M126.574,119.86a1.482,1.482,0,1,1-1.485-1.48A1.482,1.482,0,0,1,126.574,119.86Z" transform="translate(-123.405 -118.173)" fill="#fff"/>
        <path id="Path_1813" data-name="Path 1813" d="M124.075,120.528a1.689,1.689,0,1,1,1.692-1.69A1.689,1.689,0,0,1,124.075,120.528Zm0-2.966a1.275,1.275,0,1,0,.9.372A1.277,1.277,0,0,0,124.075,117.562Z" transform="translate(-122.39 -117.15)" fill="url(#linear-gradient-23)"/>
      </g>
      <path id="Path_1814" data-name="Path 1814" d="M109.73,215.8h7.627v4.253a1.694,1.694,0,0,1-1.7,1.7h-4.231a1.694,1.694,0,0,1-1.694-1.694V215.8Z" transform="translate(-95.992 -181.064)" fill="#fff"/>
      <path id="Path_1815" data-name="Path 1815" d="M113.633,221.757h-2.2a1.694,1.694,0,0,1-1.69-1.7V215.81h2.2v4.253a1.7,1.7,0,0,0,1.7,1.694Z" transform="translate(-96 -181.072)" opacity="0.5" fill="url(#linear-gradient-24)"/>
      <path id="Path_1816" data-name="Path 1816" d="M114.642,220.93H110.41a1.9,1.9,0,0,1-1.9-1.9v-4.253a.207.207,0,0,1,.207-.207h7.627a.207.207,0,0,1,.207.207v4.253a1.9,1.9,0,0,1-1.909,1.9Zm-5.713-5.952v4.046a1.49,1.49,0,0,0,1.489,1.489h4.224a1.49,1.49,0,0,0,1.487-1.489v-4.046Z" transform="translate(-94.977 -180.04)" fill="url(#linear-gradient-25)"/>
      <rect id="Rectangle_627" data-name="Rectangle 627" width="9.566" height="1.237" rx="0.618" transform="translate(12.769 35.787)" fill="url(#linear-gradient-26)"/>
      <rect id="Rectangle_628" data-name="Rectangle 628" width="24.646" height="1.237" rx="0.618" transform="translate(16.772 19.762) rotate(-45)" fill="url(#linear-gradient-27)"/>
      <rect id="Rectangle_629" data-name="Rectangle 629" width="9.566" height="1.237" rx="0.618" transform="translate(12.769 38.003)" fill="url(#linear-gradient-28)"/>
      <path id="Path_1817" data-name="Path 1817" d="M131.407,25.218a.207.207,0,0,1-.207-.207V22.929a.207.207,0,0,1,.412,0v2.082A.207.207,0,0,1,131.407,25.218Z" transform="translate(-113.854 -20.445)" fill="url(#linear-gradient-29)"/>
      <path id="Path_1818" data-name="Path 1818" d="M92.684,32.93a.207.207,0,0,1-.19-.128l-.8-1.922a.207.207,0,0,1,.38-.158l.8,1.922a.207.207,0,0,1-.111.269.2.2,0,0,1-.079.017Z" transform="translate(-80.98 -26.995)" fill="url(#linear-gradient-30)"/>
      <path id="Path_1819" data-name="Path 1819" d="M59.8,54.785a.205.205,0,0,1-.146-.06L58.18,53.253a.207.207,0,1,1,.292-.292l1.475,1.469a.207.207,0,0,1-.146.353Z" transform="translate(-53.054 -45.536)" fill="url(#linear-gradient-31)"/>
      <path id="Path_1820" data-name="Path 1820" d="M37.9,87.655a.2.2,0,0,1-.079-.015l-1.924-.8a.207.207,0,0,1,.158-.381l1.922.8a.207.207,0,0,1-.079.4Z" transform="translate(-34.465 -73.447)" fill="url(#linear-gradient-32)"/>
      <path id="Path_1821" data-name="Path 1821" d="M30.239,126.388h-2.08a.207.207,0,0,1,0-.412h2.08a.207.207,0,1,1,0,.412Z" transform="translate(-27.971 -106.332)" fill="url(#linear-gradient-33)"/>
      <path id="Path_1822" data-name="Path 1822" d="M166.213,32.883a.2.2,0,0,1-.079-.015.207.207,0,0,1-.111-.269l.8-1.924a.207.207,0,0,1,.381.158l-.8,1.924A.207.207,0,0,1,166.213,32.883Z" transform="translate(-142.813 -26.947)" fill="url(#linear-gradient-34)"/>
      <path id="Path_1823" data-name="Path 1823" d="M215.44,87.663a.207.207,0,0,1-.079-.4l1.924-.8a.207.207,0,0,1,.158.381l-1.924.8a.2.2,0,0,1-.079.015Z" transform="translate(-183.768 -73.456)" fill="url(#linear-gradient-35)"/>
      <path id="Path_1824" data-name="Path 1824" d="M224.336,126.388h-2.082a.207.207,0,1,1,0-.412h2.082a.207.207,0,0,1,0,.412Z" transform="translate(-189.421 -106.332)" fill="url(#linear-gradient-36)"/>
    </g>
  </g>
</svg>
