<svg xmlns="http://www.w3.org/2000/svg" width="47.422" height="46.404" viewBox="0 0 47.422 46.404">
  <g id="vitrin" transform="translate(0.001 -5.5)">
    <path id="Path_65" data-name="Path 65" d="M11,39.192a22.692,22.692,0,1,1,34.631,19.3,22.713,22.713,0,0,0-23.878,0A22.678,22.678,0,0,1,11,39.192Z" transform="translate(-9.982 -9.981)" fill="#00315e"/>
    <path id="Path_66" data-name="Path 66" d="M10.3,43.793c-.025.031-3.006,3.494-4.614,3.507-1.608-.013-4.589-3.475-4.614-3.507-3.11-3.842,1.2-7.893,4.614-5.18C9.1,35.9,13.41,39.95,10.3,43.793ZM14.38,15.5A5.118,5.118,0,1,0,19.5,20.618,5.118,5.118,0,0,0,14.38,15.5Z" transform="translate(0 -9.074)" fill="#fd2aa7"/>
    <path id="Path_67" data-name="Path 67" d="M8.657,51.273c-.963.892-2.147,1.8-2.971,1.812-1.608-.013-4.589-3.475-4.614-3.507C-.909,47.13.119,44.6,2.009,43.784A6.133,6.133,0,0,0,7.976,51.31,6.234,6.234,0,0,0,8.657,51.273Zm7.862-21.891a5.12,5.12,0,0,1-4.528-7.507,5.119,5.119,0,1,0,6.917,6.916A5.094,5.094,0,0,1,16.519,29.382Z" transform="translate(0 -14.858)" fill="#b1529e"/>
    <path id="Path_68" data-name="Path 68" d="M137.637,46.521v-3.6a.658.658,0,0,1,1.016-.553l2.785,1.8a.658.658,0,0,1,0,1.106l-2.785,1.8A.658.658,0,0,1,137.637,46.521Z" transform="translate(-124.889 -33.357)" fill="#fff5f5"/>
    <path id="Path_69" data-name="Path 69" d="M48,148.477a2.977,2.977,0,0,1,2.977-2.977H62.806a2.977,2.977,0,0,1,0,5.954H50.977A2.977,2.977,0,0,1,48,148.477Z" transform="translate(-43.555 -127.033)" fill="#ececf1"/>
    <path id="Path_70" data-name="Path 70" d="M76.429,148.477a2.977,2.977,0,0,1,2.977-2.977h9.2a2.977,2.977,0,1,1,0,5.954h-9.2A2.977,2.977,0,0,1,76.429,148.477Z" transform="translate(-69.351 -127.033)" fill="#fff5f5"/>
    <path id="Path_71" data-name="Path 71" d="M70,171.809a.6.6,0,0,1,.6-.6H83.3a.6.6,0,1,1,0,1.191H70.6A.6.6,0,0,1,70,171.809Z" transform="translate(-63.517 -150.365)" fill="#d3d3d8"/>
    <path id="Path_72" data-name="Path 72" d="M101.852,168.569a.926.926,0,1,1-.926-.926A.926.926,0,0,1,101.852,168.569Z" transform="translate(-90.738 -147.125)" fill="#aba4d5"/>
    <path id="Path_73" data-name="Path 73" d="M391.366,308.477a2.977,2.977,0,0,1-2.977,2.977h-3.025l-.753,1.882a.8.8,0,0,1-1.519-.139l-.348-1.742h-.714a2.977,2.977,0,1,1,0-5.954h6.36A2.977,2.977,0,0,1,391.366,308.477Z" transform="translate(-343.944 -272.213)" fill="#463b83"/>
    <path id="Path_74" data-name="Path 74" d="M367.429,9.714A4.214,4.214,0,1,1,363.214,5.5,4.214,4.214,0,0,1,367.429,9.714Z" transform="translate(-325.749 0)" fill="#f1ca50"/>
    <path id="Path_75" data-name="Path 75" d="M380.241,9.714a4.2,4.2,0,0,1-.935,2.647,4.653,4.653,0,0,1-5.926-5.926,4.214,4.214,0,0,1,6.861,3.28Z" transform="translate(-338.561)" fill="#fded32"/>
    <path id="Path_76" data-name="Path 76" d="M385.143,36.723V36.9a1.6,1.6,0,0,1-3.2,0v-.122a.314.314,0,0,1,.314-.314h2.625A.259.259,0,0,1,385.143,36.723Zm-2.4-1.857a.654.654,0,0,0-1.308,0,.218.218,0,0,0,.218.218h.872A.218.218,0,0,0,382.745,34.866ZM385,34.212a.655.655,0,0,0-.654.654.218.218,0,0,0,.218.218h.872a.218.218,0,0,0,.218-.218A.655.655,0,0,0,385,34.212Z" transform="translate(-346.108 -26.053)" fill="#cd9e00"/>
    <path id="Path_77" data-name="Path 77" d="M388.962,60.505a1.6,1.6,0,0,1-2.035-1.538v-.145a.291.291,0,0,1,.291-.291h.581v.436A1.6,1.6,0,0,0,388.962,60.505Z" transform="translate(-351.09 -48.119)" fill="#c98001"/>
    <path id="Path_78" data-name="Path 78" d="M297.783,210.62a2.977,2.977,0,0,1-2.977,2.977h-.714l-.348,1.742a.8.8,0,0,1-1.519.139l-.753-1.882h-8.495a2.977,2.977,0,0,1,0-5.954h11.829A2.977,2.977,0,0,1,297.783,210.62Z" transform="translate(-254.066 -183.42)" fill="#fdf061"/>
    <path id="Path_79" data-name="Path 79" d="M372.411,224.9h-5.764a.6.6,0,0,1,0-1.191h5.764a.6.6,0,0,1,0,1.191Zm0,.6a.6.6,0,1,0,.6.6A.6.6,0,0,0,372.411,225.5Zm-2.084,0a.6.6,0,1,0,.6.6A.6.6,0,0,0,370.327,225.5Zm-2.084,0a.6.6,0,1,0,.6.6A.6.6,0,0,0,368.243,225.5Z" transform="translate(-332.147 -198.002)" fill="#fda800"/>
    <path id="Path_80" data-name="Path 80" d="M375.359,153.237a.6.6,0,1,1-.6-.6A.6.6,0,0,1,375.359,153.237Zm-2.679-.6a.6.6,0,1,0,.6.6A.6.6,0,0,0,372.679,152.642Zm-2.084,0a.6.6,0,1,0,.6.6A.6.6,0,0,0,370.6,152.642Z" transform="translate(-335.73 -133.513)" fill="#d3f1f5"/>
    <path id="Path_81" data-name="Path 81" d="M260,86.1a.6.6,0,0,1,.6-.6h7.145a.6.6,0,1,1,0,1.191h-7.145A.6.6,0,0,1,260,86.1Zm7.741,4.3h-7.145a.6.6,0,1,0,0,1.191h7.145a.6.6,0,1,0,0-1.191Zm5.557-2.448h-12.7a.6.6,0,1,0,0,1.191h12.7a.6.6,0,1,0,0-1.191Z" transform="translate(-235.918 -72.59)" fill="#0db2cc"/>
    <path id="Path_82" data-name="Path 82" d="M160.36,138.927a9.763,9.763,0,0,1-9.763-9.763V118.929a9.763,9.763,0,0,1,19.525,0v10.236A9.763,9.763,0,0,1,160.36,138.927Z" transform="translate(-136.649 -94.064)" fill="#463b83"/>
    <path id="Path_83" data-name="Path 83" d="M162.248,138.745a9.771,9.771,0,0,1-11.651-9.58V118.929a9.771,9.771,0,0,1,11.651-9.58,9.766,9.766,0,0,0-7.874,9.58v10.236A9.766,9.766,0,0,0,162.248,138.745Z" transform="translate(-136.649 -94.064)" fill="#013f69"/>
    <path id="Path_84" data-name="Path 84" d="M416.388,311.454h-3.5a2.977,2.977,0,1,1,0-5.954h3.5a2.977,2.977,0,0,1,0,5.954Z" transform="translate(-371.943 -272.213)" fill="#6354b0"/>
    <path id="Path_85" data-name="Path 85" d="M416.863,322.167a.6.6,0,0,1-.6.6H410.5a.6.6,0,1,1,0-1.191h5.764A.6.6,0,0,1,416.863,322.167Zm-6.36,1.191a.6.6,0,1,0,.6.6A.6.6,0,0,0,410.5,323.357Zm2.084,0a.6.6,0,1,0,.6.6A.6.6,0,0,0,412.588,323.357Zm2.084,0a.6.6,0,1,0,.6.6A.6.6,0,0,0,414.672,323.357Z" transform="translate(-371.942 -286.796)" fill="#c1bbdf"/>
    <path id="Path_86" data-name="Path 86" d="M128,366.427a22.635,22.635,0,0,1-2.483-1.357v-5.311a5.287,5.287,0,0,1,5.287-5.287h13.6a5.287,5.287,0,0,1,5.287,5.287v5.311c-.746.47-18.744.462-18.744.462a5.262,5.262,0,0,0-2.943.894Z" transform="translate(-113.894 -316.65)" fill="#c265ae"/>
    <path id="Path_87" data-name="Path 87" d="M171.89,359.759v5.311a22.6,22.6,0,0,1-4.554,2.2c-.24-.033-13.43.085-14.042.332a22.531,22.531,0,0,1-3.309-1.281v-6.565a5.287,5.287,0,0,1,5.287-5.287H166.6A5.287,5.287,0,0,1,171.89,359.759Z" transform="translate(-136.094 -316.65)" fill="#fd4fb6"/>
    <path id="Path_88" data-name="Path 88" d="M327.206,236.677a1.888,1.888,0,0,1-1.888-1.888v-.755a1.888,1.888,0,1,1,3.777,0v.755A1.888,1.888,0,0,1,327.206,236.677Z" transform="translate(-295.187 -205.653)" fill="#d89c56"/>
    <path id="Path_89" data-name="Path 89" d="M164.413,134.44v3.021a8.31,8.31,0,0,1-16.081,2.944,1.89,1.89,0,0,1-2.425-1.811v-.755a1.888,1.888,0,0,1,1.888-1.888V134.44a8.309,8.309,0,0,1,16.617,0Z" transform="translate(-132.393 -109.458)" fill="#e3ac6e"/>
    <path id="Path_90" data-name="Path 90" d="M157.663,136.969a.7.7,0,0,1,0,.982,2.208,2.208,0,0,1-3.119,0,.695.695,0,1,1,.982-.982.817.817,0,0,0,1.154,0A.7.7,0,0,1,157.663,136.969Zm-9.868-1.019a1.888,1.888,0,0,0-1.888,1.888v.755a1.888,1.888,0,0,0,1.888,1.888,1.885,1.885,0,0,1-.755-1.511V137.46A1.885,1.885,0,0,1,147.8,135.949Zm2.266,1.511v-3.021a8.31,8.31,0,0,1,7.176-8.232,8.315,8.315,0,0,0-9.442,8.232v3.021a8.315,8.315,0,0,0,9.442,8.232A8.31,8.31,0,0,1,150.061,137.46Zm8.8,2.972a.7.7,0,0,0-.982,0,2.513,2.513,0,0,1-3.549,0,.695.695,0,0,0-.982.982,3.9,3.9,0,0,0,5.515,0A.7.7,0,0,0,158.861,140.432Z" transform="translate(-132.393 -109.457)" fill="#d89c56"/>
    <path id="Path_91" data-name="Path 91" d="M171.508,443.506a.926.926,0,0,1,.926-.926h4.237a.926.926,0,1,1,0,1.852h-4.237A.926.926,0,0,1,171.508,443.506Zm-5.418,0a.926.926,0,0,0-.926-.926h-4.237a.926.926,0,1,0,0,1.852h4.237A.926.926,0,0,0,166.09,443.506Z" transform="translate(-145.181 -396.597)" fill="#d89c56"/>
    <path id="Path_92" data-name="Path 92" d="M207.3,210.852a1.133,1.133,0,1,1-1.133-1.133A1.133,1.133,0,0,1,207.3,210.852Zm6.043-1.133a1.133,1.133,0,1,0,1.133,1.133A1.133,1.133,0,0,0,213.339,209.719Z" transform="translate(-186.04 -185.304)" fill="#463b83"/>
    <path id="Path_93" data-name="Path 93" d="M220.436,210.286a.566.566,0,1,1-.566-.566A.566.566,0,0,1,220.436,210.286Zm6.609-.566a.566.566,0,1,0,.566.566A.566.566,0,0,0,227.045,209.72Z" transform="translate(-198.991 -185.305)" fill="#fff5f5"/>
    <path id="Path_94" data-name="Path 94" d="M185.389,126.563a8.315,8.315,0,0,1-5.41-3.683,10.8,10.8,0,0,1-10.8,3.111c0-3.738,4.177-6.86,8.042-6.86C181.287,119.131,185.528,122.623,185.389,126.563Z" transform="translate(-153.509 -103.106)" fill="#463b83"/>
    <path id="Path_95" data-name="Path 95" d="M171.245,125.464a10.752,10.752,0,0,1-2.068-.354c0-3.655,3.908-6.932,7.866-6.95A8.877,8.877,0,0,0,171.245,125.464Z" transform="translate(-153.508 -102.226)" fill="#013f69"/>
    <path id="Path_96" data-name="Path 96" d="M185.1,300.054v1.01a.927.927,0,0,1,.65.884v.926a.927.927,0,0,1-.65.884v8.254a22.814,22.814,0,0,1-14.26,0V302.87a.926.926,0,0,1-.835-.922v-3.7a.926.926,0,0,1,.835-.922V296.2a2.779,2.779,0,0,1,2.779-2.779h8.7A2.779,2.779,0,0,1,185.1,296.2v1.161a.927.927,0,0,1,.65.884v.926A.927.927,0,0,1,185.1,300.054Z" transform="translate(-154.255 -261.252)" fill="#ececf1"/>
    <path id="Path_97" data-name="Path 97" d="M212.317,296.2v8.547a6.1,6.1,0,0,1-5.829,6.091l-.157.007A6.091,6.091,0,0,1,200,304.751V296.2a2.779,2.779,0,0,1,2.779-2.779h6.76A2.779,2.779,0,0,1,212.317,296.2Z" transform="translate(-181.476 -261.252)" fill="#fff5f5"/>
    <path id="Path_98" data-name="Path 98" d="M243.779,316.889a1.389,1.389,0,1,1-1.389-1.389A1.389,1.389,0,0,1,243.779,316.889Z" transform="translate(-218.679 -281.287)" fill="#aba4d5"/>
    <path id="Path_99" data-name="Path 99" d="M258.195,313a.695.695,0,1,1-.695.695A.695.695,0,0,1,258.195,313Z" transform="translate(-233.65 -279.019)" fill="#c1bbdf"/>
    <path id="Path_100" data-name="Path 100" d="M172.435,454.578a2.316,2.316,0,0,1,2.316-2.316H177.6v3.7a.926.926,0,0,1-.926.926H174.75A2.316,2.316,0,0,1,172.435,454.578Zm-7.271,0a2.316,2.316,0,0,0-2.316-2.316H160v3.7a.926.926,0,0,0,.926.926h1.922A2.316,2.316,0,0,0,165.164,454.578Z" transform="translate(-145.181 -405.382)" fill="#e3ac6e"/>
  </g>
</svg>
