<svg id="Layer_1" height="512" viewBox="0 0 256 256" width="512" xmlns="http://www.w3.org/2000/svg"><g><g><path d="m224.54 144.233c0 24.38-9.03 46.66-23.95 63.64-4.48 5.11-9.49 9.74-14.95 13.8-16.08 12.01-36.03 19.1-57.64 19.1s-41.56-7.09-57.64-19.1c-5.46-4.06-10.47-8.69-14.95-13.8-14.92-16.98-23.95-39.26-23.95-63.64 0-34.22 17.8-64.27 44.65-81.42 4.27-2.74 8.78-5.14 13.48-7.18 11.77-5.1 24.76-7.94 38.41-7.94s26.64 2.84 38.41 7.95c4.7 2.03 9.21 4.43 13.48 7.17 26.85 17.15 44.65 47.2 44.65 81.42z" fill="#72c2e9"/></g><g><path d="m205.13 144.233c0 42.59-34.53 77.12-77.13 77.12s-77.13-34.53-77.13-77.12c0-42.6 34.53-77.13 77.13-77.13 21.3 0 40.58 8.63 54.54 22.59s22.59 33.24 22.59 54.54z" fill="#efefef"/></g><g><path d="m182.54 89.693-27.29 27.29c-2.15-2.14-5.64-2.14-7.78 0l-16.25 16.25c-1.04-.3-2.14-.46-3.22-.46v-65.67c21.3 0 40.58 8.63 54.54 22.59z" fill="#fc5d3d"/></g><g><path d="m186.64 50.093-3.29 6.2-3.46 6.52c-4.27-2.74-8.78-5.14-13.48-7.17l2.96-5.58 3.29-6.2z" fill="#efefef"/></g><g><path d="m89.59 55.633c-4.7 2.04-9.21 4.44-13.48 7.18l-3.46-6.53-3.29-6.19 13.98-6.23 3.29 6.2z" fill="#efefef"/></g><g><g><g><path d="m186.64 50.093-3.29 6.2-13.98-6.23 3.29-6.2z" fill="#afafaf"/></g><g><path d="m212.672 38.661c0 3.785-.785 7.636-2.422 11.323l-2.16 4.865c-.982 2.203-3.567 3.196-5.77 2.214l-15.675-6.97-13.985-6.229-13.286-5.912c-2.204-.982-3.196-3.567-2.214-5.76l2.171-4.876c6.251-14.061 22.733-20.388 36.794-14.126 10.372 4.614 16.547 14.792 16.547 25.471z" fill="#72c2e9"/></g></g><g><path d="m83.34 43.863 3.29 6.2-13.98 6.22-3.29-6.19z" fill="#afafaf"/></g><g><path d="m96.627 37.952-13.286 5.912-13.985 6.229-15.675 6.97c-2.204.982-4.789-.011-5.77-2.214l-2.16-4.865c-1.636-3.687-2.422-7.538-2.422-11.323 0-10.679 6.174-20.857 16.548-25.471 14.061-6.261 30.544.065 36.794 14.126l2.171 4.876c.981 2.193-.011 4.778-2.215 5.76z" fill="#72c2e9"/></g></g><g><g><path d="m70.36 221.673-5.01 5.01-15.59 15.59c-3.97 3.97-10.41 3.97-14.38 0s-3.97-10.41 0-14.38l15.07-15.06 4.96-4.96c4.48 5.11 9.49 9.74 14.95 13.8z" fill="#878787"/></g><g><path d="m70.36 221.673-5.01 5.01c-5.42-4.12-10.41-8.76-14.9-13.85l4.96-4.96c4.48 5.11 9.49 9.74 14.95 13.8z" fill="#4c4944"/></g><g><path d="m220.62 242.273c-3.97 3.97-10.41 3.97-14.38 0l-15.59-15.59-5.01-5.01c5.46-4.06 10.47-8.69 14.95-13.8l4.96 4.96 15.07 15.06c3.97 3.97 3.97 10.41 0 14.38z" fill="#878787"/></g><g><path d="m205.55 212.833c-4.49 5.09-9.48 9.73-14.9 13.85l-5.01-5.01c5.46-4.06 10.47-8.69 14.95-13.8z" fill="#4c4944"/></g></g><g><path d="m120.88 30.773h14.24v7h-14.24z" fill="#afafaf"/></g><g><path d="m144.29 17.603v10.17c0 1.657-1.343 3-3 3h-26.58c-1.657 0-3-1.343-3-3v-10.17c0-1.657 1.343-3 3-3h26.58c1.657 0 3 1.344 3 3z" fill="#878787"/></g><g><path d="m135.12 30.773v17.19c-2.35-.18-4.72-.27-7.12-.27s-4.77.09-7.12.27v-17.19z" fill="#efefef"/></g><g><path d="m120.88 30.773h14.24v7h-14.24z" fill="#afafaf"/></g><g><path d="m128 155.693c-7.67 0-13.14-7.39-11-14.68 1.09-3.74 4.04-6.69 7.78-7.78 1.04-.3 2.13-.46 3.22-.46 1.08 0 2.18.16 3.22.46 1.87.54 3.54 1.56 4.88 2.9s2.36 3.01 2.9 4.88c2.15 7.3-3.34 14.68-11 14.68z" fill="#72c2e9"/></g><g><g><path d="m102.16 110.613 22.62 22.62c-3.74 1.09-6.69 4.04-7.78 7.78l-22.62-22.62c-2.15-2.15-2.15-5.63 0-7.78s5.63-2.15 7.78 0z" fill="#afafaf"/></g><g><path d="m155.25 124.763-16.25 16.25c-.54-1.87-1.56-3.54-2.9-4.88s-3.01-2.36-4.88-2.9l16.25-16.25c2.14-2.14 5.63-2.14 7.78 0 2.14 2.15 2.14 5.63 0 7.78z" fill="#afafaf"/></g></g><g><path d="m200.259 47.939c-1.271-.539-1.864-2.006-1.325-3.277.34-.801.614-1.628.815-2.458.325-1.342 1.684-2.166 3.019-1.84 1.342.326 2.166 1.677 1.841 3.019-.266 1.094-.626 2.181-1.071 3.231-.539 1.268-2.004 1.865-3.279 1.325zm-.896-14.193c-2.139-6.264-7.989-10.473-14.56-10.473-1.381 0-2.5-1.119-2.5-2.5s1.119-2.5 2.5-2.5c8.709 0 16.462 5.569 19.292 13.857.446 1.307-.252 2.728-1.559 3.173-1.306.447-2.726-.25-3.173-1.557z" fill="#c5e5fe"/></g><g><path d="m85.143 32.162c-3.58-7.704-12.313-10.689-19.673-7.79-1.286.505-2.736-.125-3.242-1.41s.125-2.736 1.41-3.243c9.705-3.824 21.284.099 26.04 10.335.581 1.252.038 2.739-1.214 3.32-1.244.581-2.736.047-3.321-1.212zm-31.042.738c-1.234-.618-1.734-2.12-1.116-3.354.511-1.021 1.103-2 1.758-2.908.809-1.119 2.371-1.373 3.49-.563 1.12.808 1.372 2.371.564 3.49-.499.691-.95 1.438-1.342 2.219-.618 1.236-2.123 1.733-3.354 1.116z" fill="#c5e5fe"/></g><circle cx="128" cy="102.773" r="2.5"/><path d="m128 223.854c7.689 0 15.3-1.1 22.609-3.25 1.32-.4 2.07-1.79 1.69-3.11-.38-1.28-1.81-2.07-3.11-1.69-6.85 2.02-13.979 3.05-21.189 3.05-41.233 0-74.63-33.358-74.63-74.62 0-40.338 31.945-73.254 72.13-74.569v23.109c0 1.38 1.12 2.5 2.5 2.5s2.5-1.12 2.5-2.5c0-8.004 0-14.334 0-23.109 18.16.595 35.192 7.648 48.459 20.075l-23.998 23.998c-3.003-1.508-6.762-1.018-9.259 1.479l-15.202 15.201v-17.645c0-1.38-1.12-2.5-2.5-2.5s-2.5 1.12-2.5 2.5v17.645l-21.572-21.572c-3.119-3.119-8.195-3.119-11.316 0-3.118 3.12-3.118 8.196.001 11.315l21.642 21.642c-.682 3.787.219 7.648 2.571 10.792 5.589 7.469 16.76 7.472 22.351-.001 2.354-3.144 3.253-7.007 2.571-10.791l15.271-15.271c.002-.001.003-.003.005-.004 2.486-2.499 2.974-6.251 1.471-9.252l24.001-24.001c12.997 13.876 20.135 31.865 20.135 50.959 0 26.23-13.39 50.06-35.82 63.75-1.195.713-1.532 2.285-.83 3.43.741 1.208 2.281 1.535 3.44.84 23.138-14.139 38.21-39.503 38.21-68.02 0-43.961-35.619-79.63-79.63-79.63-43.989 0-79.63 35.638-79.63 79.63-.001 43.929 35.607 79.62 79.629 79.62zm-11.758-87.134-20.094-20.094c-1.17-1.17-1.17-3.075-.001-4.245 1.171-1.171 3.075-1.17 4.245 0l20.094 20.094c-1.597 1.028-3.122 2.499-4.244 4.245zm18.931 12.879c-3.587 4.794-10.755 4.799-14.344.001-1.71-2.286-2.231-5.158-1.429-7.887 2.489-8.546 14.705-8.565 17.201.006.801 2.723.281 5.595-1.428 7.88zm18.306-26.6-13.718 13.718c-1.051-1.636-2.53-3.145-4.245-4.245l13.721-13.72c1.168-1.167 3.074-1.166 4.24-.004 1.168 1.171 1.168 3.078.002 4.251z"/><path d="m158.25 212.463v.01c-1.265.56-1.825 2.06-1.26 3.29.555 1.251 2.033 1.846 3.3 1.27 1.26-.56 1.83-2.04 1.27-3.3-.55-1.22-2.07-1.82-3.31-1.27z"/><path d="m43.35 40.023c1.351 0 2.44-1.06 2.5-2.4.05-1.38-1.02-2.54-2.399-2.6-1.41-.06-2.54 1.02-2.591 2.39-.06 1.38 1.011 2.55 2.391 2.61z"/><path d="m52.023 207.725-18.41 18.401c-4.939 4.939-4.939 12.976 0 17.915s12.975 4.94 17.915 0l19.101-19.101c16.795 11.99 36.577 18.333 57.371 18.333 20.796 0 40.579-6.344 57.372-18.333l19.101 19.1c4.939 4.939 12.975 4.94 17.915 0 4.939-4.939 4.939-12.976 0-17.916l-18.41-18.4c14.876-17.766 23.063-40.208 23.063-63.492 0-33.214-16.364-63.786-43.878-82.254l4.595-8.66 13.545 6.028c3.455 1.539 7.527-.017 9.072-3.483 2.376-5.353 4.797-9.834 4.797-17.203 0-21.212-21.335-36.016-41.271-28.363-12.962 4.976-16.54 15.291-19.025 20.873-1.544 3.455.005 7.516 3.48 9.065l10.839 4.823-3.934 7.413c-8.847-3.596-18.125-5.873-27.642-6.786v-12.412h3.67c3.032 0 5.5-2.467 5.5-5.5v-10.17c0-3.033-2.468-5.5-5.5-5.5h-26.58c-3.032 0-5.5 2.467-5.5 5.5v10.17c0 3.033 2.468 5.5 5.5 5.5h3.67v12.413c-9.513.914-18.789 3.188-27.642 6.778l-3.934-7.407 10.835-4.825c3.514-1.572 5.017-5.674 3.48-9.06l-2.17-4.88c-10.775-24.231-45.411-23.89-55.728.551-.524 1.25.035 2.723 1.34 3.27 1.24.53 2.75-.09 3.271-1.33 8.588-20.358 37.532-20.745 46.56-.45l2.17 4.88c.42.913-.001 2.036-.95 2.46-.599.266-43.055 19.27-43.71 19.27-.739 0-1.409-.44-1.71-1.11-2.224-5.007-2.501-5.539-3.08-7.25-.42-1.28-1.869-2.02-3.159-1.59-1.301.44-2.021 1.85-1.591 3.16.659 1.938.971 2.547 3.261 7.71 1.109 2.48 3.569 4.08 6.27 4.08h.03c.95 0 1.91-.21 2.78-.59l13.543-6.031 4.594 8.657c-27.517 18.472-43.879 49.043-43.879 82.254 0 23.285 8.187 45.728 23.063 63.492zm-4.031 32.781c-2.989 2.99-7.854 2.99-10.845 0-2.989-2.99-2.989-7.855 0-10.844l18.168-18.159c.025.027.052.053.077.081.143.154 4.762 5.258 11.183 10.338zm170.861-10.845c2.989 2.99 2.989 7.854 0 10.845-2.991 2.99-7.855 2.989-10.845 0l-18.584-18.584c.096-.076.188-.157.283-.233 3.906-3.111 7.584-6.528 10.916-10.122.02-.022.041-.042.061-.063zm-39.916-170.384c-3.213-1.934-6.252-3.511-9.066-4.821l3.904-7.359c1.451.646-.169-.076 9.402 4.189zm-18.546-23.609c-.938-.418-1.372-1.515-.948-2.459 2.334-5.244 5.23-14.011 16.251-18.243 16.677-6.401 34.479 6 34.479 23.695 0 6.184-1.99 9.819-4.365 15.171-.421.942-1.529 1.366-2.472.947-6.162-2.741-36.591-16.283-42.945-19.111zm-45.681-7.395c-.275 0-.5-.224-.5-.5v-10.17c0-.276.225-.5.5-.5h26.58c.275 0 .5.224.5.5v10.17c0 .276-.225.5-.5.5-2.925 0-23.69 0-26.58 0zm17.91 5v12.03c-2.778-.133-6.184-.146-9.24 0v-12.03zm-59.795 18.013c1.166-.52 8.268-3.685 9.401-4.189l3.904 7.353c-3.261 1.523-6.354 3.194-9.064 4.826zm55.175-1.082c52.518.103 94.04 42.373 94.04 94.029 0 51.403-41.592 94.04-94.04 94.04-52.357 0-94.04-42.508-94.04-94.04 0-52.715 42.864-94.129 94.04-94.029z"/><path d="m125.5 201.565v5.333c0 1.381 1.119 2.5 2.5 2.5s2.5-1.119 2.5-2.5v-5.333c0-1.381-1.119-2.5-2.5-2.5s-2.5 1.12-2.5 2.5z"/><path d="m85.691 183.005-3.771 3.771c-.977.976-.977 2.559 0 3.535.977.977 2.559.977 3.535 0l3.771-3.771c.977-.976.977-2.559 0-3.535-.976-.977-2.558-.977-3.535 0z"/><path d="m190.667 146.732c1.381 0 2.5-1.119 2.5-2.5s-1.119-2.5-2.5-2.5h-5.334c-1.381 0-2.5 1.119-2.5 2.5s1.119 2.5 2.5 2.5z"/><path d="m65.333 141.732c-1.381 0-2.5 1.119-2.5 2.5s1.119 2.5 2.5 2.5h5.334c1.381 0 2.5-1.119 2.5-2.5s-1.119-2.5-2.5-2.5z"/><path d="m170.545 190.312c.977.977 2.559.977 3.535 0 .977-.976.977-2.559 0-3.535l-3.771-3.771c-.977-.977-2.559-.977-3.535 0-.977.976-.977 2.559 0 3.535z"/><path d="m89.227 101.923-3.771-3.771c-.977-.976-2.559-.976-3.535 0-.977.976-.977 2.559 0 3.536l3.771 3.771c.977.976 2.559.976 3.535 0 .976-.977.976-2.56 0-3.536z"/><path d="m149.342 82.849c-.687-1.197-2.214-1.612-3.412-.924-5.246 3.009-6.401 3.493-6.998 4.195-.546.642-.722 1.496-.504 2.278.171.622.552 1.136 3.872 6.925.688 1.198 2.215 1.612 3.413.924 1.197-.687 1.611-2.215.925-3.413l-.688-1.199c3.802 1.273 7.388 3.099 10.699 5.486 1.119.807 2.682.555 3.489-.565.808-1.12.555-2.683-.565-3.49-3.765-2.715-7.847-4.785-12.179-6.218l1.023-.587c1.198-.687 1.612-2.215.925-3.412z"/></g></svg>